Montserrat-Light.ufo
<glyph name="parenright" format="2">
  <advance width="311"/>
  <unicode hex="0029"/>
  <outline>
    <contour>
      <point x="77" y="-194" type="line"/>
      <point x="148" y="-73"/>
      <point x="188" y="89"/>
      <point x="188" y="274" type="curve" smooth="yes"/>
      <point x="188" y="459"/>
      <point x="148" y="624"/>
      <point x="77" y="742" type="curve"/>
      <point x="58" y="742" type="line"/>
      <point x="134" y="614"/>
      <point x="168" y="459"/>
      <point x="168" y="274" type="curve" smooth="yes"/>
      <point x="168" y="89"/>
      <point x="134" y="-66"/>
      <point x="58" y="-194" type="curve"/>
    </contour>
  </outline>
</glyph>
<glyph name="period" format="2">
  <advance width="182"/>
  <unicode hex="002E"/>
  <outline>
    <contour>
      <point x="91" y="-3" type="curve" smooth="yes"/>
      <point x="105" y="-3"/>
      <point x="117" y="9"/>
      <point x="117" y="23" type="curve" smooth="yes"/>
      <point x="117" y="37"/>
      <point x="105" y="49"/>
      <point x="91" y="49" type="curve" smooth="yes"/>
      <point x="77" y="49"/>
      <point x="65" y="37"/>
      <point x="65" y="23" type="curve" smooth="yes"/>
      <point x="65" y="9"/>
      <point x="77" y="-3"/>
    </contour>
  </outline>
</glyph>
<glyph name="one" format="2">
  <advance width="342"/>
  <unicode hex="0031"/>
  <outline>
    <contour>
      <point x="190" y="0" type="line"/>
      <point x="209" y="0" type="line"/>
      <point x="209" y="700" type="line"/>
      <point x="10" y="700" type="line"/>
      <point x="10" y="681" type="line"/>
      <point x="199" y="681" type="line"/>
      <point x="190" y="689" type="line"/>
    </contour>
  </outline>
</glyph>
<glyph name="two" format="2">
  <advance width="555"/>
  <unicode hex="0032"/>
  <outline>
    <contour>
      <point x="43" y="0" type="line"/>
      <point x="511" y="0" type="line"/>
      <point x="511" y="19" type="line"/>
      <point x="54" y="19" type="line"/>
      <point x="66" y="11" type="line"/>
      <point x="360" y="309" type="line" smooth="yes"/>
      <point x="451" y="401"/>
      <point x="473" y="458"/>
      <point x="473" y="524" type="curve" smooth="yes"/>
      <point x="473" y="635"/>
      <point x="390" y="703"/>
      <point x="258" y="703" type="curve" smooth="yes"/>
      <point x="156" y="703"/>
      <point x="80" y="671"/>
      <point x="28" y="613" type="curve"/>
      <point x="42" y="599" type="line"/>
      <point x="93" y="656"/>
      <point x="162" y="684"/>
      <point x="258" y="684" type="curve" smooth="yes"/>
      <point x="385" y="684"/>
      <point x="453" y="621"/>
      <point x="453" y="523" type="curve" smooth="yes"/>
      <point x="453" y="464"/>
      <point x="435" y="412"/>
      <point x="346" y="322" type="curve" smooth="yes"/>
      <point x="43" y="15" type="line"/>
    </contour>
  </outline>
</glyph>
<glyph name="seven" format="2">
  <advance width="570"/>
  <unicode hex="0037"/>
  <outline>
    <contour>
      <point x="186" y="0" type="line"/>
      <point x="209" y="0" type="line"/>
      <point x="522" y="685" type="line"/>
      <point x="522" y="700" type="line"/>
      <point x="36" y="700" type="line"/>
      <point x="36" y="540" type="line"/>
      <point x="56" y="540" type="line"/>
      <point x="56" y="689" type="line"/>
      <point x="47" y="681" type="line"/>
      <point x="513" y="681" type="line"/>
      <point x="501" y="688" type="line"/>
    </contour>
  </outline>
</glyph>
<glyph name="nine" format="2">
  <advance width="592"/>
  <unicode hex="0039"/>
  <outline>
    <contour>
      <point x="260" y="703" type="curve" smooth="yes"/>
      <point x="130" y="703"/>
      <point x="37" y="622"/>
      <point x="37" y="498" type="curve" smooth="yes"/>
      <point x="37" y="374"/>
      <point x="127" y="294"/>
      <point x="267" y="294" type="curve" smooth="yes"/>
      <point x="396" y="294"/>
      <point x="498" y="373"/>
      <point x="502" y="505" type="curve"/>
      <point x="494" y="490" type="line"/>
      <point x="510" y="439"/>
      <point x="513" y="382"/>
      <point x="513" y="348" type="curve" smooth="yes"/>
      <point x="513" y="127"/>
      <point x="403" y="16"/>
      <point x="235" y="16" type="curve" smooth="yes"/>
      <point x="181" y="16"/>
      <point x="131" y="25"/>
      <point x="96" y="47" type="curve"/>
      <point x="86" y="30" type="line"/>
      <point x="127" y="5"/>
      <point x="179" y="-3"/>
      <point x="235" y="-3" type="curve" smooth="yes"/>
      <point x="413" y="-3"/>
      <point x="533" y="115"/>
      <point x="533" y="350" type="curve" smooth="yes"/>
      <point x="533" y="567"/>
      <point x="442" y="703"/>
    </contour>
    <contour>
      <point x="260" y="684" type="curve" smooth="yes"/>
      <point x="407" y="684"/>
      <point x="482" y="588"/>
      <point x="482" y="500" type="curve" smooth="yes"/>
      <point x="482" y="396"/>
      <point x="395" y="313"/>
      <point x="267" y="313" type="curve" smooth="yes"/>
      <point x="137" y="313"/>
      <point x="57" y="386"/>
      <point x="57" y="498" type="curve" smooth="yes"/>
      <point x="57" y="610"/>
      <point x="140" y="684"/>
    </contour>
  </outline>
</glyph>
<glyph name="equal" format="2">
  <advance width="560"/>
  <unicode hex="003D"/>
  <outline>
    <contour>
      <point x="75" y="450" type="line"/>
      <point x="485" y="450" type="line"/>
      <point x="485" y="469" type="line"/>
      <point x="75" y="469" type="line"/>
    </contour>
    <contour>
      <point x="75" y="231" type="line"/>
      <point x="485" y="231" type="line"/>
      <point x="485" y="250" type="line"/>
      <point x="75" y="250" type="line"/>
    </contour>
  </outline>
</glyph>
<glyph name="H" format="2">
  <advance width="816"/>
  <unicode hex="0048"/>
  <anchor x="408" y="0" name="bottom"/>
  <anchor x="408" y="538" name="center"/>
  <anchor x="408" y="700" name="top"/>
  <outline>
    <contour>
      <point x="663" y="700" type="line"/>
      <point x="663" y="0" type="line"/>
      <point x="683" y="0" type="line"/>
      <point x="683" y="700" type="line"/>
    </contour>
    <contour>
      <point x="153" y="0" type="line"/>
      <point x="153" y="700" type="line"/>
      <point x="133" y="700" type="line"/>
      <point x="133" y="0" type="line"/>
    </contour>
    <contour>
      <point x="668" y="346" type="line"/>
      <point x="668" y="365" type="line"/>
      <point x="148" y="365" type="line"/>
      <point x="148" y="346" type="line"/>
    </contour>
  </outline>
</glyph>
<glyph name="I" format="2">
  <advance width="286"/>
  <unicode hex="0049"/>
  <anchor x="143" y="0" name="bottom"/>
  <anchor x="153" y="0" name="ogonek"/>
  <anchor x="143" y="700" name="top"/>
  <anchor x="41" y="699" name="topleft"/>
  <outline>
    <contour>
      <point x="133" y="0" type="line"/>
      <point x="153" y="0" type="line"/>
      <point x="153" y="700" type="line"/>
      <point x="133" y="700" type="line"/>
    </contour>
  </outline>
</glyph>
<glyph name="L" format="2">
  <advance width="580"/>
  <unicode hex="004C"/>
  <guideline x="466" y="20" angle="90"/>
  <anchor x="362" y="0" name="bottom"/>
  <anchor x="143" y="360" name="center"/>
  <anchor x="433" y="360" name="dot"/>
  <anchor x="143" y="700" name="top"/>
  <anchor x="446" y="700" name="topright"/>
  <outline>
    <contour>
      <point x="133" y="0" type="line"/>
      <point x="570" y="0" type="line"/>
      <point x="570" y="19" type="line"/>
      <point x="153" y="19" type="line"/>
      <point x="153" y="700" type="line"/>
      <point x="133" y="700" type="line"/>
    </contour>
  </outline>
</glyph>
<glyph name="N" format="2">
  <advance width="816"/>
  <unicode hex="004E"/>
  <anchor x="408" y="0" name="bottom"/>
  <anchor x="408" y="700" name="top"/>
  <outline>
    <contour>
      <point x="133" y="0" type="line"/>
      <point x="153" y="0" type="line"/>
      <point x="153" y="677" type="line"/>
      <point x="142" y="677" type="line"/>
      <point x="666" y="0" type="line"/>
      <point x="683" y="0" type="line"/>
      <point x="683" y="700" type="line"/>
      <point x="663" y="700" type="line"/>
      <point x="663" y="23" type="line"/>
      <point x="674" y="23" type="line"/>
      <point x="150" y="700" type="line"/>
      <point x="133" y="700" type="line"/>
    </contour>
  </outline>
</glyph>
<glyph name="P" format="2">
  <advance width="710"/>
  <unicode hex="0050"/>
  <outline>
    <contour>
      <point x="133" y="0" type="line"/>
      <point x="153" y="0" type="line"/>
      <point x="153" y="249" type="line"/>
      <point x="144" y="240" type="line"/>
      <point x="370" y="240" type="line" smooth="yes"/>
      <point x="542" y="240"/>
      <point x="645" y="325"/>
      <point x="645" y="470" type="curve" smooth="yes"/>
      <point x="645" y="615"/>
      <point x="542" y="700"/>
      <point x="370" y="700" type="curve" smooth="yes"/>
      <point x="133" y="700" type="line"/>
    </contour>
    <contour>
      <point x="153" y="251" type="line"/>
      <point x="153" y="689" type="line"/>
      <point x="144" y="681" type="line"/>
      <point x="372" y="681" type="line" smooth="yes"/>
      <point x="536" y="681"/>
      <point x="625" y="604"/>
      <point x="625" y="470" type="curve" smooth="yes"/>
      <point x="625" y="336"/>
      <point x="536" y="259"/>
      <point x="372" y="259" type="curve" smooth="yes"/>
      <point x="144" y="259" type="line"/>
    </contour>
  </outline>
</glyph>
<glyph name="Q" format="2">
  <advance width="836"/>
  <unicode hex="0051"/>
  <anchor x="418" y="700" name="top"/>
  <outline>
    <contour>
      <point x="418" y="-3" type="curve" smooth="yes"/>
      <point x="623" y="-3"/>
      <point x="777" y="148"/>
      <point x="777" y="350" type="curve" smooth="yes"/>
      <point x="777" y="552"/>
      <point x="623" y="703"/>
      <point x="418" y="703" type="curve" smooth="yes"/>
      <point x="213" y="703"/>
      <point x="59" y="552"/>
      <point x="59" y="350" type="curve" smooth="yes"/>
      <point x="59" y="148"/>
      <point x="213" y="-3"/>
    </contour>
    <contour>
      <point x="648" y="-124" type="curve" smooth="yes"/>
      <point x="711" y="-124"/>
      <point x="766" y="-98"/>
      <point x="807" y="-48" type="curve"/>
      <point x="793" y="-34" type="line"/>
      <point x="753" y="-82"/>
      <point x="706" y="-105"/>
      <point x="648" y="-105" type="curve" smooth="yes"/>
      <point x="585" y="-105"/>
      <point x="519" y="-67"/>
      <point x="451" y="8" type="curve"/>
      <point x="425" y="3" type="line"/>
      <point x="509" y="-85"/>
      <point x="577" y="-124"/>
    </contour>
    <contour>
      <point x="418" y="16" type="curve" smooth="yes"/>
      <point x="225" y="16"/>
      <point x="79" y="161"/>
      <point x="79" y="350" type="curve" smooth="yes"/>
      <point x="79" y="539"/>
      <point x="225" y="684"/>
      <point x="418" y="684" type="curve" smooth="yes"/>
      <point x="611" y="684"/>
      <point x="757" y="539"/>
      <point x="757" y="350" type="curve" smooth="yes"/>
      <point x="757" y="161"/>
      <point x="611" y="16"/>
    </contour>
  </outline>
</glyph>
<glyph name="S" format="2">
  <advance width="601"/>
  <unicode hex="0053"/>
  <anchor x="318" y="0" name="bottom"/>
  <anchor x="318" y="700" name="top"/>
  <outline>
    <contour>
      <point x="304" y="-3" type="curve" smooth="yes"/>
      <point x="470" y="-3"/>
      <point x="543" y="79"/>
      <point x="543" y="172" type="curve" smooth="yes"/>
      <point x="543" y="425"/>
      <point x="98" y="290"/>
      <point x="98" y="526" type="curve" smooth="yes"/>
      <point x="98" y="613"/>
      <point x="166" y="684"/>
      <point x="313" y="684" type="curve" smooth="yes"/>
      <point x="376" y="684"/>
      <point x="448" y="664"/>
      <point x="504" y="623" type="curve"/>
      <point x="515" y="639" type="line"/>
      <point x="464" y="678"/>
      <point x="387" y="703"/>
      <point x="312" y="703" type="curve" smooth="yes"/>
      <point x="148" y="703"/>
      <point x="78" y="619"/>
      <point x="78" y="527" type="curve" smooth="yes"/>
      <point x="78" y="269"/>
      <point x="523" y="407"/>
      <point x="523" y="172" type="curve" smooth="yes"/>
      <point x="523" y="86"/>
      <point x="455" y="16"/>
      <point x="303" y="16" type="curve" smooth="yes"/>
      <point x="205" y="16"/>
      <point x="116" y="57"/>
      <point x="72" y="109" type="curve"/>
      <point x="58" y="96" type="line"/>
      <point x="105" y="38"/>
      <point x="202" y="-3"/>
    </contour>
  </outline>
</glyph>
<glyph name="X" format="2">
  <advance width="621"/>
  <unicode hex="0058"/>
  <outline>
    <contour>
      <point x="25" y="0" type="line"/>
      <point x="49" y="0" type="line"/>
      <point x="313" y="351" type="line"/>
      <point x="307" y="351" type="line"/>
      <point x="571" y="0" type="line"/>
      <point x="596" y="0" type="line"/>
      <point x="320" y="366" type="line"/>
      <point x="320" y="358" type="line"/>
      <point x="576" y="700" type="line"/>
      <point x="552" y="700" type="line"/>
      <point x="308" y="373" type="line"/>
      <point x="314" y="373" type="line"/>
      <point x="70" y="700" type="line"/>
      <point x="45" y="700" type="line"/>
      <point x="304" y="354" type="line"/>
      <point x="304" y="370" type="line"/>
    </contour>
  </outline>
</glyph>
<glyph name="Z" format="2">
  <advance width="639"/>
  <unicode hex="005A"/>
  <anchor x="335" y="0" name="bottom"/>
  <anchor x="325" y="700" name="top"/>
  <outline>
    <contour>
      <point x="50" y="0" type="line"/>
      <point x="600" y="0" type="line"/>
      <point x="600" y="19" type="line"/>
      <point x="72" y="19" type="line"/>
      <point x="73" y="12" type="line"/>
      <point x="590" y="685" type="line"/>
      <point x="590" y="700" type="line"/>
      <point x="55" y="700" type="line"/>
      <point x="55" y="681" type="line"/>
      <point x="568" y="681" type="line"/>
      <point x="567" y="688" type="line"/>
      <point x="50" y="15" type="line"/>
    </contour>
  </outline>
</glyph>
<glyph name="e" format="2">
  <advance width="587"/>
  <unicode hex="0065"/>
  <guideline x="438" y="80" angle="90"/>
  <anchor x="294" y="0" name="bottom"/>
  <anchor x="493" y="0" name="ogonek"/>
  <anchor x="294" y="517" name="top"/>
  <outline>
    <contour>
      <point x="312" y="-3" type="curve" smooth="yes"/>
      <point x="386" y="-3"/>
      <point x="456" y="26"/>
      <point x="502" y="82" type="curve"/>
      <point x="488" y="96" type="line"/>
      <point x="447" y="42"/>
      <point x="381" y="16"/>
      <point x="312" y="16" type="curve" smooth="yes"/>
      <point x="175" y="16"/>
      <point x="73" y="116"/>
      <point x="73" y="259" type="curve" smooth="yes"/>
      <point x="73" y="263" type="line" smooth="yes"/>
      <point x="73" y="399"/>
      <point x="166" y="501"/>
      <point x="293" y="501" type="curve" smooth="yes"/>
      <point x="420" y="501"/>
      <point x="514" y="399"/>
      <point x="514" y="263" type="curve"/>
      <point x="522" y="278" type="line"/>
      <point x="65" y="278" type="line"/>
      <point x="65" y="259" type="line"/>
      <point x="533" y="259" type="line"/>
      <point x="533" y="261"/>
      <point x="533" y="262"/>
      <point x="533" y="264" type="curve" smooth="yes"/>
      <point x="533" y="414"/>
      <point x="429" y="520"/>
      <point x="293" y="520" type="curve" smooth="yes"/>
      <point x="156" y="520"/>
      <point x="54" y="412"/>
      <point x="54" y="259" type="curve" smooth="yes"/>
      <point x="54" y="106"/>
      <point x="163" y="-3"/>
    </contour>
  </outline>
</glyph>
<glyph name="k" format="2">
  <advance width="570"/>
  <unicode hex="006B"/>
  <anchor x="307" y="0" name="bottom"/>
  <anchor x="125" y="742" name="top"/>
  <anchor x="223" y="517" name="topright"/>
  <outline>
    <contour>
      <point x="128" y="154" type="line"/>
      <point x="288" y="299" type="line"/>
      <point x="304" y="311" type="line"/>
      <point x="529" y="517" type="line"/>
      <point x="500" y="517" type="line"/>
      <point x="128" y="178" type="line"/>
    </contour>
    <contour>
      <point x="115" y="0" type="line"/>
      <point x="135" y="0" type="line"/>
      <point x="135" y="742" type="line"/>
      <point x="115" y="742" type="line"/>
    </contour>
    <contour>
      <point x="526" y="0" type="line"/>
      <point x="552" y="0" type="line"/>
      <point x="300" y="316" type="line"/>
      <point x="284" y="304" type="line"/>
    </contour>
  </outline>
</glyph>
<glyph name="m" format="2">
  <advance width="1068"/>
  <unicode hex="006D"/>
  <anchor x="537" y="0" name="bottom"/>
  <outline>
    <contour>
      <point x="758" y="520" type="curve" smooth="yes"/>
      <point x="643" y="520"/>
      <point x="565" y="455"/>
      <point x="540" y="360" type="curve"/>
      <point x="543" y="359" type="line"/>
      <point x="525" y="465"/>
      <point x="453" y="520"/>
      <point x="346" y="520" type="curve" smooth="yes"/>
      <point x="238" y="520"/>
      <point x="162" y="463"/>
      <point x="133" y="374" type="curve"/>
      <point x="135" y="371" type="line"/>
      <point x="135" y="517" type="line"/>
      <point x="115" y="517" type="line"/>
      <point x="115" y="0" type="line"/>
      <point x="135" y="0" type="line"/>
      <point x="135" y="281" type="line" smooth="yes"/>
      <point x="135" y="412"/>
      <point x="215" y="501"/>
      <point x="347" y="501" type="curve" smooth="yes"/>
      <point x="460" y="501"/>
      <point x="527" y="433"/>
      <point x="527" y="305" type="curve" smooth="yes"/>
      <point x="527" y="0" type="line"/>
      <point x="547" y="0" type="line"/>
      <point x="547" y="281" type="line" smooth="yes"/>
      <point x="547" y="412"/>
      <point x="627" y="501"/>
      <point x="759" y="501" type="curve" smooth="yes"/>
      <point x="872" y="501"/>
      <point x="939" y="433"/>
      <point x="939" y="305" type="curve" smooth="yes"/>
      <point x="939" y="0" type="line"/>
      <point x="959" y="0" type="line"/>
      <point x="959" y="305" type="line" smooth="yes"/>
      <point x="959" y="445"/>
      <point x="882" y="520"/>
    </contour>
  </outline>
</glyph>
<glyph name="o" format="2">
  <advance width="610"/>
  <unicode hex="006F"/>
  <guideline x="305" y="274" angle="90"/>
  <anchor x="305" y="0" name="bottom"/>
  <anchor x="305" y="259" name="center"/>
  <anchor x="390" y="0" name="ogonek"/>
  <anchor x="305" y="517" name="top"/>
  <anchor x="466" y="518" name="topright"/>
  <outline>
    <contour>
      <point x="305" y="-3" type="curve" smooth="yes"/>
      <point x="449" y="-3"/>
      <point x="556" y="106"/>
      <point x="556" y="259" type="curve" smooth="yes"/>
      <point x="556" y="412"/>
      <point x="449" y="520"/>
      <point x="305" y="520" type="curve" smooth="yes"/>
      <point x="161" y="520"/>
      <point x="54" y="412"/>
      <point x="54" y="259" type="curve" smooth="yes"/>
      <point x="54" y="106"/>
      <point x="161" y="-3"/>
    </contour>
    <contour>
      <point x="305" y="16" type="curve" smooth="yes"/>
      <point x="173" y="16"/>
      <point x="74" y="116"/>
      <point x="74" y="259" type="curve" smooth="yes"/>
      <point x="74" y="402"/>
      <point x="173" y="501"/>
      <point x="305" y="501" type="curve" smooth="yes"/>
      <point x="437" y="501"/>
      <point x="536" y="402"/>
      <point x="536" y="259" type="curve" smooth="yes"/>
      <point x="536" y="116"/>
      <point x="437" y="16"/>
    </contour>
  </outline>
</glyph>
<glyph name="braceleft" format="2">
  <advance width="300"/>
  <unicode hex="007B"/>
  <outline>
    <contour>
      <point x="250" y="-194" type="curve" smooth="yes"/>
      <point x="275" y="-194" type="line"/>
      <point x="275" y="-175" type="line"/>
      <point x="243" y="-175" type="line" smooth="yes"/>
      <point x="189" y="-175"/>
      <point x="165" y="-145"/>
      <point x="165" y="-92" type="curve" smooth="yes"/>
      <point x="165" y="212" type="line" smooth="yes"/>
      <point x="165" y="252"/>
      <point x="153" y="267"/>
      <point x="128" y="276" type="curve"/>
      <point x="128" y="272" type="line"/>
      <point x="153" y="281"/>
      <point x="165" y="296"/>
      <point x="165" y="336" type="curve" smooth="yes"/>
      <point x="165" y="640" type="line" smooth="yes"/>
      <point x="165" y="693"/>
      <point x="189" y="723"/>
      <point x="243" y="723" type="curve" smooth="yes"/>
      <point x="275" y="723" type="line"/>
      <point x="275" y="742" type="line"/>
      <point x="250" y="742" type="line" smooth="yes"/>
      <point x="181" y="742"/>
      <point x="145" y="710"/>
      <point x="145" y="640" type="curve" smooth="yes"/>
      <point x="145" y="336" type="line" smooth="yes"/>
      <point x="145" y="299"/>
      <point x="129" y="284"/>
      <point x="100" y="284" type="curve" smooth="yes"/>
      <point x="65" y="284" type="line"/>
      <point x="65" y="265" type="line"/>
      <point x="100" y="265" type="line" smooth="yes"/>
      <point x="129" y="265"/>
      <point x="145" y="249"/>
      <point x="145" y="212" type="curve" smooth="yes"/>
      <point x="145" y="-92" type="line" smooth="yes"/>
      <point x="145" y="-162"/>
      <point x="181" y="-194"/>
    </contour>
  </outline>
</glyph>
<glyph name="braceright" format="2">
  <advance width="300"/>
  <unicode hex="007D"/>
  <outline>
    <contour>
      <point x="50" y="-194" type="line" smooth="yes"/>
      <point x="119" y="-194"/>
      <point x="155" y="-162"/>
      <point x="155" y="-92" type="curve" smooth="yes"/>
      <point x="155" y="212" type="line" smooth="yes"/>
      <point x="155" y="249"/>
      <point x="171" y="265"/>
      <point x="200" y="265" type="curve" smooth="yes"/>
      <point x="235" y="265" type="line"/>
      <point x="235" y="284" type="line"/>
      <point x="200" y="284" type="line" smooth="yes"/>
      <point x="171" y="284"/>
      <point x="155" y="299"/>
      <point x="155" y="336" type="curve" smooth="yes"/>
      <point x="155" y="640" type="line" smooth="yes"/>
      <point x="155" y="710"/>
      <point x="119" y="742"/>
      <point x="50" y="742" type="curve" smooth="yes"/>
      <point x="25" y="742" type="line"/>
      <point x="25" y="723" type="line"/>
      <point x="57" y="723" type="line" smooth="yes"/>
      <point x="111" y="723"/>
      <point x="135" y="693"/>
      <point x="135" y="640" type="curve" smooth="yes"/>
      <point x="135" y="336" type="line" smooth="yes"/>
      <point x="135" y="296"/>
      <point x="147" y="281"/>
      <point x="172" y="272" type="curve"/>
      <point x="172" y="276" type="line"/>
      <point x="147" y="267"/>
      <point x="135" y="252"/>
      <point x="135" y="212" type="curve" smooth="yes"/>
      <point x="135" y="-92" type="line" smooth="yes"/>
      <point x="135" y="-145"/>
      <point x="111" y="-175"/>
      <point x="57" y="-175" type="curve" smooth="yes"/>
      <point x="25" y="-175" type="line"/>
      <point x="25" y="-194" type="line"/>
    </contour>
  </outline>
</glyph>
<glyph name="asciitilde" format="2">
  <advance width="560"/>
  <unicode hex="007E"/>
  <outline>
    <contour>
      <point x="382" y="286" type="curve" smooth="yes"/>
      <point x="444" y="286"/>
      <point x="487" y="333"/>
      <point x="491" y="411" type="curve"/>
      <point x="473" y="411" type="line"/>
      <point x="470" y="346"/>
      <point x="437" y="304"/>
      <point x="382" y="304" type="curve" smooth="yes"/>
      <point x="300" y="304"/>
      <point x="273" y="414"/>
      <point x="178" y="414" type="curve" smooth="yes"/>
      <point x="116" y="414"/>
      <point x="73" y="367"/>
      <point x="69" y="289" type="curve"/>
      <point x="87" y="289" type="line"/>
      <point x="90" y="354"/>
      <point x="123" y="396"/>
      <point x="178" y="396" type="curve" smooth="yes"/>
      <point x="260" y="396"/>
      <point x="287" y="286"/>
    </contour>
  </outline>
</glyph>
<glyph name="currency" format="2">
  <advance width="700"/>
  <unicode hex="00A4"/>
  <outline>
    <contour>
      <point x="159" y="494" type="line"/>
      <point x="174" y="508" type="line"/>
      <point x="53" y="629" type="line"/>
      <point x="39" y="615" type="line"/>
    </contour>
    <contour>
      <point x="53" y="6" type="line"/>
      <point x="174" y="127" type="line"/>
      <point x="159" y="141" type="line"/>
      <point x="39" y="20" type="line"/>
    </contour>
    <contour>
      <point x="647" y="6" type="line"/>
      <point x="661" y="20" type="line"/>
      <point x="541" y="141" type="line"/>
      <point x="526" y="127" type="line"/>
    </contour>
    <contour>
      <point x="541" y="494" type="line"/>
      <point x="661" y="615" type="line"/>
      <point x="647" y="629" type="line"/>
      <point x="526" y="508" type="line"/>
    </contour>
    <contour>
      <point x="350" y="46" type="curve" smooth="yes"/>
      <point x="506" y="46"/>
      <point x="633" y="168"/>
      <point x="633" y="316" type="curve" smooth="yes"/>
      <point x="633" y="466"/>
      <point x="506" y="589"/>
      <point x="350" y="589" type="curve" smooth="yes"/>
      <point x="196" y="589"/>
      <point x="70" y="466"/>
      <point x="70" y="316" type="curve" smooth="yes"/>
      <point x="70" y="168"/>
      <point x="196" y="46"/>
    </contour>
    <contour>
      <point x="350" y="66" type="curve" smooth="yes"/>
      <point x="207" y="66"/>
      <point x="90" y="179"/>
      <point x="90" y="316" type="curve" smooth="yes"/>
      <point x="90" y="455"/>
      <point x="207" y="569"/>
      <point x="350" y="569" type="curve" smooth="yes"/>
      <point x="495" y="569"/>
      <point x="613" y="455"/>
      <point x="613" y="316" type="curve" smooth="yes"/>
      <point x="613" y="179"/>
      <point x="495" y="66"/>
    </contour>
  </outline>
</glyph>
<glyph name="yen" format="2">
  <advance width="670"/>
  <unicode hex="00A5"/>
  <outline>
    <contour>
      <point x="325" y="0" type="line"/>
      <point x="345" y="0" type="line"/>
      <point x="345" y="303" type="line"/>
      <point x="340" y="288" type="line"/>
      <point x="660" y="700" type="line"/>
      <point x="637" y="700" type="line"/>
      <point x="331" y="309" type="line"/>
      <point x="339" y="309" type="line"/>
      <point x="33" y="700" type="line"/>
      <point x="10" y="700" type="line"/>
      <point x="330" y="288" type="line"/>
      <point x="325" y="303" type="line"/>
    </contour>
    <contour>
      <point x="85" y="157" type="line"/>
      <point x="585" y="157" type="line"/>
      <point x="585" y="175" type="line"/>
      <point x="85" y="175" type="line"/>
    </contour>
    <contour>
      <point x="85" y="295" type="line"/>
      <point x="585" y="295" type="line"/>
      <point x="585" y="313" type="line"/>
      <point x="85" y="313" type="line"/>
    </contour>
  </outline>
</glyph>
<glyph name="brokenbar" format="2">
  <advance width="286"/>
  <unicode hex="00A6"/>
  <outline>
    <contour>
      <point x="133" y="392" type="line"/>
      <point x="153" y="392" type="line"/>
      <point x="153" y="742" type="line"/>
      <point x="133" y="742" type="line"/>
    </contour>
    <contour>
      <point x="133" y="-194" type="line"/>
      <point x="153" y="-194" type="line"/>
      <point x="153" y="156" type="line"/>
      <point x="133" y="156" type="line"/>
    </contour>
  </outline>
</glyph>
<glyph name="section" format="2">
  <advance width="471"/>
  <unicode hex="00A7"/>
  <outline>
    <contour>
      <point x="315" y="148" type="line"/>
      <point x="380" y="164"/>
      <point x="430" y="213"/>
      <point x="430" y="283" type="curve" smooth="yes"/>
      <point x="430" y="486"/>
      <point x="90" y="382"/>
      <point x="90" y="562" type="curve" smooth="yes"/>
      <point x="90" y="644"/>
      <point x="152" y="684"/>
      <point x="263" y="684" type="curve" smooth="yes"/>
      <point x="321" y="684"/>
      <point x="381" y="667"/>
      <point x="422" y="634" type="curve"/>
      <point x="434" y="650" type="line"/>
      <point x="394" y="682"/>
      <point x="327" y="703"/>
      <point x="263" y="703" type="curve" smooth="yes"/>
      <point x="141" y="703"/>
      <point x="70" y="653"/>
      <point x="70" y="562" type="curve" smooth="yes"/>
      <point x="70" y="364"/>
      <point x="411" y="467"/>
      <point x="411" y="283" type="curve" smooth="yes"/>
      <point x="411" y="211"/>
      <point x="356" y="170"/>
      <point x="289" y="161" type="curve"/>
    </contour>
    <contour>
      <point x="224" y="-103" type="curve" smooth="yes"/>
      <point x="335" y="-103"/>
      <point x="406" y="-53"/>
      <point x="406" y="36" type="curve" smooth="yes"/>
      <point x="406" y="236"/>
      <point x="65" y="133"/>
      <point x="65" y="317" type="curve" smooth="yes"/>
      <point x="65" y="387"/>
      <point x="119" y="428"/>
      <point x="184" y="438" type="curve"/>
      <point x="160" y="451" type="line"/>
      <point x="96" y="435"/>
      <point x="46" y="387"/>
      <point x="46" y="317" type="curve" smooth="yes"/>
      <point x="46" y="114"/>
      <point x="386" y="218"/>
      <point x="386" y="38" type="curve" smooth="yes"/>
      <point x="386" y="-44"/>
      <point x="326" y="-84"/>
      <point x="224" y="-84" type="curve" smooth="yes"/>
      <point x="151" y="-84"/>
      <point x="81" y="-52"/>
      <point x="44" y="-16" type="curve"/>
      <point x="32" y="-32" type="line"/>
      <point x="71" y="-73"/>
      <point x="150" y="-103"/>
    </contour>
  </outline>
</glyph>
<glyph name="copyright" format="2">
  <advance width="824"/>
  <unicode hex="00A9"/>
  <outline>
    <contour>
      <point x="411" y="-3" type="curve" smooth="yes"/>
      <point x="610" y="-3"/>
      <point x="765" y="153"/>
      <point x="765" y="352" type="curve" smooth="yes"/>
      <point x="765" y="551"/>
      <point x="614" y="703"/>
      <point x="413" y="703" type="curve" smooth="yes"/>
      <point x="212" y="703"/>
      <point x="59" y="547"/>
      <point x="59" y="350" type="curve" smooth="yes"/>
      <point x="59" y="153"/>
      <point x="212" y="-3"/>
    </contour>
    <contour>
      <point x="411" y="16" type="curve" smooth="yes"/>
      <point x="223" y="16"/>
      <point x="78" y="164"/>
      <point x="78" y="350" type="curve" smooth="yes"/>
      <point x="78" y="536"/>
      <point x="223" y="684"/>
      <point x="413" y="684" type="curve" smooth="yes"/>
      <point x="603" y="684"/>
      <point x="746" y="540"/>
      <point x="746" y="352" type="curve" smooth="yes"/>
      <point x="746" y="164"/>
      <point x="599" y="16"/>
    </contour>
    <contour>
      <point x="419" y="139" type="curve" smooth="yes"/>
      <point x="479" y="139"/>
      <point x="534" y="162"/>
      <point x="570" y="207" type="curve"/>
      <point x="555" y="222" type="line"/>
      <point x="523" y="179"/>
      <point x="473" y="158"/>
      <point x="418" y="158" type="curve" smooth="yes"/>
      <point x="312" y="158"/>
      <point x="234" y="236"/>
      <point x="234" y="350" type="curve" smooth="yes"/>
      <point x="234" y="464"/>
      <point x="312" y="542"/>
      <point x="418" y="542" type="curve" smooth="yes"/>
      <point x="473" y="542"/>
      <point x="523" y="521"/>
      <point x="555" y="478" type="curve"/>
      <point x="570" y="493" type="line"/>
      <point x="534" y="538"/>
      <point x="479" y="561"/>
      <point x="419" y="561" type="curve" smooth="yes"/>
      <point x="301" y="561"/>
      <point x="214" y="474"/>
      <point x="214" y="350" type="curve" smooth="yes"/>
      <point x="214" y="226"/>
      <point x="301" y="139"/>
    </contour>
  </outline>
</glyph>
<glyph name="ordfeminine" format="2">
  <advance width="394"/>
  <unicode hex="00AA"/>
  <outline>
    <contour>
      <point x="293" y="434" type="line"/>
      <point x="312" y="434" type="line"/>
      <point x="312" y="633" type="line" smooth="yes"/>
      <point x="312" y="706"/>
      <point x="268" y="744"/>
      <point x="189" y="744" type="curve" smooth="yes"/>
      <point x="139" y="744"/>
      <point x="91" y="726"/>
      <point x="59" y="699" type="curve"/>
      <point x="69" y="685" type="line"/>
      <point x="98" y="710"/>
      <point x="140" y="726"/>
      <point x="189" y="726" type="curve" smooth="yes"/>
      <point x="257" y="726"/>
      <point x="292" y="695"/>
      <point x="292" y="633" type="curve" smooth="yes"/>
      <point x="292" y="516" type="line"/>
      <point x="293" y="506" type="line"/>
    </contour>
    <contour>
      <point x="167" y="432" type="curve" smooth="yes"/>
      <point x="236" y="432"/>
      <point x="282" y="464"/>
      <point x="299" y="513" type="curve"/>
      <point x="292" y="523" type="line"/>
      <point x="271" y="475"/>
      <point x="232" y="448"/>
      <point x="170" y="448" type="curve" smooth="yes"/>
      <point x="105" y="448"/>
      <point x="68" y="476"/>
      <point x="68" y="520" type="curve" smooth="yes"/>
      <point x="68" y="559"/>
      <point x="97" y="587"/>
      <point x="170" y="587" type="curve" smooth="yes"/>
      <point x="300" y="587" type="line"/>
      <point x="300" y="602" type="line"/>
      <point x="170" y="602" type="line" smooth="yes"/>
      <point x="80" y="602"/>
      <point x="49" y="564"/>
      <point x="49" y="519" type="curve" smooth="yes"/>
      <point x="49" y="467"/>
      <point x="92" y="432"/>
    </contour>
  </outline>
</glyph>
<glyph name="logicalnot" format="2">
  <advance width="560"/>
  <unicode hex="00AC"/>
  <outline>
    <contour>
      <point x="485" y="359" type="line"/>
      <point x="75" y="359" type="line"/>
      <point x="75" y="340" type="line"/>
      <point x="465" y="340" type="line"/>
      <point x="465" y="159" type="line"/>
      <point x="485" y="159" type="line"/>
    </contour>
  </outline>
</glyph>
<glyph name="registered" format="2">
  <advance width="824"/>
  <unicode hex="00AE"/>
  <outline>
    <contour>
      <point x="411" y="-3" type="curve" smooth="yes"/>
      <point x="610" y="-3"/>
      <point x="765" y="153"/>
      <point x="765" y="352" type="curve" smooth="yes"/>
      <point x="765" y="551"/>
      <point x="614" y="703"/>
      <point x="413" y="703" type="curve" smooth="yes"/>
      <point x="212" y="703"/>
      <point x="59" y="547"/>
      <point x="59" y="350" type="curve" smooth="yes"/>
      <point x="59" y="153"/>
      <point x="212" y="-3"/>
    </contour>
    <contour>
      <point x="562" y="142" type="line"/>
      <point x="586" y="142" type="line"/>
      <point x="481" y="304" type="line"/>
      <point x="457" y="304" type="line"/>
    </contour>
    <contour>
      <point x="411" y="16" type="curve" smooth="yes"/>
      <point x="223" y="16"/>
      <point x="78" y="164"/>
      <point x="78" y="350" type="curve" smooth="yes"/>
      <point x="78" y="536"/>
      <point x="223" y="684"/>
      <point x="413" y="684" type="curve" smooth="yes"/>
      <point x="603" y="684"/>
      <point x="746" y="540"/>
      <point x="746" y="352" type="curve" smooth="yes"/>
      <point x="746" y="164"/>
      <point x="599" y="16"/>
    </contour>
    <contour>
      <point x="283" y="142" type="line"/>
      <point x="303" y="142" type="line"/>
      <point x="303" y="292" type="line"/>
      <point x="433" y="292" type="line" smooth="yes"/>
      <point x="527" y="292"/>
      <point x="586" y="344"/>
      <point x="586" y="425" type="curve" smooth="yes"/>
      <point x="586" y="506"/>
      <point x="527" y="558"/>
      <point x="433" y="558" type="curve" smooth="yes"/>
      <point x="283" y="558" type="line"/>
    </contour>
    <contour>
      <point x="302" y="311" type="line"/>
      <point x="302" y="539" type="line"/>
      <point x="431" y="539" type="line" smooth="yes"/>
      <point x="516" y="539"/>
      <point x="566" y="497"/>
      <point x="566" y="425" type="curve" smooth="yes"/>
      <point x="566" y="353"/>
      <point x="516" y="311"/>
      <point x="431" y="311" type="curve" smooth="yes"/>
    </contour>
  </outline>
</glyph>
<glyph name="paragraph" format="2">
  <advance width="600"/>
  <unicode hex="00B6"/>
  <outline>
    <contour>
      <point x="225" y="-100" type="line"/>
      <point x="245" y="-100" type="line"/>
      <point x="245" y="723" type="line"/>
      <point x="447" y="723" type="line"/>
      <point x="447" y="-100" type="line"/>
      <point x="467" y="-100" type="line"/>
      <point x="467" y="742" type="line"/>
      <point x="225" y="742" type="line" smooth="yes"/>
      <point x="104" y="742"/>
      <point x="25" y="681"/>
      <point x="25" y="581" type="curve" smooth="yes"/>
      <point x="25" y="482"/>
      <point x="104" y="419"/>
      <point x="225" y="419" type="curve"/>
    </contour>
  </outline>
</glyph>
<glyph name="ordmasculine" format="2">
  <advance width="407"/>
  <unicode hex="00BA"/>
  <outline>
    <contour>
      <point x="203" y="432" type="curve" smooth="yes"/>
      <point x="297" y="432"/>
      <point x="366" y="497"/>
      <point x="366" y="588" type="curve" smooth="yes"/>
      <point x="366" y="679"/>
      <point x="297" y="744"/>
      <point x="203" y="744" type="curve" smooth="yes"/>
      <point x="109" y="744"/>
      <point x="40" y="679"/>
      <point x="40" y="588" type="curve" smooth="yes"/>
      <point x="40" y="497"/>
      <point x="109" y="432"/>
    </contour>
    <contour>
      <point x="203" y="450" type="curve" smooth="yes"/>
      <point x="121" y="450"/>
      <point x="59" y="506"/>
      <point x="59" y="588" type="curve" smooth="yes"/>
      <point x="59" y="670"/>
      <point x="121" y="726"/>
      <point x="203" y="726" type="curve" smooth="yes"/>
      <point x="285" y="726"/>
      <point x="347" y="670"/>
      <point x="347" y="588" type="curve" smooth="yes"/>
      <point x="347" y="506"/>
      <point x="285" y="450"/>
    </contour>
  </outline>
</glyph>
<glyph name="Thorn" format="2">
  <advance width="710"/>
  <unicode hex="00DE"/>
  <outline>
    <contour>
      <point x="144" y="139" type="line"/>
      <point x="370" y="139" type="line" smooth="yes"/>
      <point x="542" y="139"/>
      <point x="645" y="224"/>
      <point x="645" y="370" type="curve" smooth="yes"/>
      <point x="645" y="515"/>
      <point x="542" y="600"/>
      <point x="370" y="600" type="curve" smooth="yes"/>
      <point x="144" y="600" type="line"/>
      <point x="144" y="581" type="line"/>
      <point x="372" y="581" type="line" smooth="yes"/>
      <point x="536" y="581"/>
      <point x="625" y="504"/>
      <point x="625" y="370" type="curve" smooth="yes"/>
      <point x="625" y="235"/>
      <point x="536" y="158"/>
      <point x="372" y="158" type="curve" smooth="yes"/>
      <point x="144" y="158" type="line"/>
    </contour>
    <contour>
      <point x="133" y="0" type="line"/>
      <point x="153" y="0" type="line"/>
      <point x="153" y="700" type="line"/>
      <point x="133" y="700" type="line"/>
    </contour>
  </outline>
</glyph>
<glyph name="germandbls" format="2">
  <advance width="652"/>
  <unicode hex="00DF"/>
  <outline>
    <contour>
      <point x="370" y="-3" type="curve" smooth="yes"/>
      <point x="498" y="-3"/>
      <point x="598" y="72"/>
      <point x="598" y="194" type="curve" smooth="yes"/>
      <point x="598" y="318"/>
      <point x="505" y="389"/>
      <point x="367" y="389" type="curve"/>
      <point x="342" y="378" type="line"/>
      <point x="443" y="378"/>
      <point x="541" y="449"/>
      <point x="541" y="568" type="curve" smooth="yes"/>
      <point x="541" y="670"/>
      <point x="462" y="745"/>
      <point x="335" y="745" type="curve" smooth="yes"/>
      <point x="205" y="745"/>
      <point x="115" y="663"/>
      <point x="115" y="508" type="curve" smooth="yes"/>
      <point x="115" y="0" type="line"/>
      <point x="135" y="0" type="line"/>
      <point x="135" y="507" type="line" smooth="yes"/>
      <point x="135" y="654"/>
      <point x="216" y="726"/>
      <point x="336" y="726" type="curve" smooth="yes"/>
      <point x="452" y="726"/>
      <point x="521" y="660"/>
      <point x="521" y="568" type="curve" smooth="yes"/>
      <point x="521" y="459"/>
      <point x="443" y="390"/>
      <point x="311" y="390" type="curve"/>
      <point x="311" y="371" type="line"/>
      <point x="371" y="371" type="line" smooth="yes"/>
      <point x="492" y="371"/>
      <point x="578" y="307"/>
      <point x="578" y="194" type="curve" smooth="yes"/>
      <point x="578" y="81"/>
      <point x="488" y="16"/>
      <point x="370" y="16" type="curve" smooth="yes"/>
      <point x="332" y="16"/>
      <point x="300" y="21"/>
      <point x="270" y="31" type="curve"/>
      <point x="264" y="12" type="line"/>
      <point x="294" y="2"/>
      <point x="332" y="-3"/>
    </contour>
  </outline>
</glyph>
<glyph name="eth" format="2">
  <advance width="618"/>
  <unicode hex="00F0"/>
  <outline>
    <contour>
      <point x="286" y="-3" type="curve" smooth="yes"/>
      <point x="470" y="-3"/>
      <point x="564" y="137"/>
      <point x="564" y="350" type="curve" smooth="yes"/>
      <point x="564" y="581"/>
      <point x="440" y="703"/>
      <point x="257" y="703" type="curve" smooth="yes"/>
      <point x="197" y="703"/>
      <point x="139" y="693"/>
      <point x="102" y="682" type="curve"/>
      <point x="107" y="663" type="line"/>
      <point x="148" y="675"/>
      <point x="201" y="684"/>
      <point x="257" y="684" type="curve" smooth="yes"/>
      <point x="430" y="684"/>
      <point x="544" y="568"/>
      <point x="544" y="352" type="curve" smooth="yes"/>
      <point x="544" y="318"/>
      <point x="541" y="261"/>
      <point x="525" y="210" type="curve"/>
      <point x="533" y="209" type="line"/>
      <point x="528" y="350"/>
      <point x="424" y="430"/>
      <point x="294" y="430" type="curve" smooth="yes"/>
      <point x="147" y="430"/>
      <point x="54" y="344"/>
      <point x="54" y="214" type="curve" smooth="yes"/>
      <point x="54" y="84"/>
      <point x="149" y="-3"/>
    </contour>
    <contour>
      <point x="286" y="16" type="curve" smooth="yes"/>
      <point x="159" y="16"/>
      <point x="74" y="97"/>
      <point x="74" y="214" type="curve" smooth="yes"/>
      <point x="74" y="331"/>
      <point x="156" y="411"/>
      <point x="294" y="411" type="curve" smooth="yes"/>
      <point x="423" y="411"/>
      <point x="513" y="323"/>
      <point x="513" y="214" type="curve" smooth="yes"/>
      <point x="513" y="118"/>
      <point x="434" y="16"/>
    </contour>
    <contour>
      <point x="148" y="521" type="line"/>
      <point x="513" y="684" type="line"/>
      <point x="505" y="703" type="line"/>
      <point x="140" y="540" type="line"/>
    </contour>
  </outline>
</glyph>
<glyph name="divide" format="2">
  <advance width="560"/>
  <unicode hex="00F7"/>
  <outline>
    <contour>
      <point x="75" y="340" type="line"/>
      <point x="485" y="340" type="line"/>
      <point x="485" y="359" type="line"/>
      <point x="75" y="359" type="line"/>
    </contour>
    <contour>
      <point x="280" y="144" type="curve" smooth="yes"/>
      <point x="294" y="144"/>
      <point x="306" y="156"/>
      <point x="306" y="170" type="curve" smooth="yes"/>
      <point x="306" y="184"/>
      <point x="294" y="196"/>
      <point x="280" y="196" type="curve" smooth="yes"/>
      <point x="266" y="196"/>
      <point x="254" y="184"/>
      <point x="254" y="170" type="curve" smooth="yes"/>
      <point x="254" y="156"/>
      <point x="266" y="144"/>
    </contour>
    <contour>
      <point x="280" y="504" type="curve" smooth="yes"/>
      <point x="294" y="504"/>
      <point x="306" y="516"/>
      <point x="306" y="530" type="curve" smooth="yes"/>
      <point x="306" y="544"/>
      <point x="294" y="556"/>
      <point x="280" y="556" type="curve" smooth="yes"/>
      <point x="266" y="556"/>
      <point x="254" y="544"/>
      <point x="254" y="530" type="curve" smooth="yes"/>
      <point x="254" y="516"/>
      <point x="266" y="504"/>
    </contour>
  </outline>
</glyph>
<glyph name="idotless" format="2">
  <advance width="250"/>
  <unicode hex="0131"/>
  <anchor x="125" y="0" name="bottom"/>
  <anchor x="135" y="0" name="ogonek"/>
  <anchor x="125" y="517" name="top"/>
  <outline>
    <contour>
      <point x="115" y="0" type="line"/>
      <point x="135" y="0" type="line"/>
      <point x="135" y="517" type="line"/>
      <point x="115" y="517" type="line"/>
    </contour>
  </outline>
</glyph>
<glyph name="kgreenlandic" format="2">
  <advance width="557"/>
  <unicode hex="0138"/>
  <anchor x="268" y="0" name="bottom"/>
  <anchor x="268" y="517" name="top"/>
  <outline>
    <contour>
      <point x="128" y="154" type="line"/>
      <point x="288" y="299" type="line"/>
      <point x="304" y="311" type="line"/>
      <point x="529" y="517" type="line"/>
      <point x="500" y="517" type="line"/>
      <point x="128" y="178" type="line"/>
    </contour>
    <contour>
      <point x="115" y="0" type="line"/>
      <point x="135" y="0" type="line"/>
      <point x="135" y="517" type="line"/>
      <point x="115" y="517" type="line"/>
    </contour>
    <contour>
      <point x="526" y="0" type="line"/>
      <point x="552" y="0" type="line"/>
      <point x="300" y="316" type="line"/>
      <point x="284" y="304" type="line"/>
    </contour>
  </outline>
</glyph>
<glyph name="Eng" format="2">
  <advance width="816"/>
  <unicode hex="014A"/>
  <outline>
    <contour>
      <point x="133" y="0" type="line"/>
      <point x="153" y="0" type="line"/>
      <point x="153" y="677" type="line"/>
      <point x="142" y="677" type="line"/>
      <point x="666" y="0" type="line"/>
      <point x="674" y="23" type="line"/>
      <point x="150" y="700" type="line"/>
      <point x="133" y="700" type="line"/>
    </contour>
    <contour>
      <point x="511" y="-197" type="curve" smooth="yes"/>
      <point x="625" y="-197"/>
      <point x="683" y="-131"/>
      <point x="683" y="0" type="curve" smooth="yes"/>
      <point x="683" y="700" type="line"/>
      <point x="663" y="700" type="line"/>
      <point x="663" y="2" type="line" smooth="yes"/>
      <point x="663" y="-120"/>
      <point x="614" y="-178"/>
      <point x="512" y="-178" type="curve" smooth="yes"/>
      <point x="446" y="-178"/>
      <point x="389" y="-145"/>
      <point x="351" y="-86" type="curve"/>
      <point x="337" y="-98" type="line"/>
      <point x="374" y="-160"/>
      <point x="440" y="-197"/>
    </contour>
  </outline>
</glyph>
<glyph name="OE" format="2">
  <advance width="1112"/>
  <unicode hex="0152"/>
  <anchor x="587" y="0" name="bottom"/>
  <anchor x="587" y="700" name="top"/>
  <outline>
    <contour>
      <point x="428" y="0" type="curve" smooth="yes"/>
      <point x="583" y="0" type="line"/>
      <point x="583" y="19" type="line"/>
      <point x="428" y="19" type="line" smooth="yes"/>
      <point x="217" y="19"/>
      <point x="79" y="158"/>
      <point x="79" y="349" type="curve" smooth="yes"/>
      <point x="79" y="540"/>
      <point x="217" y="681"/>
      <point x="428" y="681" type="curve" smooth="yes"/>
      <point x="583" y="681" type="line"/>
      <point x="583" y="700" type="line"/>
      <point x="428" y="700" type="line" smooth="yes"/>
      <point x="208" y="700"/>
      <point x="59" y="551"/>
      <point x="59" y="349" type="curve" smooth="yes"/>
      <point x="59" y="147"/>
      <point x="208" y="0"/>
    </contour>
    <contour>
      <point x="592" y="365" type="line"/>
      <point x="592" y="346" type="line"/>
      <point x="983" y="346" type="line"/>
      <point x="983" y="365" type="line"/>
    </contour>
    <contour>
      <point x="597" y="19" type="line"/>
      <point x="597" y="681" type="line"/>
      <point x="1028" y="681" type="line"/>
      <point x="1028" y="700" type="line"/>
      <point x="577" y="700" type="line"/>
      <point x="577" y="0" type="line"/>
      <point x="1043" y="0" type="line"/>
      <point x="1043" y="19" type="line"/>
    </contour>
  </outline>
</glyph>
<glyph name="Uogonek" format="2">
  <advance width="794"/>
  <unicode hex="0172"/>
  <outline>
    <contour>
      <point x="647" y="700" type="line"/>
      <point x="647" y="294" type="line" smooth="yes"/>
      <point x="647" y="107"/>
      <point x="556" y="16"/>
      <point x="397" y="16" type="curve" smooth="yes"/>
      <point x="238" y="16"/>
      <point x="147" y="107"/>
      <point x="147" y="294" type="curve" smooth="yes"/>
      <point x="147" y="700" type="line"/>
      <point x="127" y="700" type="line"/>
      <point x="127" y="293" type="line" smooth="yes"/>
      <point x="127" y="95"/>
      <point x="230" y="-3"/>
      <point x="397" y="-3" type="curve" smooth="yes"/>
      <point x="409" y="-3"/>
      <point x="423" y="-2"/>
      <point x="435" y="-1" type="curve"/>
      <point x="451" y="14" type="line"/>
      <point x="336" y="-31"/>
      <point x="314" y="-89"/>
      <point x="314" y="-130" type="curve" smooth="yes"/>
      <point x="314" y="-182"/>
      <point x="353" y="-213"/>
      <point x="405" y="-213" type="curve" smooth="yes"/>
      <point x="433" y="-213"/>
      <point x="457" y="-205"/>
      <point x="479" y="-186" type="curve"/>
      <point x="468" y="-171" type="line"/>
      <point x="452" y="-186"/>
      <point x="429" y="-194"/>
      <point x="406" y="-194" type="curve" smooth="yes"/>
      <point x="365" y="-194"/>
      <point x="334" y="-173"/>
      <point x="334" y="-130" type="curve" smooth="yes"/>
      <point x="334" y="-93"/>
      <point x="355" y="-36"/>
      <point x="490" y="8" type="curve" smooth="yes"/>
      <point x="602" y="44"/>
      <point x="667" y="132"/>
      <point x="667" y="293" type="curve" smooth="yes"/>
      <point x="667" y="700" type="line"/>
    </contour>
  </outline>
</glyph>
<glyph name="longs" format="2">
  <advance width="273"/>
  <unicode hex="017F"/>
  <outline>
    <contour>
      <point x="134" y="0" type="line"/>
      <point x="154" y="0" type="line"/>
      <point x="154" y="613" type="line" smooth="yes"/>
      <point x="154" y="686"/>
      <point x="190" y="726"/>
      <point x="260" y="726" type="curve" smooth="yes"/>
      <point x="293" y="726"/>
      <point x="324" y="715"/>
      <point x="346" y="694" type="curve"/>
      <point x="360" y="708" type="line"/>
      <point x="336" y="733"/>
      <point x="296" y="745"/>
      <point x="259" y="745" type="curve" smooth="yes"/>
      <point x="179" y="745"/>
      <point x="134" y="694"/>
      <point x="134" y="618" type="curve" smooth="yes"/>
    </contour>
    <contour>
      <point x="34" y="498" type="line"/>
      <point x="149" y="498" type="line"/>
      <point x="149" y="517" type="line"/>
      <point x="34" y="517" type="line"/>
    </contour>
  </outline>
</glyph>
<glyph name="gstroke" format="2">
  <advance width="679"/>
  <unicode hex="01E5"/>
  <outline>
    <contour>
      <point x="323" y="-197" type="curve" smooth="yes"/>
      <point x="483" y="-197"/>
      <point x="562" y="-121"/>
      <point x="562" y="46" type="curve" smooth="yes"/>
      <point x="562" y="517" type="line"/>
      <point x="542" y="517" type="line"/>
      <point x="542" y="329" type="line"/>
      <point x="552" y="269" type="line"/>
      <point x="542" y="209" type="line"/>
      <point x="542" y="43" type="line" smooth="yes"/>
      <point x="542" y="-110"/>
      <point x="472" y="-178"/>
      <point x="323" y="-178" type="curve" smooth="yes"/>
      <point x="236" y="-178"/>
      <point x="161" y="-149"/>
      <point x="108" y="-97" type="curve"/>
      <point x="94" y="-111" type="line"/>
      <point x="143" y="-165"/>
      <point x="229" y="-197"/>
    </contour>
    <contour>
      <point x="298" y="-69" type="line"/>
      <point x="626" y="-69" type="line"/>
      <point x="626" y="-50" type="line"/>
      <point x="298" y="-50" type="line"/>
    </contour>
    <contour>
      <point x="308" y="17" type="curve" smooth="yes"/>
      <point x="453" y="17"/>
      <point x="559" y="123"/>
      <point x="559" y="269" type="curve" smooth="yes"/>
      <point x="559" y="416"/>
      <point x="453" y="520"/>
      <point x="308" y="520" type="curve" smooth="yes"/>
      <point x="163" y="520"/>
      <point x="54" y="416"/>
      <point x="54" y="269" type="curve" smooth="yes"/>
      <point x="54" y="122"/>
      <point x="163" y="17"/>
    </contour>
    <contour>
      <point x="308" y="36" type="curve" smooth="yes"/>
      <point x="173" y="36"/>
      <point x="74" y="132"/>
      <point x="74" y="269" type="curve" smooth="yes"/>
      <point x="74" y="406"/>
      <point x="173" y="501"/>
      <point x="308" y="501" type="curve" smooth="yes"/>
      <point x="443" y="501"/>
      <point x="542" y="406"/>
      <point x="542" y="269" type="curve" smooth="yes"/>
      <point x="542" y="132"/>
      <point x="443" y="36"/>
    </contour>
  </outline>
</glyph>
<glyph name="ringhalfright" format="2">
  <advance width="600"/>
  <unicode hex="02BE"/>
  <outline>
    <contour>
      <point x="299" y="597" type="line"/>
      <point x="353" y="597"/>
      <point x="391" y="638"/>
      <point x="391" y="687" type="curve" smooth="yes"/>
      <point x="391" y="737"/>
      <point x="352" y="780"/>
      <point x="299" y="780" type="curve"/>
      <point x="299" y="761" type="line"/>
      <point x="341" y="761"/>
      <point x="371" y="728"/>
      <point x="371" y="687" type="curve" smooth="yes"/>
      <point x="371" y="647"/>
      <point x="342" y="616"/>
      <point x="299" y="616" type="curve"/>
    </contour>
  </outline>
</glyph>
<glyph name="firsttonechinese" format="2">
  <advance width="600"/>
  <unicode hex="02C9"/>
  <anchor x="300" y="517" name="_top"/>
  <anchor x="300" y="630" name="top"/>
  <outline>
    <contour>
      <point x="164" y="652" type="line"/>
      <point x="436" y="652" type="line"/>
      <point x="436" y="672" type="line"/>
      <point x="164" y="672" type="line"/>
    </contour>
  </outline>
</glyph>
<glyph name="secondtonechinese" format="2">
  <advance width="600"/>
  <unicode hex="02CA"/>
  <anchor x="300" y="517" name="_top"/>
  <anchor x="300" y="660" name="top"/>
  <outline>
    <contour>
      <point x="255" y="607" type="line"/>
      <point x="285" y="607" type="line"/>
      <point x="435" y="717" type="line"/>
      <point x="395" y="717" type="line"/>
    </contour>
  </outline>
</glyph>
<glyph name="gravecomb" format="2">
  <unicode hex="0300"/>
  <anchor x="300" y="517" name="_top"/>
  <anchor x="300" y="660" name="top"/>
  <outline>
    <contour>
      <point x="315" y="607" type="line"/>
      <point x="345" y="607" type="line"/>
      <point x="205" y="717" type="line"/>
      <point x="165" y="717" type="line"/>
    </contour>
  </outline>
</glyph>
<glyph name="acutecomb" format="2">
  <unicode hex="0301"/>
  <anchor x="300" y="517" name="_top"/>
  <anchor x="300" y="660" name="top"/>
  <outline>
    <contour>
      <point x="255" y="607" type="line"/>
      <point x="285" y="607" type="line"/>
      <point x="435" y="717" type="line"/>
      <point x="395" y="717" type="line"/>
    </contour>
  </outline>
</glyph>
<glyph name="tildecomb" format="2">
  <unicode hex="0303"/>
  <anchor x="300" y="517" name="_top"/>
  <anchor x="300" y="650" name="top"/>
  <outline>
    <contour>
      <point x="363" y="619" type="curve" smooth="yes"/>
      <point x="406" y="619"/>
      <point x="434" y="653"/>
      <point x="436" y="703" type="curve"/>
      <point x="417" y="703" type="line"/>
      <point x="415" y="664"/>
      <point x="395" y="638"/>
      <point x="363" y="638" type="curve" smooth="yes"/>
      <point x="318" y="638"/>
      <point x="294" y="707"/>
      <point x="237" y="707" type="curve" smooth="yes"/>
      <point x="194" y="707"/>
      <point x="166" y="673"/>
      <point x="164" y="621" type="curve"/>
      <point x="183" y="621" type="line"/>
      <point x="185" y="662"/>
      <point x="205" y="688"/>
      <point x="237" y="688" type="curve" smooth="yes"/>
      <point x="282" y="688"/>
      <point x="306" y="619"/>
    </contour>
  </outline>
</glyph>
<glyph name="brevecomb" format="2">
  <unicode hex="0306"/>
  <anchor x="300" y="517" name="_top"/>
  <anchor x="300" y="650" name="top"/>
  <outline>
    <contour>
      <point x="300" y="604" type="curve" smooth="yes"/>
      <point x="372" y="604"/>
      <point x="430" y="647"/>
      <point x="432" y="717" type="curve"/>
      <point x="413" y="717" type="line"/>
      <point x="411" y="659"/>
      <point x="362" y="623"/>
      <point x="300" y="623" type="curve" smooth="yes"/>
      <point x="238" y="623"/>
      <point x="189" y="659"/>
      <point x="187" y="717" type="curve"/>
      <point x="168" y="717" type="line"/>
      <point x="170" y="647"/>
      <point x="228" y="604"/>
    </contour>
  </outline>
</glyph>
<glyph name="dotaccentcomb" format="2">
  <unicode hex="0307"/>
  <anchor x="300" y="667" name="_center"/>
  <anchor x="300" y="517" name="_top"/>
  <anchor x="300" y="630" name="top"/>
  <outline>
    <contour>
      <point x="300" y="641" type="curve" smooth="yes"/>
      <point x="314" y="641"/>
      <point x="326" y="653"/>
      <point x="326" y="667" type="curve" smooth="yes"/>
      <point x="326" y="681"/>
      <point x="314" y="693"/>
      <point x="300" y="693" type="curve" smooth="yes"/>
      <point x="286" y="693"/>
      <point x="274" y="681"/>
      <point x="274" y="667" type="curve" smooth="yes"/>
      <point x="274" y="653"/>
      <point x="286" y="641"/>
    </contour>
  </outline>
</glyph>
<glyph name="dieresiscomb" format="2">
  <unicode hex="0308"/>
  <anchor x="300" y="517" name="_top"/>
  <anchor x="300" y="630" name="top"/>
  <outline>
    <contour>
      <point x="382" y="641" type="curve" smooth="yes"/>
      <point x="396" y="641"/>
      <point x="408" y="653"/>
      <point x="408" y="667" type="curve" smooth="yes"/>
      <point x="408" y="681"/>
      <point x="396" y="693"/>
      <point x="382" y="693" type="curve" smooth="yes"/>
      <point x="368" y="693"/>
      <point x="356" y="681"/>
      <point x="356" y="667" type="curve" smooth="yes"/>
      <point x="356" y="653"/>
      <point x="368" y="641"/>
    </contour>
    <contour>
      <point x="218" y="641" type="curve" smooth="yes"/>
      <point x="232" y="641"/>
      <point x="244" y="653"/>
      <point x="244" y="667" type="curve" smooth="yes"/>
      <point x="244" y="681"/>
      <point x="232" y="693"/>
      <point x="218" y="693" type="curve" smooth="yes"/>
      <point x="204" y="693"/>
      <point x="192" y="681"/>
      <point x="192" y="667" type="curve" smooth="yes"/>
      <point x="192" y="653"/>
      <point x="204" y="641"/>
    </contour>
  </outline>
</glyph>
<glyph name="ringcomb" format="2">
  <unicode hex="030A"/>
  <anchor x="300" y="517" name="_top"/>
  <anchor x="300" y="720" name="top"/>
  <outline>
    <contour>
      <point x="299" y="597" type="curve" smooth="yes"/>
      <point x="353" y="597"/>
      <point x="392" y="638"/>
      <point x="392" y="687" type="curve" smooth="yes"/>
      <point x="392" y="737"/>
      <point x="352" y="780"/>
      <point x="299" y="780" type="curve" smooth="yes"/>
      <point x="246" y="780"/>
      <point x="207" y="737"/>
      <point x="207" y="687" type="curve" smooth="yes"/>
      <point x="207" y="638"/>
      <point x="245" y="597"/>
    </contour>
    <contour>
      <point x="299" y="616" type="curve" smooth="yes"/>
      <point x="256" y="616"/>
      <point x="227" y="647"/>
      <point x="227" y="687" type="curve" smooth="yes"/>
      <point x="227" y="728"/>
      <point x="257" y="761"/>
      <point x="299" y="761" type="curve" smooth="yes"/>
      <point x="341" y="761"/>
      <point x="372" y="727"/>
      <point x="372" y="687" type="curve" smooth="yes"/>
      <point x="372" y="648"/>
      <point x="342" y="616"/>
    </contour>
  </outline>
</glyph>
<glyph name="caroncomb" format="2">
  <unicode hex="030C"/>
  <anchor x="300" y="517" name="_top"/>
  <anchor x="300" y="650" name="top"/>
  <outline>
    <contour>
      <point x="284" y="607" type="line"/>
      <point x="316" y="607" type="line"/>
      <point x="438" y="717" type="line"/>
      <point x="411" y="717" type="line"/>
      <point x="297" y="621" type="line"/>
      <point x="303" y="621" type="line"/>
      <point x="189" y="717" type="line"/>
      <point x="162" y="717" type="line"/>
    </contour>
  </outline>
</glyph>
<glyph name="breveinvertedcomb" format="2">
  <unicode hex="0311"/>
  <anchor x="300" y="517" name="_top"/>
  <anchor x="300" y="650" name="top"/>
  <outline>
    <contour>
      <point x="168" y="607" type="curve"/>
      <point x="187" y="607" type="line"/>
      <point x="189" y="665"/>
      <point x="238" y="701"/>
      <point x="300" y="701" type="curve" smooth="yes"/>
      <point x="362" y="701"/>
      <point x="411" y="665"/>
      <point x="413" y="607" type="curve"/>
      <point x="432" y="607" type="line"/>
      <point x="430" y="677"/>
      <point x="372" y="720"/>
      <point x="300" y="720" type="curve" smooth="yes"/>
      <point x="228" y="720"/>
      <point x="170" y="677"/>
    </contour>
  </outline>
</glyph>
<glyph name="commaaccentcomb" format="2">
  <unicode hex="0326"/>
  <anchor x="300" y="0" name="_bottom"/>
  <anchor x="300" y="-113" name="bottom"/>
  <outline>
    <contour>
      <point x="279" y="-259" type="line"/>
      <point x="297" y="-259" type="line"/>
      <point x="320" y="-182" type="line" smooth="yes"/>
      <point x="323" y="-171"/>
      <point x="326" y="-161"/>
      <point x="326" y="-150" type="curve" smooth="yes"/>
      <point x="326" y="-138"/>
      <point x="316" y="-124"/>
      <point x="300" y="-124" type="curve" smooth="yes"/>
      <point x="285" y="-124"/>
      <point x="274" y="-136"/>
      <point x="274" y="-150" type="curve" smooth="yes"/>
      <point x="274" y="-164"/>
      <point x="286" y="-176"/>
      <point x="300" y="-176" type="curve"/>
      <point x="299" y="-165" type="line"/>
    </contour>
  </outline>
</glyph>
<glyph name="cedillacomb" format="2">
  <unicode hex="0327"/>
  <anchor x="300" y="0" name="_bottom"/>
  <outline>
    <contour>
      <point x="284" y="-213" type="curve" smooth="yes"/>
      <point x="336" y="-213"/>
      <point x="375" y="-182"/>
      <point x="375" y="-134" type="curve" smooth="yes"/>
      <point x="375" y="-89"/>
      <point x="342" y="-59"/>
      <point x="292" y="-56" type="curve"/>
      <point x="309" y="5" type="line"/>
      <point x="290" y="5" type="line"/>
      <point x="268" y="-74" type="line"/>
      <point x="284" y="-74" type="line" smooth="yes"/>
      <point x="329" y="-74"/>
      <point x="355" y="-99"/>
      <point x="355" y="-134" type="curve" smooth="yes"/>
      <point x="355" y="-173"/>
      <point x="324" y="-194"/>
      <point x="283" y="-194" type="curve" smooth="yes"/>
      <point x="260" y="-194"/>
      <point x="237" y="-186"/>
      <point x="221" y="-171" type="curve"/>
      <point x="210" y="-186" type="line"/>
      <point x="232" y="-205"/>
      <point x="256" y="-213"/>
    </contour>
  </outline>
</glyph>
<glyph name="ogonekcomb" format="2">
  <unicode hex="0328"/>
  <anchor x="301" y="0" name="_ogonek"/>
  <outline>
    <contour>
      <point x="245" y="-213" type="curve" smooth="yes"/>
      <point x="273" y="-213"/>
      <point x="297" y="-205"/>
      <point x="319" y="-186" type="curve"/>
      <point x="308" y="-171" type="line"/>
      <point x="292" y="-186"/>
      <point x="269" y="-194"/>
      <point x="246" y="-194" type="curve" smooth="yes"/>
      <point x="205" y="-194"/>
      <point x="174" y="-173"/>
      <point x="174" y="-130" type="curve" smooth="yes"/>
      <point x="174" y="-95"/>
      <point x="191" y="-47"/>
      <point x="301" y="0" type="curve"/>
      <point x="291" y="16" type="line"/>
      <point x="176" y="-35"/>
      <point x="154" y="-89"/>
      <point x="154" y="-130" type="curve" smooth="yes"/>
      <point x="154" y="-182"/>
      <point x="193" y="-213"/>
    </contour>
  </outline>
</glyph>
<glyph name="brevebelowcomb" format="2">
  <unicode hex="032E"/>
  <anchor x="300" y="0" name="_bottom"/>
  <anchor x="300" y="-128" name="bottom"/>
  <outline>
    <contour>
      <point x="300" y="-198" type="curve" smooth="yes"/>
      <point x="372" y="-198"/>
      <point x="430" y="-157"/>
      <point x="432" y="-90" type="curve"/>
      <point x="413" y="-90" type="line"/>
      <point x="411" y="-145"/>
      <point x="362" y="-179"/>
      <point x="300" y="-179" type="curve" smooth="yes"/>
      <point x="238" y="-179"/>
      <point x="189" y="-145"/>
      <point x="187" y="-90" type="curve"/>
      <point x="168" y="-90" type="line"/>
      <point x="170" y="-157"/>
      <point x="228" y="-198"/>
    </contour>
  </outline>
</glyph>
<glyph name="strokelongcomb" format="2">
  <unicode hex="0336"/>
  <anchor x="400" y="441" name="_center"/>
  <outline>
    <contour>
      <point x="12" y="432" type="line"/>
      <point x="788" y="432" type="line"/>
      <point x="788" y="451" type="line"/>
      <point x="12" y="451" type="line"/>
    </contour>
  </outline>
</glyph>
<glyph name="Delta" format="2">
  <advance width="688"/>
  <unicode hex="0394"/>
  <outline>
    <contour>
      <point x="354" y="700" type="line"/>
      <point x="334" y="700" type="line"/>
      <point x="9" y="0" type="line"/>
      <point x="679" y="0" type="line"/>
    </contour>
    <contour>
      <point x="36" y="11" type="line"/>
      <point x="349" y="684" type="line"/>
      <point x="339" y="684" type="line"/>
      <point x="651" y="11" type="line"/>
      <point x="656" y="19" type="line"/>
      <point x="31" y="19" type="line"/>
    </contour>
  </outline>
</glyph>
<glyph name="pi" format="2">
  <advance width="718"/>
  <unicode hex="03C0"/>
  <outline>
    <contour>
      <point x="37" y="269" type="curve"/>
      <point x="53" y="280" type="line"/>
      <point x="33" y="307"/>
      <point x="20" y="339"/>
      <point x="20" y="371" type="curve" smooth="yes"/>
      <point x="20" y="442"/>
      <point x="60" y="497"/>
      <point x="162" y="497" type="curve" smooth="yes"/>
      <point x="711" y="497" type="line"/>
      <point x="712" y="517" type="line"/>
      <point x="162" y="517" type="line" smooth="yes"/>
      <point x="50" y="517"/>
      <point x="0" y="452"/>
      <point x="0" y="371" type="curve" smooth="yes"/>
      <point x="0" y="335"/>
      <point x="15" y="297"/>
    </contour>
    <contour>
      <point x="189" y="0" type="line"/>
      <point x="209" y="0" type="line"/>
      <point x="269" y="517" type="line"/>
      <point x="249" y="517" type="line"/>
    </contour>
    <contour>
      <point x="509" y="0" type="line"/>
      <point x="529" y="0" type="line"/>
      <point x="529" y="517" type="line"/>
      <point x="509" y="517" type="line"/>
    </contour>
  </outline>
</glyph>
<glyph name="Dje-cy" format="2">
  <advance width="810"/>
  <unicode hex="0402"/>
  <outline>
    <contour>
      <point x="269" y="0" type="line"/>
      <point x="289" y="0" type="line"/>
      <point x="289" y="690" type="line"/>
      <point x="280" y="681" type="line"/>
      <point x="564" y="681" type="line"/>
      <point x="564" y="700" type="line"/>
      <point x="9" y="700" type="line"/>
      <point x="9" y="681" type="line"/>
      <point x="278" y="681" type="line"/>
      <point x="269" y="690" type="line"/>
    </contour>
    <contour>
      <point x="455" y="8" type="line"/>
      <point x="603" y="-29"/>
      <point x="759" y="29"/>
      <point x="759" y="207" type="curve" smooth="yes"/>
      <point x="759" y="427"/>
      <point x="519" y="466"/>
      <point x="278" y="352" type="curve"/>
      <point x="276" y="331" type="line"/>
      <point x="508" y="440"/>
      <point x="739" y="416"/>
      <point x="739" y="206" type="curve" smooth="yes"/>
      <point x="739" y="43"/>
      <point x="600" y="-7"/>
      <point x="461" y="27" type="curve"/>
    </contour>
  </outline>
</glyph>
<glyph name="Nje-cy" format="2">
  <advance width="1192"/>
  <unicode hex="040A"/>
  <outline>
    <contour>
      <point x="137" y="0" type="line"/>
      <point x="157" y="0" type="line"/>
      <point x="157" y="377" type="line"/>
      <point x="649" y="377" type="line"/>
      <point x="649" y="0" type="line"/>
      <point x="669" y="0" type="line"/>
      <point x="669" y="700" type="line"/>
      <point x="649" y="700" type="line"/>
      <point x="649" y="396" type="line"/>
      <point x="157" y="396" type="line"/>
      <point x="157" y="700" type="line"/>
      <point x="137" y="700" type="line"/>
    </contour>
    <contour>
      <point x="669" y="10" type="line"/>
      <point x="669" y="386" type="line"/>
      <point x="661" y="377" type="line"/>
      <point x="905" y="377" type="line" smooth="yes"/>
      <point x="1046" y="377"/>
      <point x="1125" y="314"/>
      <point x="1125" y="201" type="curve" smooth="yes"/>
      <point x="1125" y="87"/>
      <point x="1044" y="19"/>
      <point x="905" y="19" type="curve" smooth="yes"/>
      <point x="661" y="19" type="line"/>
    </contour>
    <contour>
      <point x="649" y="0" type="line"/>
      <point x="901" y="0" type="line" smooth="yes"/>
      <point x="1054" y="0"/>
      <point x="1145" y="76"/>
      <point x="1145" y="203" type="curve" smooth="yes"/>
      <point x="1145" y="325"/>
      <point x="1059" y="396"/>
      <point x="912" y="396" type="curve" smooth="yes"/>
      <point x="661" y="396" type="line"/>
      <point x="669" y="388" type="line"/>
      <point x="669" y="700" type="line"/>
      <point x="649" y="700" type="line"/>
    </contour>
  </outline>
</glyph>
<glyph name="Be-cy" format="2">
  <advance width="718"/>
  <unicode hex="0411"/>
  <guideline x="667" y="503" angle="90"/>
  <guideline x="573" y="356" angle="0"/>
  <outline>
    <contour>
      <point x="137" y="0" type="line"/>
      <point x="395" y="0" type="line" smooth="yes"/>
      <point x="565" y="0"/>
      <point x="655" y="69"/>
      <point x="655" y="201" type="curve" smooth="yes"/>
      <point x="655" y="329"/>
      <point x="569" y="396"/>
      <point x="406" y="396" type="curve" smooth="yes"/>
      <point x="157" y="396" type="line"/>
      <point x="157" y="681" type="line"/>
      <point x="618" y="681" type="line"/>
      <point x="618" y="700" type="line"/>
      <point x="137" y="700" type="line"/>
    </contour>
    <contour>
      <point x="157" y="19" type="line"/>
      <point x="157" y="377" type="line"/>
      <point x="399" y="377" type="line" smooth="yes"/>
      <point x="557" y="377"/>
      <point x="635" y="319"/>
      <point x="635" y="200" type="curve" smooth="yes"/>
      <point x="635" y="80"/>
      <point x="555" y="19"/>
      <point x="399" y="19" type="curve" smooth="yes"/>
    </contour>
  </outline>
</glyph>
<glyph name="Ze-cy" format="2">
  <advance width="623"/>
  <unicode hex="0417"/>
  <anchor x="296" y="0" name="bottom"/>
  <anchor x="310" y="700" name="top"/>
  <outline>
    <contour>
      <point x="40" y="99" type="line"/>
      <point x="205" y="-77"/>
      <point x="541" y="-12"/>
      <point x="541" y="196" type="curve" smooth="yes"/>
      <point x="541" y="304"/>
      <point x="452" y="372"/>
      <point x="311" y="372" type="curve"/>
      <point x="307" y="359" type="line"/>
      <point x="433" y="359"/>
      <point x="511" y="422"/>
      <point x="511" y="524" type="curve" smooth="yes"/>
      <point x="511" y="698"/>
      <point x="257" y="764"/>
      <point x="63" y="637" type="curve"/>
      <point x="73" y="620" type="line"/>
      <point x="252" y="740"/>
      <point x="491" y="683"/>
      <point x="491" y="523" type="curve" smooth="yes"/>
      <point x="491" y="430"/>
      <point x="420" y="375"/>
      <point x="302" y="375" type="curve" smooth="yes"/>
      <point x="164" y="375" type="line"/>
      <point x="164" y="356" type="line"/>
      <point x="301" y="356" type="line" smooth="yes"/>
      <point x="441" y="356"/>
      <point x="521" y="298"/>
      <point x="521" y="197" type="curve" smooth="yes"/>
      <point x="521" y="5"/>
      <point x="209" y="-51"/>
      <point x="53" y="110" type="curve"/>
    </contour>
  </outline>
</glyph>
<glyph name="El-cy" format="2">
  <advance width="775"/>
  <unicode hex="041B"/>
  <anchor x="618" y="0" name="#exit"/>
  <anchor x="618" y="0" name="bottomleft"/>
  <outline>
    <contour>
      <point x="48" y="-3" type="curve" smooth="yes"/>
      <point x="153" y="-3"/>
      <point x="201" y="107"/>
      <point x="211" y="389" type="curve" smooth="yes"/>
      <point x="222" y="690" type="line"/>
      <point x="213" y="681" type="line"/>
      <point x="627" y="681" type="line"/>
      <point x="618" y="690" type="line"/>
      <point x="618" y="0" type="line"/>
      <point x="638" y="0" type="line"/>
      <point x="638" y="700" type="line"/>
      <point x="202" y="700" type="line"/>
      <point x="191" y="390" type="line" smooth="yes"/>
      <point x="181" y="117"/>
      <point x="139" y="17"/>
      <point x="46" y="17" type="curve" smooth="yes"/>
      <point x="34" y="17"/>
      <point x="25" y="18"/>
      <point x="11" y="21" type="curve"/>
      <point x="7" y="2" type="line"/>
      <point x="23" y="-2"/>
      <point x="34" y="-3"/>
    </contour>
  </outline>
</glyph>
<glyph name="Pe-cy" format="2">
  <advance width="833"/>
  <unicode hex="041F"/>
  <anchor x="676" y="0" name="bottomleft"/>
  <outline>
    <contour>
      <point x="137" y="0" type="line"/>
      <point x="157" y="0" type="line"/>
      <point x="157" y="690" type="line"/>
      <point x="148" y="681" type="line"/>
      <point x="685" y="681" type="line"/>
      <point x="676" y="690" type="line"/>
      <point x="676" y="0" type="line"/>
      <point x="696" y="0" type="line"/>
      <point x="696" y="700" type="line"/>
      <point x="137" y="700" type="line"/>
    </contour>
  </outline>
</glyph>
<glyph name="U-cy" format="2">
  <advance width="658"/>
  <unicode hex="0423"/>
  <anchor x="319" y="700" name="top"/>
  <outline>
    <contour>
      <point x="104" y="29" type="curve"/>
      <point x="95" y="12" type="line"/>
      <point x="167" y="-19"/>
      <point x="252" y="-9"/>
      <point x="309" y="95" type="curve" smooth="yes"/>
      <point x="639" y="700" type="line"/>
      <point x="616" y="700" type="line"/>
      <point x="327" y="158" type="line"/>
      <point x="324" y="153" type="line"/>
      <point x="290" y="100" type="line" smooth="yes"/>
      <point x="231" y="8"/>
      <point x="167" y="2"/>
    </contour>
    <contour>
      <point x="325" y="136" type="line"/>
      <point x="336" y="158" type="line"/>
      <point x="52" y="700" type="line"/>
      <point x="29" y="700" type="line"/>
    </contour>
  </outline>
</glyph>
<glyph name="Ef-cy" format="2">
  <advance width="898"/>
  <unicode hex="0424"/>
  <outline>
    <contour>
      <point x="444" y="50" type="curve" smooth="yes"/>
      <point x="446" y="50"/>
      <point x="447" y="50"/>
      <point x="449" y="50" type="curve" smooth="yes"/>
      <point x="688" y="50"/>
      <point x="838" y="160"/>
      <point x="838" y="350" type="curve" smooth="yes"/>
      <point x="838" y="540"/>
      <point x="688" y="650"/>
      <point x="449" y="650" type="curve" smooth="yes"/>
      <point x="447" y="650"/>
      <point x="446" y="650"/>
      <point x="444" y="650" type="curve" smooth="yes"/>
      <point x="208" y="650"/>
      <point x="60" y="539"/>
      <point x="60" y="350" type="curve" smooth="yes"/>
      <point x="60" y="161"/>
      <point x="208" y="50"/>
    </contour>
    <contour>
      <point x="449" y="69" type="curve" smooth="yes"/>
      <point x="222" y="69"/>
      <point x="80" y="171"/>
      <point x="80" y="350" type="curve" smooth="yes"/>
      <point x="80" y="529"/>
      <point x="222" y="631"/>
      <point x="449" y="631" type="curve" smooth="yes"/>
      <point x="450" y="631"/>
      <point x="451" y="631"/>
      <point x="452" y="631" type="curve" smooth="yes"/>
      <point x="677" y="631"/>
      <point x="818" y="527"/>
      <point x="818" y="350" type="curve" smooth="yes"/>
      <point x="818" y="173"/>
      <point x="677" y="70"/>
      <point x="451" y="69" type="curve" smooth="yes"/>
      <point x="451" y="69"/>
      <point x="450" y="69"/>
    </contour>
    <contour>
      <point x="439" y="-20" type="line"/>
      <point x="459" y="-20" type="line"/>
      <point x="459" y="720" type="line"/>
      <point x="439" y="720" type="line"/>
    </contour>
  </outline>
</glyph>
<glyph name="Tse-cy" format="2">
  <advance width="821"/>
  <unicode hex="0426"/>
  <anchor x="647" y="0" name="_bottomleft"/>
  <outline>
    <contour>
      <point x="137" y="0" type="line"/>
      <point x="667" y="0" type="line"/>
      <point x="667" y="700" type="line"/>
      <point x="647" y="700" type="line"/>
      <point x="647" y="19" type="line"/>
      <point x="157" y="19" type="line"/>
      <point x="157" y="700" type="line"/>
      <point x="137" y="700" type="line"/>
    </contour>
    <contour>
      <point x="764" y="-175" type="line"/>
      <point x="784" y="-175" type="line"/>
      <point x="784" y="19" type="line"/>
      <point x="647" y="19" type="line"/>
      <point x="647" y="0" type="line"/>
      <point x="773" y="0" type="line"/>
      <point x="764" y="9" type="line"/>
    </contour>
  </outline>
</glyph>
<glyph name="Softsign-cy" format="2">
  <advance width="704"/>
  <unicode hex="042C"/>
  <anchor x="137" y="0" name="#entry"/>
  <anchor x="165" y="590" name="center"/>
  <outline>
    <contour>
      <point x="402" y="436" type="curve" smooth="yes"/>
      <point x="157" y="436" type="line"/>
      <point x="157" y="700" type="line"/>
      <point x="137" y="700" type="line"/>
      <point x="137" y="0" type="line"/>
      <point x="391" y="0" type="line" smooth="yes"/>
      <point x="561" y="0"/>
      <point x="651" y="76"/>
      <point x="651" y="221" type="curve" smooth="yes"/>
      <point x="651" y="362"/>
      <point x="565" y="436"/>
    </contour>
    <contour>
      <point x="395" y="19" type="curve" smooth="yes"/>
      <point x="157" y="19" type="line"/>
      <point x="157" y="417" type="line"/>
      <point x="395" y="417" type="line" smooth="yes"/>
      <point x="553" y="417"/>
      <point x="631" y="352"/>
      <point x="631" y="220" type="curve" smooth="yes"/>
      <point x="631" y="87"/>
      <point x="551" y="19"/>
    </contour>
  </outline>
</glyph>
<glyph name="Ia-cy" format="2">
  <advance width="733"/>
  <unicode hex="042F"/>
  <outline>
    <contour>
      <point x="576" y="0" type="line"/>
      <point x="596" y="0" type="line"/>
      <point x="596" y="700" type="line"/>
      <point x="343" y="700" type="line" smooth="yes"/>
      <point x="186" y="700"/>
      <point x="83" y="617"/>
      <point x="83" y="462" type="curve" smooth="yes"/>
      <point x="83" y="316"/>
      <point x="175" y="230"/>
      <point x="333" y="230" type="curve" smooth="yes"/>
      <point x="585" y="230" type="line"/>
      <point x="576" y="239" type="line"/>
    </contour>
    <contour>
      <point x="82" y="0" type="line"/>
      <point x="105" y="0" type="line"/>
      <point x="276" y="243" type="line"/>
      <point x="253" y="243" type="line"/>
    </contour>
    <contour>
      <point x="576" y="241" type="line"/>
      <point x="585" y="249" type="line"/>
      <point x="336" y="249" type="line" smooth="yes"/>
      <point x="182" y="249"/>
      <point x="103" y="327"/>
      <point x="103" y="462" type="curve" smooth="yes"/>
      <point x="103" y="605"/>
      <point x="192" y="681"/>
      <point x="346" y="681" type="curve" smooth="yes"/>
      <point x="585" y="681" type="line"/>
      <point x="576" y="689" type="line"/>
    </contour>
  </outline>
</glyph>
<glyph name="ka-cy" format="2">
  <advance width="548"/>
  <unicode hex="043A"/>
  <anchor x="504" y="0" name="bottomleft"/>
  <anchor x="504" y="0" name="bottomright"/>
  <anchor x="281" y="517" name="top"/>
  <outline>
    <contour>
      <point x="504" y="0" type="line"/>
      <point x="528" y="0" type="line"/>
      <point x="285" y="271" type="line"/>
      <point x="267" y="263" type="line"/>
    </contour>
    <contour>
      <point x="117" y="0" type="line"/>
      <point x="137" y="0" type="line"/>
      <point x="137" y="517" type="line"/>
      <point x="117" y="517" type="line"/>
    </contour>
    <contour>
      <point x="130" y="254" type="line"/>
      <point x="287" y="254" type="line"/>
      <point x="287" y="272" type="line"/>
      <point x="130" y="272" type="line"/>
    </contour>
    <contour>
      <point x="285" y="257" type="line"/>
      <point x="512" y="517" type="line"/>
      <point x="488" y="517" type="line"/>
      <point x="267" y="263" type="line"/>
    </contour>
  </outline>
</glyph>
<glyph name="el-cy" format="2">
  <advance width="613"/>
  <unicode hex="043B"/>
  <anchor x="476" y="0" name="#exit"/>
  <anchor x="476" y="0" name="bottomleft"/>
  <outline>
    <contour>
      <point x="5" y="2" type="line"/>
      <point x="17" y="-1"/>
      <point x="27" y="-3"/>
      <point x="38" y="-3" type="curve" smooth="yes"/>
      <point x="140" y="-3"/>
      <point x="157" y="164"/>
      <point x="167" y="344" type="curve" smooth="yes"/>
      <point x="176" y="506" type="line"/>
      <point x="168" y="498" type="line"/>
      <point x="484" y="498" type="line"/>
      <point x="476" y="506" type="line"/>
      <point x="476" y="0" type="line"/>
      <point x="496" y="0" type="line"/>
      <point x="496" y="517" type="line"/>
      <point x="156" y="517" type="line"/>
      <point x="147" y="348" type="line" smooth="yes"/>
      <point x="138" y="179"/>
      <point x="125" y="16"/>
      <point x="34" y="16" type="curve" smooth="yes"/>
      <point x="27" y="16"/>
      <point x="17" y="18"/>
      <point x="9" y="20" type="curve"/>
    </contour>
  </outline>
</glyph>
<glyph name="sha-cy" format="2">
  <advance width="903"/>
  <unicode hex="0448"/>
  <anchor x="762" y="0" name="bottomleft"/>
  <outline>
    <contour>
      <point x="448" y="18" type="line"/>
      <point x="129" y="18" type="line"/>
      <point x="137" y="10" type="line"/>
      <point x="137" y="517" type="line"/>
      <point x="117" y="517" type="line"/>
      <point x="117" y="0" type="line"/>
      <point x="786" y="0" type="line"/>
      <point x="786" y="517" type="line"/>
      <point x="766" y="517" type="line"/>
      <point x="766" y="10" type="line"/>
      <point x="774" y="18" type="line"/>
      <point x="454" y="18" type="line"/>
      <point x="462" y="10" type="line"/>
      <point x="462" y="517" type="line"/>
      <point x="442" y="517" type="line"/>
      <point x="442" y="10" type="line"/>
    </contour>
  </outline>
</glyph>
<glyph name="yeru-cy" format="2">
  <advance width="740"/>
  <unicode hex="044B"/>
  <anchor x="141" y="435" name="center"/>
  <anchor x="391" y="517" name="top"/>
  <outline>
    <contour>
      <point x="603" y="0" type="line"/>
      <point x="623" y="0" type="line"/>
      <point x="623" y="517" type="line"/>
      <point x="603" y="517" type="line"/>
    </contour>
    <contour>
      <point x="303" y="321" type="curve" smooth="yes"/>
      <point x="137" y="323" type="line"/>
      <point x="137" y="517" type="line"/>
      <point x="117" y="517" type="line"/>
      <point x="117" y="0" type="line"/>
      <point x="294" y="-2" type="line" smooth="yes"/>
      <point x="427" y="-4"/>
      <point x="497" y="54"/>
      <point x="497" y="162" type="curve" smooth="yes"/>
      <point x="497" y="266"/>
      <point x="430" y="319"/>
    </contour>
    <contour>
      <point x="296" y="16" type="curve" smooth="yes"/>
      <point x="137" y="18" type="line"/>
      <point x="137" y="305" type="line"/>
      <point x="296" y="303" type="line" smooth="yes"/>
      <point x="417" y="301"/>
      <point x="477" y="256"/>
      <point x="477" y="161" type="curve" smooth="yes"/>
      <point x="477" y="65"/>
      <point x="416" y="14"/>
    </contour>
  </outline>
</glyph>
<glyph name="iu-cy" format="2">
  <advance width="843"/>
  <unicode hex="044E"/>
  <outline>
    <contour>
      <point x="117" y="0" type="line"/>
      <point x="137" y="0" type="line"/>
      <point x="137" y="253" type="line"/>
      <point x="298" y="253" type="line"/>
      <point x="298" y="272" type="line"/>
      <point x="137" y="272" type="line"/>
      <point x="137" y="517" type="line"/>
      <point x="117" y="517" type="line"/>
    </contour>
    <contour>
      <point x="534" y="-3" type="curve" smooth="yes"/>
      <point x="675" y="-3"/>
      <point x="780" y="106"/>
      <point x="780" y="259" type="curve" smooth="yes"/>
      <point x="780" y="412"/>
      <point x="675" y="520"/>
      <point x="534" y="520" type="curve" smooth="yes"/>
      <point x="393" y="520"/>
      <point x="288" y="412"/>
      <point x="288" y="259" type="curve" smooth="yes"/>
      <point x="288" y="106"/>
      <point x="393" y="-3"/>
    </contour>
    <contour>
      <point x="534" y="16" type="curve" smooth="yes"/>
      <point x="405" y="16"/>
      <point x="308" y="116"/>
      <point x="308" y="259" type="curve" smooth="yes"/>
      <point x="308" y="402"/>
      <point x="405" y="501"/>
      <point x="534" y="501" type="curve" smooth="yes"/>
      <point x="663" y="501"/>
      <point x="760" y="402"/>
      <point x="760" y="259" type="curve" smooth="yes"/>
      <point x="760" y="116"/>
      <point x="663" y="16"/>
    </contour>
  </outline>
</glyph>
<glyph name="e-cy" format="2">
  <advance width="562"/>
  <unicode hex="0454"/>
  <anchor x="311" y="0" name="bottom"/>
  <outline>
    <contour>
      <point x="391" y="262" type="line"/>
      <point x="72" y="262" type="line"/>
      <point x="72" y="244" type="line"/>
      <point x="391" y="244" type="line"/>
    </contour>
    <contour>
      <point x="324" y="-2" type="curve" smooth="yes"/>
      <point x="401" y="-2"/>
      <point x="472" y="21"/>
      <point x="519" y="66" type="curve"/>
      <point x="507" y="79" type="line"/>
      <point x="457" y="34"/>
      <point x="395" y="16"/>
      <point x="324" y="16" type="curve" smooth="yes"/>
      <point x="186" y="16"/>
      <point x="79" y="121"/>
      <point x="79" y="259" type="curve" smooth="yes"/>
      <point x="79" y="396"/>
      <point x="186" y="501"/>
      <point x="324" y="501" type="curve" smooth="yes"/>
      <point x="395" y="501"/>
      <point x="457" y="484"/>
      <point x="507" y="439" type="curve"/>
      <point x="519" y="453" type="line"/>
      <point x="472" y="498"/>
      <point x="401" y="520"/>
      <point x="324" y="520" type="curve" smooth="yes"/>
      <point x="174" y="520"/>
      <point x="59" y="408"/>
      <point x="59" y="259" type="curve" smooth="yes"/>
      <point x="59" y="109"/>
      <point x="174" y="-2"/>
    </contour>
  </outline>
</glyph>
<glyph name="Izhitsa-cy" format="2">
  <advance width="722"/>
  <unicode hex="0474"/>
  <outline>
    <contour>
      <point x="318" y="0" type="line"/>
      <point x="338" y="0" type="line"/>
      <point x="531" y="536" type="line" smooth="yes"/>
      <point x="574" y="656"/>
      <point x="621" y="698"/>
      <point x="710" y="677" type="curve"/>
      <point x="714" y="697" type="line"/>
      <point x="615" y="720"/>
      <point x="560" y="672"/>
      <point x="513" y="542" type="curve" smooth="yes"/>
      <point x="328" y="28" type="line"/>
      <point x="50" y="700" type="line"/>
      <point x="27" y="700" type="line"/>
    </contour>
  </outline>
</glyph>
<glyph name="semisoftsign-cy" format="2">
  <advance width="567"/>
  <unicode hex="048D"/>
  <outline>
    <contour>
      <point x="146" y="0" type="line"/>
      <point x="323" y="-2" type="line" smooth="yes"/>
      <point x="456" y="-4"/>
      <point x="526" y="54"/>
      <point x="526" y="162" type="curve" smooth="yes"/>
      <point x="526" y="266"/>
      <point x="459" y="319"/>
      <point x="332" y="321" type="curve" smooth="yes"/>
      <point x="166" y="323" type="line"/>
      <point x="166" y="517" type="line"/>
      <point x="146" y="517" type="line"/>
    </contour>
    <contour>
      <point x="325" y="16" type="curve" smooth="yes"/>
      <point x="166" y="18" type="line"/>
      <point x="166" y="305" type="line"/>
      <point x="325" y="303" type="line" smooth="yes"/>
      <point x="446" y="301"/>
      <point x="506" y="256"/>
      <point x="506" y="161" type="curve" smooth="yes"/>
      <point x="506" y="65"/>
      <point x="445" y="14"/>
    </contour>
    <contour>
      <point x="26" y="417" type="line"/>
      <point x="366" y="417" type="line"/>
      <point x="366" y="436" type="line"/>
      <point x="26" y="436" type="line"/>
    </contour>
  </outline>
</glyph>
<glyph name="Ertick-cy" format="2">
  <advance width="731"/>
  <unicode hex="048E"/>
  <outline>
    <contour>
      <point x="137" y="0" type="line"/>
      <point x="157" y="0" type="line"/>
      <point x="157" y="249" type="line"/>
      <point x="148" y="240" type="line"/>
      <point x="374" y="240" type="line" smooth="yes"/>
      <point x="546" y="240"/>
      <point x="649" y="325"/>
      <point x="649" y="470" type="curve" smooth="yes"/>
      <point x="649" y="615"/>
      <point x="546" y="700"/>
      <point x="374" y="700" type="curve" smooth="yes"/>
      <point x="137" y="700" type="line"/>
    </contour>
    <contour>
      <point x="157" y="251" type="line"/>
      <point x="157" y="689" type="line"/>
      <point x="148" y="681" type="line"/>
      <point x="376" y="681" type="line" smooth="yes"/>
      <point x="540" y="681"/>
      <point x="629" y="604"/>
      <point x="629" y="470" type="curve" smooth="yes"/>
      <point x="629" y="336"/>
      <point x="540" y="259"/>
      <point x="376" y="259" type="curve" smooth="yes"/>
      <point x="148" y="259" type="line"/>
    </contour>
    <contour>
      <point x="640" y="126" type="line"/>
      <point x="375" y="470" type="line"/>
      <point x="360" y="457" type="line"/>
      <point x="625" y="113" type="line"/>
    </contour>
  </outline>
</glyph>
<glyph name="Gheupturn-cy" format="2">
  <advance width="562"/>
  <unicode hex="0490"/>
  <outline>
    <contour>
      <point x="137" y="0" type="line"/>
      <point x="157" y="0" type="line"/>
      <point x="157" y="681" type="line"/>
      <point x="553" y="681" type="line"/>
      <point x="553" y="845" type="line"/>
      <point x="533" y="845" type="line"/>
      <point x="533" y="700" type="line"/>
      <point x="137" y="700" type="line"/>
    </contour>
  </outline>
</glyph>
<glyph name="Ghestroke-cy" format="2">
  <advance width="589"/>
  <unicode hex="0492"/>
  <outline>
    <contour>
      <point x="46" y="319" type="line"/>
      <point x="494" y="319" type="line"/>
      <point x="494" y="338" type="line"/>
      <point x="46" y="338" type="line"/>
    </contour>
    <component base="Ge-cy" xOffset="19"/>
  </outline>
</glyph>
<glyph name="ghestroke-cy" format="2">
  <advance width="475"/>
  <unicode hex="0493"/>
  <outline>
    <contour>
      <point x="51" y="232" type="line"/>
      <point x="390" y="232" type="line"/>
      <point x="390" y="251" type="line"/>
      <point x="51" y="251" type="line"/>
    </contour>
    <component base="ge-cy" xOffset="13"/>
  </outline>
</glyph>
<glyph name="ghemiddlehook-cy" format="2">
  <advance width="573"/>
  <unicode hex="0495"/>
  <guideline x="583" y="-197" angle="0"/>
  <outline>
    <contour>
      <point x="117" y="0" type="line"/>
      <point x="137" y="0" type="line"/>
      <point x="137" y="506" type="line"/>
      <point x="129" y="498" type="line"/>
      <point x="437" y="498" type="line"/>
      <point x="437" y="517" type="line"/>
      <point x="117" y="517" type="line"/>
    </contour>
    <contour>
      <point x="242" y="-192" type="line"/>
      <point x="413" y="-222"/>
      <point x="536" y="-126"/>
      <point x="536" y="43" type="curve" smooth="yes"/>
      <point x="536" y="276"/>
      <point x="304" y="334"/>
      <point x="134" y="208" type="curve"/>
      <point x="134" y="185" type="line"/>
      <point x="286" y="308"/>
      <point x="516" y="270"/>
      <point x="516" y="43" type="curve" smooth="yes"/>
      <point x="516" y="-116"/>
      <point x="404" y="-200"/>
      <point x="247" y="-174" type="curve"/>
    </contour>
  </outline>
</glyph>
<glyph name="kabashkir-cy" format="2">
  <advance width="597"/>
  <unicode hex="04A1"/>
  <anchor x="355" y="0" name="bottom"/>
  <anchor x="355" y="517" name="top"/>
  <outline>
    <contour>
      <point x="-4" y="498" type="line"/>
      <point x="186" y="498" type="line"/>
      <point x="186" y="517" type="line"/>
      <point x="-4" y="517" type="line"/>
    </contour>
    <contour>
      <point x="553" y="0" type="line"/>
      <point x="577" y="0" type="line"/>
      <point x="334" y="271" type="line"/>
      <point x="316" y="263" type="line"/>
    </contour>
    <contour>
      <point x="166" y="0" type="line"/>
      <point x="186" y="0" type="line"/>
      <point x="186" y="517" type="line"/>
      <point x="166" y="517" type="line"/>
    </contour>
    <contour>
      <point x="179" y="254" type="line"/>
      <point x="336" y="254" type="line"/>
      <point x="336" y="272" type="line"/>
      <point x="179" y="272" type="line"/>
    </contour>
    <contour>
      <point x="334" y="257" type="line"/>
      <point x="561" y="517" type="line"/>
      <point x="537" y="517" type="line"/>
      <point x="316" y="263" type="line"/>
    </contour>
  </outline>
</glyph>
<glyph name="Ustrait-cy" format="2">
  <advance width="620"/>
  <unicode hex="04AE"/>
  <anchor x="310" y="0" name="bottom"/>
  <anchor x="310" y="240" name="center"/>
  <anchor x="310" y="700" name="top"/>
  <outline>
    <contour>
      <point x="300" y="0" type="line"/>
      <point x="320" y="0" type="line"/>
      <point x="320" y="245" type="line"/>
      <point x="315" y="230" type="line"/>
      <point x="605" y="700" type="line"/>
      <point x="582" y="700" type="line"/>
      <point x="306" y="253" type="line"/>
      <point x="314" y="253" type="line"/>
      <point x="38" y="700" type="line"/>
      <point x="15" y="700" type="line"/>
      <point x="305" y="230" type="line"/>
      <point x="300" y="245" type="line"/>
    </contour>
  </outline>
</glyph>
<glyph name="tetse-cy" format="2">
  <advance width="729"/>
  <unicode hex="04B5"/>
  <outline>
    <contour>
      <point x="206" y="0" type="line"/>
      <point x="599" y="0" type="line"/>
      <point x="599" y="517" type="line"/>
      <point x="579" y="517" type="line"/>
      <point x="579" y="18" type="line"/>
      <point x="226" y="18" type="line"/>
      <point x="226" y="517" type="line"/>
      <point x="206" y="517" type="line"/>
    </contour>
    <contour>
      <point x="660" y="-121" type="line"/>
      <point x="680" y="-121" type="line"/>
      <point x="680" y="18" type="line"/>
      <point x="579" y="18" type="line"/>
      <point x="579" y="0" type="line"/>
      <point x="668" y="0" type="line"/>
      <point x="660" y="8" type="line"/>
    </contour>
    <contour>
      <point x="426" y="517" type="line"/>
      <point x="-4" y="517" type="line"/>
      <point x="-4" y="498" type="line"/>
      <point x="426" y="498" type="line"/>
    </contour>
  </outline>
</glyph>
<glyph name="Cheverticalstroke-cy" format="2">
  <advance width="720"/>
  <unicode hex="04B8"/>
  <outline>
    <contour>
      <point x="314" y="86" type="line"/>
      <point x="334" y="86" type="line"/>
      <point x="334" y="446" type="line"/>
      <point x="314" y="446" type="line"/>
    </contour>
    <component base="Che-cy"/>
  </outline>
</glyph>
<glyph name="Shha-cy" format="2">
  <advance width="720"/>
  <unicode hex="04BA"/>
  <anchor x="630" y="0" name="bottomleft"/>
  <outline>
    <contour>
      <point x="630" y="0" type="line"/>
      <point x="650" y="0" type="line"/>
      <point x="650" y="238" type="line" smooth="yes"/>
      <point x="650" y="367"/>
      <point x="559" y="445"/>
      <point x="408" y="445" type="curve" smooth="yes"/>
      <point x="328" y="445"/>
      <point x="237" y="423"/>
      <point x="149" y="381" type="curve"/>
      <point x="147" y="360" type="line"/>
      <point x="240" y="403"/>
      <point x="331" y="426"/>
      <point x="409" y="426" type="curve" smooth="yes"/>
      <point x="547" y="426"/>
      <point x="630" y="355"/>
      <point x="630" y="238" type="curve" smooth="yes"/>
    </contour>
    <contour>
      <point x="137" y="0" type="line"/>
      <point x="157" y="0" type="line"/>
      <point x="157" y="700" type="line"/>
      <point x="137" y="700" type="line"/>
    </contour>
  </outline>
</glyph>
<glyph name="Cheabkhasian-cy" format="2">
  <advance width="945"/>
  <unicode hex="04BC"/>
  <anchor x="556" y="0" name="bottom"/>
  <anchor x="552" y="703" name="top"/>
  <outline>
    <contour>
      <point x="555" y="-3" type="curve" smooth="yes"/>
      <point x="642" y="-3"/>
      <point x="734" y="27"/>
      <point x="817" y="93" type="curve"/>
      <point x="803" y="108" type="line"/>
      <point x="725" y="45"/>
      <point x="638" y="16"/>
      <point x="555" y="16" type="curve" smooth="yes"/>
      <point x="380" y="16"/>
      <point x="226" y="147"/>
      <point x="226" y="348" type="curve" smooth="yes"/>
      <point x="226" y="541"/>
      <point x="369" y="684"/>
      <point x="552" y="684" type="curve" smooth="yes"/>
      <point x="736" y="684"/>
      <point x="876" y="541"/>
      <point x="876" y="350" type="curve"/>
      <point x="885" y="353" type="line"/>
      <point x="179" y="353" type="line" smooth="yes"/>
      <point x="59" y="353"/>
      <point x="25" y="463"/>
      <point x="87" y="551" type="curve"/>
      <point x="70" y="560" type="line"/>
      <point x="3" y="464"/>
      <point x="40" y="334"/>
      <point x="178" y="334" type="curve" smooth="yes"/>
      <point x="896" y="334" type="line"/>
      <point x="896" y="339"/>
      <point x="896" y="345"/>
      <point x="896" y="350" type="curve" smooth="yes"/>
      <point x="896" y="552"/>
      <point x="748" y="703"/>
      <point x="552" y="703" type="curve" smooth="yes"/>
      <point x="357" y="703"/>
      <point x="206" y="552"/>
      <point x="206" y="347" type="curve" smooth="yes"/>
      <point x="206" y="134"/>
      <point x="369" y="-3"/>
    </contour>
  </outline>
</glyph>
<glyph name="Palochka-cy" format="2">
  <advance width="294"/>
  <unicode hex="04C0"/>
  <anchor x="147" y="0" name="bottom"/>
  <anchor x="157" y="0" name="ogonek"/>
  <anchor x="147" y="700" name="top"/>
  <anchor x="45" y="699" name="topleft"/>
  <outline>
    <contour>
      <point x="137" y="0" type="line"/>
      <point x="157" y="0" type="line"/>
      <point x="157" y="700" type="line"/>
      <point x="137" y="700" type="line"/>
    </contour>
  </outline>
</glyph>
<glyph name="Kahook-cy" format="2">
  <advance width="677"/>
  <unicode hex="04C3"/>
  <guideline x="359" y="-197" angle="0"/>
  <guideline x="636" y="361" angle="90"/>
  <outline>
    <contour>
      <point x="137" y="0" type="line"/>
      <point x="157" y="0" type="line"/>
      <point x="157" y="700" type="line"/>
      <point x="137" y="700" type="line"/>
    </contour>
    <contour>
      <point x="149" y="347" type="line"/>
      <point x="354" y="347" type="line"/>
      <point x="354" y="366" type="line"/>
      <point x="149" y="366" type="line"/>
    </contour>
    <contour>
      <point x="356" y="356" type="line"/>
      <point x="636" y="700" type="line"/>
      <point x="611" y="700" type="line"/>
      <point x="332" y="357" type="line"/>
    </contour>
    <contour>
      <point x="513" y="-197" type="curve" smooth="yes"/>
      <point x="586" y="-197"/>
      <point x="636" y="-147"/>
      <point x="636" y="-65" type="curve" smooth="yes"/>
      <point x="636" y="50"/>
      <point x="536" y="219"/>
      <point x="348" y="363" type="curve"/>
      <point x="336" y="348" type="line"/>
      <point x="518" y="208"/>
      <point x="616" y="44"/>
      <point x="616" y="-65" type="curve" smooth="yes"/>
      <point x="616" y="-136"/>
      <point x="575" y="-177"/>
      <point x="513" y="-177" type="curve" smooth="yes"/>
      <point x="484" y="-177"/>
      <point x="454" y="-168"/>
      <point x="423" y="-150" type="curve"/>
      <point x="413" y="-168" type="line"/>
      <point x="446" y="-187"/>
      <point x="480" y="-197"/>
    </contour>
  </outline>
</glyph>
<glyph name="Chekhakassian-cy" format="2">
  <advance width="720"/>
  <unicode hex="04CB"/>
  <outline>
    <contour>
      <point x="312" y="255" type="curve" smooth="yes"/>
      <point x="392" y="255"/>
      <point x="483" y="277"/>
      <point x="571" y="319" type="curve"/>
      <point x="573" y="340" type="line"/>
      <point x="480" y="297"/>
      <point x="389" y="274"/>
      <point x="311" y="274" type="curve" smooth="yes"/>
      <point x="173" y="274"/>
      <point x="90" y="345"/>
      <point x="90" y="462" type="curve" smooth="yes"/>
      <point x="90" y="700" type="line"/>
      <point x="70" y="700" type="line"/>
      <point x="70" y="462" type="line" smooth="yes"/>
      <point x="70" y="333"/>
      <point x="161" y="255"/>
    </contour>
    <contour>
      <point x="446" y="-165" type="line"/>
      <point x="466" y="-165" type="line"/>
      <point x="466" y="9" type="line"/>
      <point x="457" y="0" type="line"/>
      <point x="583" y="0" type="line"/>
      <point x="583" y="19" type="line"/>
      <point x="446" y="19" type="line"/>
    </contour>
    <contour>
      <point x="563" y="0" type="line"/>
      <point x="583" y="0" type="line"/>
      <point x="583" y="700" type="line"/>
      <point x="563" y="700" type="line"/>
    </contour>
  </outline>
</glyph>
<glyph name="chekhakassian-cy" format="2">
  <advance width="578"/>
  <unicode hex="04CC"/>
  <outline>
    <contour>
      <point x="244" y="187" type="curve" smooth="yes"/>
      <point x="303" y="187"/>
      <point x="373" y="202"/>
      <point x="444" y="233" type="curve"/>
      <point x="445" y="253" type="line"/>
      <point x="371" y="221"/>
      <point x="302" y="205"/>
      <point x="244" y="205" type="curve" smooth="yes"/>
      <point x="141" y="205"/>
      <point x="74" y="254"/>
      <point x="74" y="342" type="curve" smooth="yes"/>
      <point x="74" y="517" type="line"/>
      <point x="54" y="517" type="line"/>
      <point x="54" y="342" type="line" smooth="yes"/>
      <point x="54" y="239"/>
      <point x="132" y="187"/>
    </contour>
    <contour>
      <point x="350" y="-121" type="line"/>
      <point x="370" y="-121" type="line"/>
      <point x="370" y="8" type="line"/>
      <point x="362" y="0" type="line"/>
      <point x="461" y="0" type="line"/>
      <point x="461" y="18" type="line"/>
      <point x="350" y="18" type="line"/>
    </contour>
    <contour>
      <point x="441" y="0" type="line"/>
      <point x="461" y="0" type="line"/>
      <point x="461" y="517" type="line"/>
      <point x="441" y="517" type="line"/>
    </contour>
  </outline>
</glyph>
<glyph name="palochka-cy" format="2">
  <advance width="256"/>
  <unicode hex="04CF"/>
  <anchor x="128" y="0" name="bottom"/>
  <anchor x="128" y="350" name="center"/>
  <anchor x="254" y="350" name="dot"/>
  <anchor x="128" y="742" name="top"/>
  <anchor x="238" y="742" name="topright"/>
  <outline>
    <contour>
      <point x="118" y="0" type="line"/>
      <point x="138" y="0" type="line"/>
      <point x="138" y="742" type="line"/>
      <point x="118" y="742" type="line"/>
    </contour>
  </outline>
</glyph>
<glyph name="Schwa-cy" format="2">
  <advance width="826"/>
  <unicode hex="04D8"/>
  <anchor x="413" y="700" name="top"/>
  <outline>
    <contour>
      <point x="401" y="-3" type="curve" smooth="yes"/>
      <point x="601" y="-3"/>
      <point x="756" y="148"/>
      <point x="756" y="353" type="curve" smooth="yes"/>
      <point x="756" y="566"/>
      <point x="589" y="703"/>
      <point x="398" y="703" type="curve" smooth="yes"/>
      <point x="309" y="703"/>
      <point x="215" y="673"/>
      <point x="130" y="607" type="curve"/>
      <point x="144" y="592" type="line"/>
      <point x="224" y="655"/>
      <point x="313" y="684"/>
      <point x="398" y="684" type="curve" smooth="yes"/>
      <point x="578" y="684"/>
      <point x="736" y="553"/>
      <point x="736" y="352" type="curve" smooth="yes"/>
      <point x="736" y="159"/>
      <point x="589" y="16"/>
      <point x="401" y="16" type="curve" smooth="yes"/>
      <point x="213" y="16"/>
      <point x="69" y="159"/>
      <point x="69" y="350" type="curve"/>
      <point x="60" y="347" type="line"/>
      <point x="746" y="347" type="line"/>
      <point x="746" y="366" type="line"/>
      <point x="49" y="366" type="line"/>
      <point x="49" y="361"/>
      <point x="49" y="355"/>
      <point x="49" y="350" type="curve" smooth="yes"/>
      <point x="49" y="148"/>
      <point x="201" y="-3"/>
    </contour>
  </outline>
</glyph>
<glyph name="Dzeabkhasian-cy" format="2">
  <advance width="599"/>
  <unicode hex="04E0"/>
  <outline>
    <contour>
      <point x="289" y="-3" type="curve" smooth="yes"/>
      <point x="447" y="-3"/>
      <point x="533" y="76"/>
      <point x="533" y="192" type="curve" smooth="yes"/>
      <point x="533" y="308"/>
      <point x="448" y="387"/>
      <point x="273" y="387" type="curve" smooth="yes"/>
      <point x="257" y="387" type="line"/>
      <point x="259" y="380" type="line"/>
      <point x="505" y="685" type="line"/>
      <point x="505" y="700" type="line"/>
      <point x="57" y="700" type="line"/>
      <point x="57" y="681" type="line"/>
      <point x="485" y="681" type="line"/>
      <point x="483" y="688" type="line"/>
      <point x="237" y="383" type="line"/>
      <point x="237" y="368" type="line"/>
      <point x="274" y="368" type="line" smooth="yes"/>
      <point x="437" y="368"/>
      <point x="513" y="299"/>
      <point x="513" y="192" type="curve" smooth="yes"/>
      <point x="513" y="85"/>
      <point x="435" y="16"/>
      <point x="290" y="16" type="curve" smooth="yes"/>
      <point x="178" y="16"/>
      <point x="89" y="57"/>
      <point x="47" y="109" type="curve"/>
      <point x="34" y="96" type="line"/>
      <point x="78" y="38"/>
      <point x="176" y="-3"/>
    </contour>
  </outline>
</glyph>
<glyph name="gestrokehook-cy" format="2">
  <advance width="451"/>
  <unicode hex="04FB"/>
  <outline>
    <contour>
      <point x="131" y="0" type="line"/>
      <point x="151" y="0" type="line"/>
      <point x="151" y="498" type="line"/>
      <point x="427" y="498" type="line"/>
      <point x="427" y="517" type="line"/>
      <point x="131" y="517" type="line"/>
    </contour>
    <contour>
      <point x="116" y="-197" type="curve" smooth="yes"/>
      <point x="195" y="-197"/>
      <point x="238" y="-146"/>
      <point x="238" y="-70" type="curve" smooth="yes"/>
      <point x="238" y="18" type="line"/>
      <point x="131" y="18" type="line"/>
      <point x="131" y="0" type="line"/>
      <point x="226" y="0" type="line"/>
      <point x="218" y="8" type="line"/>
      <point x="218" y="-65" type="line" smooth="yes"/>
      <point x="218" y="-138"/>
      <point x="182" y="-178"/>
      <point x="115" y="-178" type="curve" smooth="yes"/>
      <point x="79" y="-178"/>
      <point x="48" y="-167"/>
      <point x="26" y="-146" type="curve"/>
      <point x="12" y="-160" type="line"/>
      <point x="36" y="-185"/>
      <point x="76" y="-197"/>
    </contour>
    <contour>
      <point x="52" y="232" type="line"/>
      <point x="391" y="232" type="line"/>
      <point x="391" y="251" type="line"/>
      <point x="52" y="251" type="line"/>
    </contour>
  </outline>
</glyph>
<glyph name="hahook-cy" format="2">
  <advance width="489"/>
  <unicode hex="04FD"/>
  <outline>
    <contour>
      <point x="29" y="0" type="line"/>
      <point x="53" y="0" type="line"/>
      <point x="446" y="517" type="line"/>
      <point x="422" y="517" type="line"/>
      <point x="244" y="284" type="line"/>
      <point x="68" y="517" type="line"/>
      <point x="44" y="517" type="line"/>
      <point x="232" y="267" type="line"/>
    </contour>
    <contour>
      <point x="344" y="-197" type="curve" smooth="yes"/>
      <point x="417" y="-197"/>
      <point x="469" y="-148"/>
      <point x="469" y="-74" type="curve" smooth="yes"/>
      <point x="469" y="-4"/>
      <point x="423" y="68"/>
      <point x="255" y="269" type="curve"/>
      <point x="239" y="257" type="line"/>
      <point x="396" y="70"/>
      <point x="449" y="-7"/>
      <point x="449" y="-74" type="curve" smooth="yes"/>
      <point x="449" y="-135"/>
      <point x="406" y="-178"/>
      <point x="345" y="-178" type="curve" smooth="yes"/>
      <point x="314" y="-178"/>
      <point x="283" y="-167"/>
      <point x="256" y="-149" type="curve"/>
      <point x="244" y="-165" type="line"/>
      <point x="275" y="-186"/>
      <point x="309" y="-197"/>
    </contour>
  </outline>
</glyph>
<glyph name="hastroke-cy" format="2">
  <advance width="528"/>
  <unicode hex="04FF"/>
  <outline>
    <contour>
      <point x="44" y="0" type="line"/>
      <point x="69" y="0" type="line"/>
      <point x="267" y="256" type="line"/>
      <point x="262" y="256" type="line"/>
      <point x="460" y="0" type="line"/>
      <point x="486" y="0" type="line"/>
      <point x="272" y="273" type="line"/>
      <point x="271" y="261" type="line"/>
      <point x="471" y="517" type="line"/>
      <point x="447" y="517" type="line"/>
      <point x="260" y="277" type="line"/>
      <point x="268" y="277" type="line"/>
      <point x="81" y="517" type="line"/>
      <point x="56" y="517" type="line"/>
      <point x="254" y="265" type="line"/>
      <point x="255" y="272" type="line"/>
    </contour>
    <contour>
      <point x="105" y="257" type="line"/>
      <point x="422" y="257" type="line"/>
      <point x="422" y="276" type="line"/>
      <point x="105" y="276" type="line"/>
    </contour>
  </outline>
</glyph>
<glyph name="we-cy" format="2">
  <advance width="908"/>
  <unicode hex="051D"/>
  <anchor x="454" y="0" name="bottom"/>
  <anchor x="454" y="517" name="top"/>
  <outline>
    <contour>
      <point x="233" y="0" type="line"/>
      <point x="253" y="0" type="line"/>
      <point x="458" y="498" type="line"/>
      <point x="450" y="498" type="line"/>
      <point x="655" y="0" type="line"/>
      <point x="675" y="0" type="line"/>
      <point x="885" y="517" type="line"/>
      <point x="862" y="517" type="line"/>
      <point x="661" y="14" type="line"/>
      <point x="669" y="14" type="line"/>
      <point x="464" y="517" type="line"/>
      <point x="444" y="517" type="line"/>
      <point x="239" y="14" type="line"/>
      <point x="247" y="14" type="line"/>
      <point x="46" y="517" type="line"/>
      <point x="23" y="517" type="line"/>
    </contour>
  </outline>
</glyph>
<glyph name="shhadescender-cy" format="2">
  <advance width="676"/>
  <unicode hex="0527"/>
  <outline>
    <contour>
      <point x="541" y="0" type="line"/>
      <point x="561" y="0" type="line"/>
      <point x="561" y="305" type="line" smooth="yes"/>
      <point x="561" y="445"/>
      <point x="481" y="520"/>
      <point x="354" y="520" type="curve" smooth="yes"/>
      <point x="209" y="520"/>
      <point x="122" y="424"/>
      <point x="122" y="287" type="curve"/>
      <point x="137" y="281" type="line"/>
      <point x="137" y="412"/>
      <point x="219" y="501"/>
      <point x="355" y="501" type="curve" smooth="yes"/>
      <point x="472" y="501"/>
      <point x="541" y="433"/>
      <point x="541" y="305" type="curve" smooth="yes"/>
    </contour>
    <contour>
      <point x="117" y="0" type="line"/>
      <point x="137" y="0" type="line"/>
      <point x="137" y="742" type="line"/>
      <point x="117" y="742" type="line"/>
    </contour>
    <contour>
      <point x="618" y="-121" type="line"/>
      <point x="638" y="-121" type="line"/>
      <point x="638" y="18" type="line"/>
      <point x="541" y="18" type="line"/>
      <point x="541" y="0" type="line"/>
      <point x="626" y="0" type="line"/>
      <point x="618" y="8" type="line"/>
    </contour>
  </outline>
</glyph>
<glyph name="EnLeftHook-cy" format="2">
  <advance width="820"/>
  <unicode hex="0528"/>
  <outline>
    <contour>
      <point x="-66" y="-160" type="line"/>
      <point x="15" y="-229"/>
      <point x="160" y="-202"/>
      <point x="160" y="-80" type="curve" smooth="yes"/>
      <point x="160" y="344" type="line"/>
      <point x="663" y="344" type="line"/>
      <point x="663" y="0" type="line"/>
      <point x="683" y="0" type="line"/>
      <point x="683" y="700" type="line"/>
      <point x="663" y="700" type="line"/>
      <point x="663" y="364" type="line"/>
      <point x="160" y="364" type="line"/>
      <point x="160" y="700" type="line"/>
      <point x="140" y="700" type="line"/>
      <point x="140" y="-75" type="line" smooth="yes"/>
      <point x="140" y="-183"/>
      <point x="24" y="-205"/>
      <point x="-52" y="-146" type="curve"/>
    </contour>
  </outline>
</glyph>
<glyph name="Germandbls" format="2">
  <advance width="742"/>
  <unicode hex="1E9E"/>
  <outline>
    <contour>
      <point x="452" y="-3" type="curve" smooth="yes"/>
      <point x="589" y="-3"/>
      <point x="677" y="65"/>
      <point x="677" y="193" type="curve" smooth="yes"/>
      <point x="677" y="321"/>
      <point x="588" y="388"/>
      <point x="454" y="388" type="curve" smooth="yes"/>
      <point x="426" y="388"/>
      <point x="398" y="385"/>
      <point x="374" y="377" type="curve"/>
      <point x="375" y="367" type="line"/>
      <point x="616" y="615" type="line"/>
      <point x="616" y="631" type="line"/>
      <point x="560" y="680"/>
      <point x="484" y="703"/>
      <point x="402" y="703" type="curve" smooth="yes"/>
      <point x="228" y="703"/>
      <point x="127" y="597"/>
      <point x="127" y="424" type="curve" smooth="yes"/>
      <point x="127" y="0" type="line"/>
      <point x="147" y="0" type="line"/>
      <point x="147" y="422" type="line" smooth="yes"/>
      <point x="147" y="591"/>
      <point x="237" y="684"/>
      <point x="404" y="684" type="curve" smooth="yes"/>
      <point x="479" y="684"/>
      <point x="551" y="665"/>
      <point x="603" y="618" type="curve"/>
      <point x="606" y="630" type="line"/>
      <point x="356" y="373" type="line"/>
      <point x="363" y="357" type="line"/>
      <point x="389" y="365"/>
      <point x="422" y="369"/>
      <point x="454" y="369" type="curve" smooth="yes"/>
      <point x="576" y="369"/>
      <point x="657" y="310"/>
      <point x="657" y="193" type="curve" smooth="yes"/>
      <point x="657" y="77"/>
      <point x="578" y="16"/>
      <point x="458" y="16" type="curve" smooth="yes"/>
      <point x="408" y="16"/>
      <point x="365" y="25"/>
      <point x="327" y="44" type="curve"/>
      <point x="319" y="25" type="line"/>
      <point x="361" y="6"/>
      <point x="401" y="-3"/>
    </contour>
  </outline>
</glyph>
<glyph name="figuredash" format="2">
  <advance width="700"/>
  <unicode hex="2012"/>
  <outline>
    <contour>
      <point x="50" y="346" type="line"/>
      <point x="650" y="346" type="line"/>
      <point x="650" y="365" type="line"/>
      <point x="50" y="365" type="line"/>
    </contour>
  </outline>
</glyph>
<glyph name="endash" format="2">
  <advance width="500"/>
  <unicode hex="2013"/>
  <outline>
    <contour>
      <point x="0" y="255" type="line"/>
      <point x="500" y="255" type="line"/>
      <point x="500" y="274" type="line"/>
      <point x="0" y="274" type="line"/>
    </contour>
  </outline>
</glyph>
<glyph name="emdash" format="2">
  <advance width="1000"/>
  <unicode hex="2014"/>
  <outline>
    <contour>
      <point x="0" y="255" type="line"/>
      <point x="1000" y="255" type="line"/>
      <point x="1000" y="274" type="line"/>
      <point x="0" y="274" type="line"/>
    </contour>
  </outline>
</glyph>
<glyph name="quoteleft" format="2">
  <advance width="182"/>
  <unicode hex="2018"/>
  <outline>
    <contour>
      <point x="120" y="742" type="line"/>
      <point x="102" y="742" type="line"/>
      <point x="69" y="608" type="line"/>
      <point x="67" y="597"/>
      <point x="65" y="590"/>
      <point x="65" y="579" type="curve" smooth="yes"/>
      <point x="65" y="567"/>
      <point x="75" y="553"/>
      <point x="91" y="553" type="curve" smooth="yes"/>
      <point x="106" y="553"/>
      <point x="117" y="565"/>
      <point x="117" y="579" type="curve" smooth="yes"/>
      <point x="117" y="593"/>
      <point x="105" y="605"/>
      <point x="89" y="605" type="curve"/>
      <point x="89" y="594" type="line"/>
    </contour>
  </outline>
</glyph>
<glyph name="quoteright" format="2">
  <advance width="182"/>
  <unicode hex="2019"/>
  <outline>
    <contour>
      <point x="62" y="556" type="line"/>
      <point x="80" y="556" type="line"/>
      <point x="113" y="690" type="line"/>
      <point x="115" y="701"/>
      <point x="117" y="708"/>
      <point x="117" y="719" type="curve" smooth="yes"/>
      <point x="117" y="731"/>
      <point x="107" y="745"/>
      <point x="91" y="745" type="curve" smooth="yes"/>
      <point x="76" y="745"/>
      <point x="65" y="733"/>
      <point x="65" y="719" type="curve" smooth="yes"/>
      <point x="65" y="705"/>
      <point x="77" y="693"/>
      <point x="93" y="693" type="curve"/>
      <point x="93" y="704" type="line"/>
    </contour>
  </outline>
</glyph>
<glyph name="bullet" format="2">
  <advance width="258"/>
  <unicode hex="2022"/>
  <outline>
    <contour>
      <point x="129" y="225" type="curve" smooth="yes"/>
      <point x="153" y="225"/>
      <point x="173" y="245"/>
      <point x="173" y="269" type="curve" smooth="yes"/>
      <point x="173" y="293"/>
      <point x="153" y="313"/>
      <point x="129" y="313" type="curve" smooth="yes"/>
      <point x="105" y="313"/>
      <point x="85" y="293"/>
      <point x="85" y="269" type="curve" smooth="yes"/>
      <point x="85" y="245"/>
      <point x="105" y="225"/>
    </contour>
  </outline>
</glyph>
<glyph name="minute" format="2">
  <advance width="184"/>
  <unicode hex="2032"/>
  <outline>
    <contour>
      <point x="83" y="450" type="line"/>
      <point x="101" y="450" type="line"/>
      <point x="103" y="700" type="line"/>
      <point x="81" y="700" type="line"/>
    </contour>
  </outline>
</glyph>
<glyph name="second" format="2">
  <advance width="334"/>
  <unicode hex="2033"/>
  <outline>
    <contour>
      <point x="83" y="450" type="line"/>
      <point x="101" y="450" type="line"/>
      <point x="103" y="700" type="line"/>
      <point x="81" y="700" type="line"/>
    </contour>
    <contour>
      <point x="233" y="450" type="line"/>
      <point x="251" y="450" type="line"/>
      <point x="253" y="700" type="line"/>
      <point x="231" y="700" type="line"/>
    </contour>
  </outline>
</glyph>
<glyph name="guilsinglright" format="2">
  <advance width="273"/>
  <unicode hex="203A"/>
  <outline>
    <contour>
      <point x="68" y="74" type="line"/>
      <point x="215" y="259" type="line"/>
      <point x="68" y="444" type="line"/>
      <point x="45" y="444" type="line"/>
      <point x="191" y="259" type="line"/>
      <point x="45" y="74" type="line"/>
    </contour>
  </outline>
</glyph>
<glyph name="fraction" format="2">
  <advance width="160"/>
  <unicode hex="2044"/>
  <outline>
    <contour>
      <point x="-170" y="0" type="line"/>
      <point x="-148" y="0" type="line"/>
      <point x="330" y="700" type="line"/>
      <point x="308" y="700" type="line"/>
    </contour>
  </outline>
</glyph>
<glyph name="commercialMinusSign" format="2">
  <advance width="466"/>
  <unicode hex="2052"/>
  <guideline x="100" y="446" angle="90"/>
  <guideline x="365" y="446" angle="90"/>
  <outline>
    <contour>
      <point x="100" y="0" type="line"/>
      <point x="120" y="0" type="line"/>
      <point x="365" y="700" type="line"/>
      <point x="345" y="700" type="line"/>
    </contour>
    <contour>
      <point x="332" y="0" type="curve" smooth="yes"/>
      <point x="347" y="0"/>
      <point x="361" y="14"/>
      <point x="361" y="29" type="curve" smooth="yes"/>
      <point x="361" y="44"/>
      <point x="347" y="58"/>
      <point x="332" y="58" type="curve" smooth="yes"/>
      <point x="317" y="58"/>
      <point x="303" y="44"/>
      <point x="303" y="29" type="curve" smooth="yes"/>
      <point x="303" y="14"/>
      <point x="317" y="0"/>
    </contour>
    <contour>
      <point x="133" y="642" type="curve" smooth="yes"/>
      <point x="148" y="642"/>
      <point x="162" y="656"/>
      <point x="162" y="671" type="curve" smooth="yes"/>
      <point x="162" y="686"/>
      <point x="148" y="700"/>
      <point x="133" y="700" type="curve" smooth="yes"/>
      <point x="118" y="700"/>
      <point x="104" y="686"/>
      <point x="104" y="671" type="curve" smooth="yes"/>
      <point x="104" y="656"/>
      <point x="118" y="642"/>
    </contour>
  </outline>
</glyph>
<glyph name="tenge" format="2">
  <advance width="712"/>
  <unicode hex="20B8"/>
  <outline>
    <contour>
      <point x="346" y="0" type="line"/>
      <point x="366" y="0" type="line"/>
      <point x="366" y="547" type="line"/>
      <point x="626" y="547" type="line"/>
      <point x="626" y="566" type="line"/>
      <point x="86" y="566" type="line"/>
      <point x="86" y="547" type="line"/>
      <point x="346" y="547" type="line"/>
    </contour>
    <contour>
      <point x="86" y="681" type="line"/>
      <point x="626" y="681" type="line"/>
      <point x="626" y="700" type="line"/>
      <point x="86" y="700" type="line"/>
    </contour>
  </outline>
</glyph>
<glyph name="rupeeIndian" format="2">
  <advance width="715"/>
  <unicode hex="20B9"/>
  <outline>
    <contour>
      <point x="133" y="260" type="line"/>
      <point x="270" y="260" type="line" smooth="yes"/>
      <point x="442" y="260"/>
      <point x="545" y="345"/>
      <point x="545" y="480" type="curve" smooth="yes"/>
      <point x="545" y="580"/>
      <point x="486" y="659"/>
      <point x="377" y="685" type="curve"/>
      <point x="377" y="681" type="line"/>
      <point x="665" y="681" type="line"/>
      <point x="665" y="700" type="line"/>
      <point x="13" y="700" type="line"/>
      <point x="13" y="680" type="line"/>
      <point x="272" y="681" type="line" smooth="yes"/>
      <point x="436" y="682"/>
      <point x="525" y="604"/>
      <point x="525" y="480" type="curve" smooth="yes"/>
      <point x="525" y="356"/>
      <point x="436" y="279"/>
      <point x="272" y="279" type="curve" smooth="yes"/>
      <point x="133" y="279" type="line"/>
    </contour>
    <contour>
      <point x="530" y="0" type="line"/>
      <point x="555" y="0" type="line"/>
      <point x="372" y="274" type="line"/>
      <point x="347" y="274" type="line"/>
    </contour>
    <contour>
      <point x="13" y="541" type="line"/>
      <point x="665" y="541" type="line"/>
      <point x="665" y="560" type="line"/>
      <point x="13" y="560" type="line"/>
    </contour>
  </outline>
</glyph>
<glyph name="literSign" format="2">
  <advance width="462"/>
  <unicode hex="2113"/>
  <outline>
    <contour>
      <point x="232" y="0" type="curve" smooth="yes"/>
      <point x="304" y="0"/>
      <point x="364" y="39"/>
      <point x="421" y="107" type="curve"/>
      <point x="407" y="118" type="line"/>
      <point x="352" y="54"/>
      <point x="298" y="18"/>
      <point x="232" y="18" type="curve" smooth="yes"/>
      <point x="141" y="18"/>
      <point x="129" y="91"/>
      <point x="151" y="217" type="curve"/>
      <point x="333" y="361"/>
      <point x="417" y="500"/>
      <point x="417" y="598" type="curve" smooth="yes"/>
      <point x="417" y="669"/>
      <point x="372" y="699"/>
      <point x="326" y="699" type="curve" smooth="yes"/>
      <point x="265" y="699"/>
      <point x="210" y="650"/>
      <point x="189" y="550" type="curve" smooth="yes"/>
      <point x="134" y="227" type="line"/>
      <point x="54" y="164" type="line"/>
      <point x="65" y="149" type="line"/>
      <point x="129" y="200" type="line"/>
      <point x="112" y="81"/>
      <point x="129" y="0"/>
    </contour>
    <contour>
      <point x="156" y="244" type="curve"/>
      <point x="208" y="546" type="line" smooth="yes"/>
      <point x="226" y="639"/>
      <point x="275" y="681"/>
      <point x="326" y="681" type="curve" smooth="yes"/>
      <point x="364" y="681"/>
      <point x="398" y="658"/>
      <point x="398" y="598" type="curve" smooth="yes"/>
      <point x="398" y="508"/>
      <point x="319" y="373"/>
    </contour>
  </outline>
</glyph>
<glyph name="numero" format="2">
  <advance width="1190"/>
  <unicode hex="2116"/>
  <outline>
    <contour>
      <point x="133" y="0" type="line"/>
      <point x="153" y="0" type="line"/>
      <point x="153" y="677" type="line"/>
      <point x="142" y="677" type="line"/>
      <point x="666" y="0" type="line"/>
      <point x="683" y="0" type="line"/>
      <point x="683" y="700" type="line"/>
      <point x="663" y="700" type="line"/>
      <point x="663" y="23" type="line"/>
      <point x="674" y="23" type="line"/>
      <point x="150" y="700" type="line"/>
      <point x="133" y="700" type="line"/>
    </contour>
    <contour>
      <point x="819" y="272" type="line"/>
      <point x="1105" y="272" type="line"/>
      <point x="1105" y="291" type="line"/>
      <point x="819" y="291" type="line"/>
    </contour>
    <contour>
      <point x="962" y="391" type="curve" smooth="yes"/>
      <point x="1056" y="391"/>
      <point x="1125" y="456"/>
      <point x="1125" y="547" type="curve" smooth="yes"/>
      <point x="1125" y="638"/>
      <point x="1056" y="703"/>
      <point x="962" y="703" type="curve" smooth="yes"/>
      <point x="868" y="703"/>
      <point x="799" y="638"/>
      <point x="799" y="547" type="curve" smooth="yes"/>
      <point x="799" y="456"/>
      <point x="868" y="391"/>
    </contour>
    <contour>
      <point x="962" y="409" type="curve" smooth="yes"/>
      <point x="880" y="409"/>
      <point x="818" y="465"/>
      <point x="818" y="547" type="curve" smooth="yes"/>
      <point x="818" y="629"/>
      <point x="880" y="685"/>
      <point x="962" y="685" type="curve" smooth="yes"/>
      <point x="1044" y="685"/>
      <point x="1106" y="629"/>
      <point x="1106" y="547" type="curve" smooth="yes"/>
      <point x="1106" y="465"/>
      <point x="1044" y="409"/>
    </contour>
  </outline>
</glyph>
<glyph name="upArrow" format="2">
  <advance width="600"/>
  <unicode hex="2191"/>
  <outline>
    <contour>
      <point x="122" y="314" type="line"/>
      <point x="298" y="439" type="line"/>
      <point x="478" y="314" type="line"/>
      <point x="478" y="341" type="line"/>
      <point x="298" y="467" type="line"/>
      <point x="122" y="341" type="line"/>
    </contour>
    <contour>
      <point x="288" y="79" type="line"/>
      <point x="310" y="79" type="line"/>
      <point x="310" y="447" type="line"/>
      <point x="288" y="447" type="line"/>
    </contour>
  </outline>
</glyph>
<glyph name="rightArrow" format="2">
  <advance width="600"/>
  <unicode hex="2192"/>
  <outline>
    <contour>
      <point x="349" y="447" type="line"/>
      <point x="322" y="447" type="line"/>
      <point x="447" y="271" type="line"/>
      <point x="322" y="92" type="line"/>
      <point x="349" y="92" type="line"/>
      <point x="475" y="271" type="line"/>
    </contour>
    <contour>
      <point x="455" y="280" type="line"/>
      <point x="88" y="280" type="line"/>
      <point x="88" y="260" type="line"/>
      <point x="455" y="260" type="line"/>
    </contour>
  </outline>
</glyph>
<glyph name="downArrow" format="2">
  <advance width="600"/>
  <unicode hex="2193"/>
  <outline>
    <contour>
      <point x="494" y="227" type="line"/>
      <point x="318" y="102" type="line"/>
      <point x="138" y="227" type="line"/>
      <point x="138" y="200" type="line"/>
      <point x="318" y="74" type="line"/>
      <point x="494" y="200" type="line"/>
    </contour>
    <contour>
      <point x="328" y="462" type="line"/>
      <point x="306" y="462" type="line"/>
      <point x="306" y="94" type="line"/>
      <point x="328" y="94" type="line"/>
    </contour>
  </outline>
</glyph>
<glyph name="northWestArrow" format="2">
  <advance width="600"/>
  <unicode hex="2196"/>
  <outline>
    <contour>
      <point x="159" y="182" type="line"/>
      <point x="195" y="395" type="line"/>
      <point x="411" y="434" type="line"/>
      <point x="392" y="453" type="line"/>
      <point x="176" y="415" type="line"/>
      <point x="140" y="201" type="line"/>
    </contour>
    <contour>
      <point x="443" y="134" type="line"/>
      <point x="458" y="149" type="line"/>
      <point x="198" y="409" type="line"/>
      <point x="183" y="394" type="line"/>
    </contour>
  </outline>
</glyph>
<glyph name="southEastArrow" format="2">
  <advance width="600"/>
  <unicode hex="2198"/>
  <outline>
    <contour>
      <point x="455" y="382" type="line"/>
      <point x="419" y="169" type="line"/>
      <point x="203" y="130" type="line"/>
      <point x="222" y="111" type="line"/>
      <point x="438" y="149" type="line"/>
      <point x="474" y="363" type="line"/>
    </contour>
    <contour>
      <point x="171" y="430" type="line"/>
      <point x="156" y="415" type="line"/>
      <point x="416" y="155" type="line"/>
      <point x="431" y="170" type="line"/>
    </contour>
  </outline>
</glyph>
<glyph name="partialdiff" format="2">
  <advance width="700"/>
  <unicode hex="2202"/>
  <outline>
    <contour>
      <point x="327" y="-3" type="curve" smooth="yes"/>
      <point x="511" y="-3"/>
      <point x="605" y="137"/>
      <point x="605" y="350" type="curve" smooth="yes"/>
      <point x="605" y="581"/>
      <point x="481" y="703"/>
      <point x="298" y="703" type="curve" smooth="yes"/>
      <point x="238" y="703"/>
      <point x="180" y="693"/>
      <point x="143" y="682" type="curve"/>
      <point x="148" y="663" type="line"/>
      <point x="189" y="675"/>
      <point x="242" y="684"/>
      <point x="298" y="684" type="curve" smooth="yes"/>
      <point x="471" y="684"/>
      <point x="585" y="568"/>
      <point x="585" y="352" type="curve" smooth="yes"/>
      <point x="585" y="318"/>
      <point x="582" y="261"/>
      <point x="566" y="210" type="curve"/>
      <point x="574" y="209" type="line"/>
      <point x="569" y="350"/>
      <point x="465" y="430"/>
      <point x="335" y="430" type="curve" smooth="yes"/>
      <point x="188" y="430"/>
      <point x="95" y="344"/>
      <point x="95" y="214" type="curve" smooth="yes"/>
      <point x="95" y="84"/>
      <point x="190" y="-3"/>
    </contour>
    <contour>
      <point x="327" y="16" type="curve" smooth="yes"/>
      <point x="200" y="16"/>
      <point x="115" y="97"/>
      <point x="115" y="214" type="curve" smooth="yes"/>
      <point x="115" y="331"/>
      <point x="197" y="411"/>
      <point x="335" y="411" type="curve" smooth="yes"/>
      <point x="464" y="411"/>
      <point x="554" y="323"/>
      <point x="554" y="214" type="curve" smooth="yes"/>
      <point x="554" y="118"/>
      <point x="475" y="16"/>
    </contour>
  </outline>
</glyph>
<glyph name="emptyset" format="2">
  <advance width="560"/>
  <unicode hex="2205"/>
  <outline>
    <contour>
      <point x="64" y="103" type="line"/>
      <point x="510" y="519" type="line"/>
      <point x="496" y="533" type="line"/>
      <point x="50" y="117" type="line"/>
    </contour>
    <contour>
      <point x="280" y="127" type="curve" smooth="yes"/>
      <point x="386" y="127"/>
      <point x="473" y="214"/>
      <point x="473" y="320" type="curve" smooth="yes"/>
      <point x="473" y="427"/>
      <point x="386" y="513"/>
      <point x="280" y="513" type="curve" smooth="yes"/>
      <point x="173" y="513"/>
      <point x="87" y="427"/>
      <point x="87" y="320" type="curve" smooth="yes"/>
      <point x="87" y="214"/>
      <point x="173" y="127"/>
    </contour>
    <contour>
      <point x="280" y="147" type="curve" smooth="yes"/>
      <point x="184" y="147"/>
      <point x="107" y="225"/>
      <point x="107" y="320" type="curve" smooth="yes"/>
      <point x="107" y="415"/>
      <point x="184" y="493"/>
      <point x="280" y="493" type="curve" smooth="yes"/>
      <point x="376" y="493"/>
      <point x="453" y="415"/>
      <point x="453" y="320" type="curve" smooth="yes"/>
      <point x="453" y="225"/>
      <point x="376" y="147"/>
    </contour>
  </outline>
</glyph>
<glyph name="summation" format="2">
  <advance width="639"/>
  <unicode hex="2211"/>
  <outline>
    <contour>
      <point x="50" y="-194" type="line"/>
      <point x="600" y="-194" type="line"/>
      <point x="600" y="-175" type="line"/>
      <point x="69" y="-175" type="line"/>
      <point x="73" y="-182" type="line"/>
      <point x="427" y="246" type="line"/>
      <point x="427" y="261" type="line"/>
      <point x="83" y="688" type="line"/>
      <point x="79" y="681" type="line"/>
      <point x="595" y="681" type="line"/>
      <point x="595" y="700" type="line"/>
      <point x="60" y="700" type="line"/>
      <point x="60" y="685" type="line"/>
      <point x="413" y="247" type="line"/>
      <point x="413" y="261" type="line"/>
      <point x="50" y="-179" type="line"/>
    </contour>
  </outline>
</glyph>
<glyph name="minus" format="2">
  <advance width="560"/>
  <unicode hex="2212"/>
  <outline>
    <contour>
      <point x="75" y="340" type="line"/>
      <point x="485" y="340" type="line"/>
      <point x="485" y="359" type="line"/>
      <point x="75" y="359" type="line"/>
    </contour>
  </outline>
</glyph>
<glyph name="infinity" format="2">
  <advance width="914"/>
  <unicode hex="221E"/>
  <outline>
    <contour>
      <point x="679" y="174" type="curve" smooth="yes"/>
      <point x="782" y="174"/>
      <point x="860" y="251"/>
      <point x="860" y="351" type="curve" smooth="yes"/>
      <point x="860" y="451"/>
      <point x="782" y="526"/>
      <point x="679" y="526" type="curve" smooth="yes"/>
      <point x="417" y="526"/>
      <point x="482" y="193"/>
      <point x="235" y="193" type="curve" smooth="yes"/>
      <point x="142" y="193"/>
      <point x="74" y="260"/>
      <point x="74" y="350" type="curve" smooth="yes"/>
      <point x="74" y="440"/>
      <point x="142" y="507"/>
      <point x="235" y="507" type="curve" smooth="yes"/>
      <point x="482" y="507"/>
      <point x="417" y="174"/>
    </contour>
    <contour>
      <point x="235" y="174" type="curve" smooth="yes"/>
      <point x="497" y="174"/>
      <point x="432" y="507"/>
      <point x="679" y="507" type="curve" smooth="yes"/>
      <point x="772" y="507"/>
      <point x="840" y="441"/>
      <point x="840" y="351" type="curve" smooth="yes"/>
      <point x="840" y="261"/>
      <point x="772" y="193"/>
      <point x="679" y="193" type="curve" smooth="yes"/>
      <point x="432" y="193"/>
      <point x="497" y="526"/>
      <point x="235" y="526" type="curve" smooth="yes"/>
      <point x="132" y="526"/>
      <point x="54" y="450"/>
      <point x="54" y="350" type="curve" smooth="yes"/>
      <point x="54" y="250"/>
      <point x="132" y="174"/>
    </contour>
  </outline>
</glyph>
<glyph name="integral" format="2">
  <advance width="356"/>
  <unicode hex="222B"/>
  <outline>
    <contour>
      <point x="66" y="-197" type="curve" smooth="yes"/>
      <point x="145" y="-197"/>
      <point x="188" y="-146"/>
      <point x="188" y="-70" type="curve" smooth="yes"/>
      <point x="188" y="613" type="line" smooth="yes"/>
      <point x="188" y="686"/>
      <point x="224" y="726"/>
      <point x="291" y="726" type="curve" smooth="yes"/>
      <point x="327" y="726"/>
      <point x="358" y="715"/>
      <point x="380" y="694" type="curve"/>
      <point x="394" y="708" type="line"/>
      <point x="370" y="733"/>
      <point x="330" y="745"/>
      <point x="290" y="745" type="curve" smooth="yes"/>
      <point x="211" y="745"/>
      <point x="168" y="694"/>
      <point x="168" y="618" type="curve" smooth="yes"/>
      <point x="168" y="-65" type="line" smooth="yes"/>
      <point x="168" y="-138"/>
      <point x="132" y="-178"/>
      <point x="65" y="-178" type="curve" smooth="yes"/>
      <point x="29" y="-178"/>
      <point x="-2" y="-167"/>
      <point x="-24" y="-146" type="curve"/>
      <point x="-38" y="-160" type="line"/>
      <point x="-14" y="-185"/>
      <point x="26" y="-197"/>
    </contour>
  </outline>
</glyph>
<glyph name="lessequal" format="2">
  <advance width="560"/>
  <unicode hex="2264"/>
  <outline>
    <contour>
      <point x="485" y="168" type="line"/>
      <point x="485" y="190" type="line"/>
      <point x="88" y="354" type="line"/>
      <point x="88" y="346" type="line"/>
      <point x="485" y="510" type="line"/>
      <point x="485" y="532" type="line"/>
      <point x="75" y="361" type="line"/>
      <point x="75" y="339" type="line"/>
    </contour>
    <contour>
      <point x="75" y="0" type="line"/>
      <point x="485" y="0" type="line"/>
      <point x="485" y="19" type="line"/>
      <point x="75" y="19" type="line"/>
    </contour>
  </outline>
</glyph>
<glyph name="upBlackTriangle" format="2">
  <advance width="600"/>
  <unicode hex="25B2"/>
  <outline>
    <contour>
      <point x="87" y="52" type="line"/>
      <point x="513" y="52" type="line"/>
      <point x="300" y="478" type="line"/>
    </contour>
  </outline>
</glyph>
<glyph name="rightWhiteTriangle" format="2">
  <advance width="600"/>
  <unicode hex="25B7"/>
  <outline>
    <contour>
      <point x="115" y="479" type="line"/>
      <point x="115" y="53" type="line"/>
      <point x="541" y="266" type="line"/>
    </contour>
    <contour>
      <point x="135" y="447" type="line"/>
      <point x="496" y="266" type="line"/>
      <point x="135" y="85" type="line"/>
    </contour>
  </outline>
</glyph>
<glyph name="saltillo" format="2">
  <advance width="209"/>
  <unicode hex="A78C"/>
  <outline>
    <contour>
      <point x="94" y="298" type="line"/>
      <point x="114" y="298" type="line"/>
      <point x="115" y="633" type="line"/>
      <point x="95" y="633" type="line"/>
    </contour>
  </outline>
</glyph>
<glyph name="Ef-cy.loclBGR" format="2">
  <advance width="890"/>
  <outline>
    <contour>
      <point x="445" y="-3" type="curve" smooth="yes"/>
      <point x="662" y="-3"/>
      <point x="822" y="148"/>
      <point x="822" y="350" type="curve" smooth="yes"/>
      <point x="822" y="552"/>
      <point x="662" y="703"/>
      <point x="445" y="703" type="curve" smooth="yes"/>
      <point x="228" y="703"/>
      <point x="68" y="552"/>
      <point x="68" y="350" type="curve" smooth="yes"/>
      <point x="68" y="148"/>
      <point x="228" y="-3"/>
    </contour>
    <contour>
      <point x="445" y="16" type="curve" smooth="yes"/>
      <point x="240" y="16"/>
      <point x="88" y="159"/>
      <point x="88" y="350" type="curve" smooth="yes"/>
      <point x="88" y="541"/>
      <point x="240" y="684"/>
      <point x="445" y="684" type="curve" smooth="yes"/>
      <point x="650" y="684"/>
      <point x="802" y="541"/>
      <point x="802" y="350" type="curve" smooth="yes"/>
      <point x="802" y="159"/>
      <point x="650" y="16"/>
    </contour>
    <contour>
      <point x="435" y="-40" type="line"/>
      <point x="455" y="-40" type="line"/>
      <point x="455" y="740" type="line"/>
      <point x="435" y="740" type="line"/>
    </contour>
  </outline>
</glyph>
<glyph name="Ef-cy.ss01" format="2">
  <advance width="892"/>
  <outline>
    <contour>
      <point x="446" y="-3" type="curve" smooth="yes"/>
      <point x="664" y="-3"/>
      <point x="824" y="148"/>
      <point x="824" y="350" type="curve" smooth="yes"/>
      <point x="824" y="552"/>
      <point x="664" y="703"/>
      <point x="446" y="703" type="curve" smooth="yes"/>
      <point x="228" y="703"/>
      <point x="68" y="552"/>
      <point x="68" y="350" type="curve" smooth="yes"/>
      <point x="68" y="148"/>
      <point x="228" y="-3"/>
    </contour>
    <contour>
      <point x="446" y="16" type="curve" smooth="yes"/>
      <point x="240" y="16"/>
      <point x="88" y="159"/>
      <point x="88" y="350" type="curve" smooth="yes"/>
      <point x="88" y="541"/>
      <point x="240" y="684"/>
      <point x="446" y="684" type="curve" smooth="yes"/>
      <point x="652" y="684"/>
      <point x="804" y="541"/>
      <point x="804" y="350" type="curve" smooth="yes"/>
      <point x="804" y="159"/>
      <point x="652" y="16"/>
    </contour>
    <contour>
      <point x="436" y="6" type="line"/>
      <point x="456" y="6" type="line"/>
      <point x="456" y="693" type="line"/>
      <point x="436" y="693" type="line"/>
    </contour>
  </outline>
</glyph>
<glyph name="El-cy.loclBGR" format="2">
  <advance width="698"/>
  <outline>
    <contour>
      <point x="359" y="700" type="line"/>
      <point x="339" y="700" type="line"/>
      <point x="24" y="0" type="line"/>
      <point x="47" y="0" type="line"/>
      <point x="354" y="684" type="line"/>
      <point x="344" y="684" type="line"/>
      <point x="651" y="0" type="line"/>
      <point x="674" y="0" type="line"/>
    </contour>
  </outline>
</glyph>
<glyph name="Eng.ss01" format="2">
  <advance width="800"/>
  <outline>
    <contour>
      <point x="404" y="703" type="curve" smooth="yes"/>
      <point x="277" y="703"/>
      <point x="186" y="645"/>
      <point x="151" y="527" type="curve"/>
      <point x="153" y="524" type="line"/>
      <point x="153" y="700" type="line"/>
      <point x="133" y="700" type="line"/>
      <point x="133" y="0" type="line"/>
      <point x="153" y="0" type="line"/>
      <point x="153" y="401" type="line" smooth="yes"/>
      <point x="153" y="593"/>
      <point x="244" y="684"/>
      <point x="403" y="684" type="curve" smooth="yes"/>
      <point x="562" y="684"/>
      <point x="653" y="594"/>
      <point x="653" y="421" type="curve" smooth="yes"/>
      <point x="653" y="2" type="line" smooth="yes"/>
      <point x="653" y="-120"/>
      <point x="604" y="-178"/>
      <point x="502" y="-178" type="curve" smooth="yes"/>
      <point x="436" y="-178"/>
      <point x="379" y="-145"/>
      <point x="341" y="-86" type="curve"/>
      <point x="327" y="-98" type="line"/>
      <point x="364" y="-160"/>
      <point x="430" y="-197"/>
      <point x="501" y="-197" type="curve" smooth="yes"/>
      <point x="615" y="-197"/>
      <point x="673" y="-131"/>
      <point x="673" y="0" type="curve" smooth="yes"/>
      <point x="673" y="422" type="line" smooth="yes"/>
      <point x="673" y="605"/>
      <point x="570" y="703"/>
    </contour>
  </outline>
</glyph>
<glyph name="Er-cy.ss01" format="2">
  <advance width="709"/>
  <outline>
    <contour>
      <point x="118" y="0" type="line"/>
      <point x="138" y="0" type="line"/>
      <point x="138" y="442" type="line" smooth="yes"/>
      <point x="138" y="593"/>
      <point x="226" y="683"/>
      <point x="381" y="683" type="curve" smooth="yes"/>
      <point x="535" y="683"/>
      <point x="630" y="594"/>
      <point x="630" y="448" type="curve" smooth="yes"/>
      <point x="630" y="303"/>
      <point x="541" y="217"/>
      <point x="392" y="217" type="curve" smooth="yes"/>
      <point x="287" y="217"/>
      <point x="201" y="253"/>
      <point x="136" y="322" type="curve"/>
      <point x="120" y="310" type="line"/>
      <point x="190" y="236"/>
      <point x="281" y="197"/>
      <point x="392" y="197" type="curve" smooth="yes"/>
      <point x="553" y="197"/>
      <point x="650" y="292"/>
      <point x="650" y="448" type="curve" smooth="yes"/>
      <point x="650" y="606"/>
      <point x="546" y="703"/>
      <point x="381" y="703" type="curve" smooth="yes"/>
      <point x="215" y="703"/>
      <point x="118" y="604"/>
      <point x="118" y="442" type="curve" smooth="yes"/>
    </contour>
  </outline>
</glyph>
<glyph name="Hardsign-cy.ss01" format="2">
  <advance width="859"/>
  <outline>
    <contour>
      <point x="272" y="681" type="line"/>
      <point x="292" y="700" type="line"/>
      <point x="9" y="700" type="line"/>
      <point x="9" y="681" type="line"/>
    </contour>
    <contour>
      <point x="538" y="-3" type="curve" smooth="yes"/>
      <point x="703" y="-3"/>
      <point x="804" y="87"/>
      <point x="804" y="232" type="curve" smooth="yes"/>
      <point x="804" y="378"/>
      <point x="707" y="466"/>
      <point x="546" y="466" type="curve" smooth="yes"/>
      <point x="435" y="466"/>
      <point x="344" y="424"/>
      <point x="274" y="343" type="curve"/>
      <point x="290" y="331" type="line"/>
      <point x="355" y="407"/>
      <point x="441" y="446"/>
      <point x="546" y="446" type="curve" smooth="yes"/>
      <point x="695" y="446"/>
      <point x="784" y="367"/>
      <point x="784" y="232" type="curve" smooth="yes"/>
      <point x="784" y="99"/>
      <point x="692" y="17"/>
      <point x="538" y="17" type="curve" smooth="yes"/>
      <point x="383" y="17"/>
      <point x="292" y="100"/>
      <point x="292" y="238" type="curve" smooth="yes"/>
      <point x="292" y="700" type="line"/>
      <point x="272" y="700" type="line"/>
      <point x="272" y="238" type="line" smooth="yes"/>
      <point x="272" y="89"/>
      <point x="372" y="-3"/>
    </contour>
  </outline>
</glyph>
<glyph name="J.ss01" format="2">
  <advance width="477"/>
  <anchor x="209" y="700" name="top"/>
  <outline>
    <contour>
      <point x="178" y="-103" type="curve" smooth="yes"/>
      <point x="292" y="-103"/>
      <point x="350" y="-37"/>
      <point x="350" y="94" type="curve" smooth="yes"/>
      <point x="350" y="700" type="line"/>
      <point x="68" y="700" type="line"/>
      <point x="68" y="681" type="line"/>
      <point x="330" y="681" type="line"/>
      <point x="330" y="96" type="line" smooth="yes"/>
      <point x="330" y="-26"/>
      <point x="281" y="-84"/>
      <point x="179" y="-84" type="curve" smooth="yes"/>
      <point x="113" y="-84"/>
      <point x="56" y="-51"/>
      <point x="18" y="8" type="curve"/>
      <point x="4" y="-4" type="line"/>
      <point x="41" y="-66"/>
      <point x="107" y="-103"/>
    </contour>
  </outline>
</glyph>
<glyph name="M.ss01" format="2">
  <advance width="1224"/>
  <anchor x="614" y="0" name="bottom"/>
  <anchor x="614" y="700" name="top"/>
  <outline>
    <contour>
      <point x="851" y="703" type="curve" smooth="yes"/>
      <point x="731" y="703"/>
      <point x="645" y="647"/>
      <point x="614" y="520" type="curve"/>
      <point x="618" y="520" type="line"/>
      <point x="591" y="642"/>
      <point x="504" y="703"/>
      <point x="379" y="703" type="curve" smooth="yes"/>
      <point x="266" y="703"/>
      <point x="186" y="654"/>
      <point x="151" y="545" type="curve"/>
      <point x="153" y="543" type="line"/>
      <point x="153" y="700" type="line"/>
      <point x="133" y="700" type="line"/>
      <point x="133" y="0" type="line"/>
      <point x="153" y="0" type="line"/>
      <point x="153" y="421" type="line" smooth="yes"/>
      <point x="153" y="603"/>
      <point x="236" y="684"/>
      <point x="378" y="684" type="curve" smooth="yes"/>
      <point x="522" y="684"/>
      <point x="604" y="604"/>
      <point x="604" y="441" type="curve" smooth="yes"/>
      <point x="604" y="0" type="line"/>
      <point x="624" y="0" type="line"/>
      <point x="624" y="421" type="line" smooth="yes"/>
      <point x="624" y="603"/>
      <point x="708" y="684"/>
      <point x="850" y="684" type="curve" smooth="yes"/>
      <point x="994" y="684"/>
      <point x="1077" y="604"/>
      <point x="1077" y="441" type="curve" smooth="yes"/>
      <point x="1077" y="0" type="line"/>
      <point x="1097" y="0" type="line"/>
      <point x="1097" y="442" type="line" smooth="yes"/>
      <point x="1097" y="615"/>
      <point x="1002" y="703"/>
    </contour>
  </outline>
</glyph>
<glyph name="Q.ss01" format="2">
  <advance width="836"/>
  <outline>
    <contour>
      <point x="408" y="-135" type="line"/>
      <point x="428" y="-135" type="line"/>
      <point x="428" y="1" type="line"/>
      <point x="428" y="10" type="line"/>
      <point x="428" y="205" type="line"/>
      <point x="408" y="205" type="line"/>
      <point x="408" y="10" type="line"/>
      <point x="408" y="1" type="line"/>
    </contour>
    <contour>
      <point x="418" y="-3" type="curve" smooth="yes"/>
      <point x="623" y="-3"/>
      <point x="777" y="148"/>
      <point x="777" y="350" type="curve" smooth="yes"/>
      <point x="777" y="552"/>
      <point x="623" y="703"/>
      <point x="418" y="703" type="curve" smooth="yes"/>
      <point x="213" y="703"/>
      <point x="59" y="552"/>
      <point x="59" y="350" type="curve" smooth="yes"/>
      <point x="59" y="148"/>
      <point x="213" y="-3"/>
    </contour>
    <contour>
      <point x="418" y="16" type="curve" smooth="yes"/>
      <point x="225" y="16"/>
      <point x="79" y="161"/>
      <point x="79" y="350" type="curve" smooth="yes"/>
      <point x="79" y="539"/>
      <point x="225" y="684"/>
      <point x="418" y="684" type="curve" smooth="yes"/>
      <point x="611" y="684"/>
      <point x="757" y="539"/>
      <point x="757" y="350" type="curve" smooth="yes"/>
      <point x="757" y="161"/>
      <point x="611" y="16"/>
    </contour>
  </outline>
</glyph>
<glyph name="T.ss01" format="2">
  <advance width="548"/>
  <anchor x="274" y="0" name="bottom"/>
  <anchor x="264" y="0" name="bottomleft"/>
  <anchor x="274" y="350" name="center"/>
  <anchor x="274" y="699" name="top"/>
  <outline>
    <contour>
      <point x="14" y="615" type="line"/>
      <point x="97" y="664"/>
      <point x="188" y="684"/>
      <point x="273" y="684" type="curve" smooth="yes"/>
      <point x="358" y="684"/>
      <point x="452" y="664"/>
      <point x="534" y="615" type="curve"/>
      <point x="544" y="631" type="line"/>
      <point x="457" y="682"/>
      <point x="363" y="703"/>
      <point x="273" y="703" type="curve" smooth="yes"/>
      <point x="183" y="703"/>
      <point x="91" y="682"/>
      <point x="4" y="631" type="curve"/>
    </contour>
    <contour>
      <point x="264" y="0" type="line"/>
      <point x="284" y="0" type="line"/>
      <point x="284" y="690" type="line"/>
      <point x="264" y="690" type="line"/>
    </contour>
  </outline>
</glyph>
<glyph name="T_h" format="2">
  <advance width="1148"/>
  <outline>
    <contour>
      <point x="264" y="0" type="line"/>
      <point x="284" y="0" type="line"/>
      <point x="284" y="681" type="line"/>
      <point x="604" y="681" type="line"/>
      <point x="604" y="700" type="line"/>
      <point x="4" y="700" type="line"/>
      <point x="4" y="681" type="line"/>
      <point x="264" y="681" type="line"/>
    </contour>
    <contour>
      <point x="832" y="520" type="curve" smooth="yes"/>
      <point x="720" y="520"/>
      <point x="643" y="463"/>
      <point x="613" y="373" type="curve"/>
      <point x="615" y="370" type="line"/>
      <point x="615" y="700" type="line"/>
      <point x="595" y="700" type="line"/>
      <point x="595" y="0" type="line"/>
      <point x="615" y="0" type="line"/>
      <point x="615" y="281" type="line" smooth="yes"/>
      <point x="615" y="412"/>
      <point x="697" y="501"/>
      <point x="833" y="501" type="curve" smooth="yes"/>
      <point x="950" y="501"/>
      <point x="1019" y="433"/>
      <point x="1019" y="305" type="curve" smooth="yes"/>
      <point x="1019" y="0" type="line"/>
      <point x="1039" y="0" type="line"/>
      <point x="1039" y="305" type="line" smooth="yes"/>
      <point x="1039" y="445"/>
      <point x="959" y="520"/>
    </contour>
  </outline>
</glyph>
<glyph name="Udieresis.alt.BRACKET.133" format="2">
  <advance width="794"/>
  <outline>
    <contour>
      <point x="397" y="-3" type="curve" smooth="yes"/>
      <point x="564" y="-3"/>
      <point x="667" y="95"/>
      <point x="667" y="293" type="curve" smooth="yes"/>
      <point x="667" y="700" type="line"/>
      <point x="647" y="700" type="line"/>
      <point x="647" y="294" type="line" smooth="yes"/>
      <point x="647" y="107"/>
      <point x="556" y="16"/>
      <point x="397" y="16" type="curve" smooth="yes"/>
      <point x="238" y="16"/>
      <point x="147" y="107"/>
      <point x="147" y="294" type="curve" smooth="yes"/>
      <point x="147" y="700" type="line"/>
      <point x="127" y="700" type="line"/>
      <point x="127" y="293" type="line" smooth="yes"/>
      <point x="127" y="95"/>
      <point x="230" y="-3"/>
    </contour>
    <contour>
      <point x="399" y="527" type="curve" smooth="yes"/>
      <point x="413" y="527"/>
      <point x="425" y="539"/>
      <point x="425" y="553" type="curve" smooth="yes"/>
      <point x="425" y="567"/>
      <point x="413" y="579"/>
      <point x="399" y="579" type="curve" smooth="yes"/>
      <point x="385" y="579"/>
      <point x="373" y="567"/>
      <point x="373" y="553" type="curve" smooth="yes"/>
      <point x="373" y="539"/>
      <point x="385" y="527"/>
    </contour>
    <contour>
      <point x="399" y="651" type="curve" smooth="yes"/>
      <point x="413" y="651"/>
      <point x="425" y="663"/>
      <point x="425" y="677" type="curve" smooth="yes"/>
      <point x="425" y="691"/>
      <point x="413" y="703"/>
      <point x="399" y="703" type="curve" smooth="yes"/>
      <point x="385" y="703"/>
      <point x="373" y="691"/>
      <point x="373" y="677" type="curve" smooth="yes"/>
      <point x="373" y="663"/>
      <point x="385" y="651"/>
    </contour>
  </outline>
</glyph>
<glyph name="Udieresis.alt" format="2">
  <advance width="794"/>
  <outline>
    <contour>
      <point x="397" y="-3" type="curve" smooth="yes"/>
      <point x="564" y="-3"/>
      <point x="667" y="95"/>
      <point x="667" y="293" type="curve" smooth="yes"/>
      <point x="667" y="700" type="line"/>
      <point x="647" y="700" type="line"/>
      <point x="647" y="294" type="line" smooth="yes"/>
      <point x="647" y="107"/>
      <point x="556" y="16"/>
      <point x="397" y="16" type="curve" smooth="yes"/>
      <point x="238" y="16"/>
      <point x="147" y="107"/>
      <point x="147" y="294" type="curve" smooth="yes"/>
      <point x="147" y="700" type="line"/>
      <point x="127" y="700" type="line"/>
      <point x="127" y="293" type="line" smooth="yes"/>
      <point x="127" y="95"/>
      <point x="230" y="-3"/>
    </contour>
    <contour>
      <point x="315" y="651" type="curve" smooth="yes"/>
      <point x="329" y="651"/>
      <point x="341" y="663"/>
      <point x="341" y="677" type="curve" smooth="yes"/>
      <point x="341" y="691"/>
      <point x="329" y="703"/>
      <point x="315" y="703" type="curve" smooth="yes"/>
      <point x="301" y="703"/>
      <point x="289" y="691"/>
      <point x="289" y="677" type="curve" smooth="yes"/>
      <point x="289" y="663"/>
      <point x="301" y="651"/>
    </contour>
    <contour>
      <point x="479" y="651" type="curve" smooth="yes"/>
      <point x="493" y="651"/>
      <point x="505" y="663"/>
      <point x="505" y="677" type="curve" smooth="yes"/>
      <point x="505" y="691"/>
      <point x="493" y="703"/>
      <point x="479" y="703" type="curve" smooth="yes"/>
      <point x="465" y="703"/>
      <point x="453" y="691"/>
      <point x="453" y="677" type="curve" smooth="yes"/>
      <point x="453" y="663"/>
      <point x="465" y="651"/>
    </contour>
  </outline>
</glyph>
<glyph name="W.ss01" format="2">
  <advance width="1210"/>
  <anchor x="605" y="0" name="bottom"/>
  <anchor x="605" y="700" name="top"/>
  <outline>
    <contour>
      <point x="372" y="-3" type="curve" smooth="yes"/>
      <point x="497" y="-3"/>
      <point x="583" y="59"/>
      <point x="606" y="190" type="curve"/>
      <point x="604" y="190" type="line"/>
      <point x="627" y="59"/>
      <point x="712" y="-3"/>
      <point x="838" y="-3" type="curve" smooth="yes"/>
      <point x="987" y="-3"/>
      <point x="1083" y="84"/>
      <point x="1083" y="267" type="curve" smooth="yes"/>
      <point x="1083" y="700" type="line"/>
      <point x="1063" y="700" type="line"/>
      <point x="1063" y="268" type="line" smooth="yes"/>
      <point x="1063" y="94"/>
      <point x="978" y="16"/>
      <point x="838" y="16" type="curve" smooth="yes"/>
      <point x="698" y="16"/>
      <point x="615" y="94"/>
      <point x="615" y="268" type="curve" smooth="yes"/>
      <point x="615" y="700" type="line"/>
      <point x="595" y="700" type="line"/>
      <point x="595" y="268" type="line" smooth="yes"/>
      <point x="595" y="94"/>
      <point x="511" y="16"/>
      <point x="372" y="16" type="curve" smooth="yes"/>
      <point x="231" y="16"/>
      <point x="147" y="94"/>
      <point x="147" y="268" type="curve" smooth="yes"/>
      <point x="147" y="700" type="line"/>
      <point x="127" y="700" type="line"/>
      <point x="127" y="267" type="line" smooth="yes"/>
      <point x="127" y="84"/>
      <point x="222" y="-3"/>
    </contour>
  </outline>
</glyph>
<glyph name="a.sc.ss01" format="2">
  <advance width="680"/>
  <anchor x="340" y="0" name="bottom"/>
  <anchor x="564" y="0" name="ogonek"/>
  <anchor x="340" y="559" name="top"/>
  <anchor x="88" y="559" name="topleft"/>
  <outline>
    <contour>
      <point x="116" y="0" type="line"/>
      <point x="136" y="0" type="line"/>
      <point x="136" y="326" type="line" smooth="yes"/>
      <point x="136" y="471"/>
      <point x="213" y="543"/>
      <point x="340" y="543" type="curve" smooth="yes"/>
      <point x="467" y="543"/>
      <point x="544" y="471"/>
      <point x="544" y="326" type="curve" smooth="yes"/>
      <point x="544" y="0" type="line"/>
      <point x="564" y="0" type="line"/>
      <point x="564" y="324" type="line" smooth="yes"/>
      <point x="564" y="483"/>
      <point x="476" y="562"/>
      <point x="340" y="562" type="curve" smooth="yes"/>
      <point x="204" y="562"/>
      <point x="116" y="483"/>
      <point x="116" y="324" type="curve" smooth="yes"/>
    </contour>
    <contour>
      <point x="130" y="182" type="line"/>
      <point x="552" y="182" type="line"/>
      <point x="552" y="201" type="line"/>
      <point x="130" y="201" type="line"/>
    </contour>
  </outline>
</glyph>
<glyph name="adieresis.sc.alt" format="2">
  <advance width="563"/>
  <outline>
    <contour>
      <point x="150" y="510" type="curve" smooth="yes"/>
      <point x="164" y="510"/>
      <point x="176" y="522"/>
      <point x="176" y="536" type="curve" smooth="yes"/>
      <point x="176" y="550"/>
      <point x="164" y="562"/>
      <point x="150" y="562" type="curve" smooth="yes"/>
      <point x="136" y="562"/>
      <point x="124" y="550"/>
      <point x="124" y="536" type="curve" smooth="yes"/>
      <point x="124" y="522"/>
      <point x="136" y="510"/>
    </contour>
    <contour>
      <point x="413" y="510" type="curve" smooth="yes"/>
      <point x="427" y="510"/>
      <point x="439" y="522"/>
      <point x="439" y="536" type="curve" smooth="yes"/>
      <point x="439" y="550"/>
      <point x="427" y="562"/>
      <point x="413" y="562" type="curve" smooth="yes"/>
      <point x="399" y="562"/>
      <point x="387" y="550"/>
      <point x="387" y="536" type="curve" smooth="yes"/>
      <point x="387" y="522"/>
      <point x="399" y="510"/>
    </contour>
    <contour>
      <point x="9" y="0" type="line"/>
      <point x="31" y="0" type="line"/>
      <point x="286" y="544" type="line"/>
      <point x="277" y="544" type="line"/>
      <point x="531" y="0" type="line"/>
      <point x="554" y="0" type="line"/>
      <point x="291" y="559" type="line"/>
      <point x="271" y="559" type="line"/>
    </contour>
    <contour>
      <point x="100" y="169" type="line"/>
      <point x="462" y="169" type="line"/>
      <point x="453" y="188" type="line"/>
      <point x="109" y="188" type="line"/>
    </contour>
  </outline>
</glyph>
<glyph name="ae.ss01" format="2">
  <advance width="982"/>
  <anchor x="489" y="517" name="top"/>
  <outline>
    <contour>
      <point x="248" y="-3" type="curve" smooth="yes"/>
      <point x="359" y="-3"/>
      <point x="455" y="54"/>
      <point x="466" y="187" type="curve"/>
      <point x="453" y="189" type="line"/>
      <point x="488" y="61"/>
      <point x="594" y="-3"/>
      <point x="709" y="-3" type="curve" smooth="yes"/>
      <point x="785" y="-3"/>
      <point x="850" y="26"/>
      <point x="897" y="82" type="curve"/>
      <point x="883" y="96" type="line"/>
      <point x="840" y="42"/>
      <point x="780" y="16"/>
      <point x="709" y="16" type="curve" smooth="yes"/>
      <point x="569" y="16"/>
      <point x="465" y="116"/>
      <point x="465" y="259" type="curve" smooth="yes"/>
      <point x="465" y="263" type="line" smooth="yes"/>
      <point x="465" y="399"/>
      <point x="560" y="501"/>
      <point x="696" y="501" type="curve" smooth="yes"/>
      <point x="821" y="501"/>
      <point x="900" y="399"/>
      <point x="908" y="292" type="curve"/>
      <point x="917" y="306" type="line"/>
      <point x="457" y="216" type="line"/>
      <point x="464" y="198" type="line"/>
      <point x="928" y="289" type="line"/>
      <point x="919" y="414"/>
      <point x="830" y="520"/>
      <point x="696" y="520" type="curve" smooth="yes"/>
      <point x="584" y="520"/>
      <point x="496" y="456"/>
      <point x="462" y="359" type="curve"/>
      <point x="465" y="350" type="line"/>
      <point x="458" y="464"/>
      <point x="396" y="520"/>
      <point x="280" y="520" type="curve" smooth="yes"/>
      <point x="202" y="520"/>
      <point x="128" y="490"/>
      <point x="79" y="443" type="curve"/>
      <point x="93" y="429" type="line"/>
      <point x="138" y="472"/>
      <point x="204" y="501"/>
      <point x="281" y="501" type="curve" smooth="yes"/>
      <point x="388" y="501"/>
      <point x="445" y="446"/>
      <point x="445" y="338" type="curve" smooth="yes"/>
      <point x="445" y="202" type="line" smooth="yes"/>
      <point x="445" y="82"/>
      <point x="364" y="16"/>
      <point x="248" y="16" type="curve" smooth="yes"/>
      <point x="145" y="16"/>
      <point x="85" y="65"/>
      <point x="85" y="143" type="curve" smooth="yes"/>
      <point x="85" y="211"/>
      <point x="131" y="261"/>
      <point x="248" y="261" type="curve" smooth="yes"/>
      <point x="451" y="261" type="line"/>
      <point x="451" y="280" type="line"/>
      <point x="249" y="280" type="line" smooth="yes"/>
      <point x="111" y="280"/>
      <point x="65" y="215"/>
      <point x="65" y="142" type="curve" smooth="yes"/>
      <point x="65" y="55"/>
      <point x="132" y="-3"/>
    </contour>
  </outline>
</glyph>
<glyph name="ampersand.sc" format="2">
  <advance width="515"/>
  <outline>
    <contour>
      <point x="222" y="-3" type="curve" smooth="yes"/>
      <point x="350" y="-3"/>
      <point x="437" y="71"/>
      <point x="468" y="230" type="curve"/>
      <point x="452" y="234" type="line"/>
      <point x="423" y="85"/>
      <point x="342" y="14"/>
      <point x="222" y="14" type="curve" smooth="yes"/>
      <point x="129" y="14"/>
      <point x="65" y="62"/>
      <point x="65" y="135" type="curve" smooth="yes"/>
      <point x="65" y="193"/>
      <point x="98" y="234"/>
      <point x="212" y="301" type="curve" smooth="yes"/>
      <point x="324" y="367"/>
      <point x="360" y="404"/>
      <point x="360" y="461" type="curve" smooth="yes"/>
      <point x="360" y="524"/>
      <point x="314" y="562"/>
      <point x="244" y="562" type="curve" smooth="yes"/>
      <point x="167" y="562"/>
      <point x="120" y="518"/>
      <point x="120" y="453" type="curve" smooth="yes"/>
      <point x="120" y="410"/>
      <point x="134" y="379"/>
      <point x="191" y="318" type="curve" smooth="yes"/>
      <point x="496" y="-8" type="line"/>
      <point x="511" y="4" type="line"/>
      <point x="209" y="327" type="line" smooth="yes"/>
      <point x="152" y="387"/>
      <point x="139" y="415"/>
      <point x="139" y="453" type="curve" smooth="yes"/>
      <point x="139" y="507"/>
      <point x="177" y="544"/>
      <point x="244" y="544" type="curve" smooth="yes"/>
      <point x="306" y="544"/>
      <point x="341" y="511"/>
      <point x="341" y="461" type="curve" smooth="yes"/>
      <point x="341" y="409"/>
      <point x="307" y="377"/>
      <point x="200" y="315" type="curve" smooth="yes"/>
      <point x="83" y="247"/>
      <point x="45" y="197"/>
      <point x="45" y="135" type="curve" smooth="yes"/>
      <point x="45" y="52"/>
      <point x="118" y="-3"/>
    </contour>
  </outline>
</glyph>
<glyph name="b.sc" format="2">
  <advance width="626"/>
  <anchor x="321" y="0" name="bottom"/>
  <anchor x="321" y="559" name="top"/>
  <outline>
    <contour>
      <point x="122" y="0" type="line"/>
      <point x="364" y="0" type="line"/>
      <point x="502" y="0"/>
      <point x="570" y="52"/>
      <point x="570" y="146" type="curve" smooth="yes"/>
      <point x="570" y="241"/>
      <point x="504" y="290"/>
      <point x="373" y="290" type="curve"/>
      <point x="360" y="278" type="line"/>
      <point x="465" y="278"/>
      <point x="539" y="325"/>
      <point x="539" y="418" type="curve" smooth="yes"/>
      <point x="539" y="511"/>
      <point x="465" y="559"/>
      <point x="348" y="559" type="curve" smooth="yes"/>
      <point x="122" y="559" type="line"/>
    </contour>
    <contour>
      <point x="142" y="19" type="line"/>
      <point x="142" y="540" type="line"/>
      <point x="351" y="540" type="line" smooth="yes"/>
      <point x="457" y="540"/>
      <point x="519" y="498"/>
      <point x="519" y="417" type="curve" smooth="yes"/>
      <point x="519" y="336"/>
      <point x="457" y="293"/>
      <point x="351" y="293" type="curve" smooth="yes"/>
      <point x="137" y="293" type="line"/>
      <point x="137" y="274" type="line"/>
      <point x="367" y="274" type="line" smooth="yes"/>
      <point x="486" y="274"/>
      <point x="550" y="236"/>
      <point x="550" y="147" type="curve" smooth="yes"/>
      <point x="550" y="59"/>
      <point x="486" y="19"/>
      <point x="367" y="19" type="curve" smooth="yes"/>
    </contour>
  </outline>
</glyph>
<glyph name="be-cy.loclSRB" format="2">
  <advance width="616"/>
  <guideline x="559" y="651" angle="90"/>
  <guideline x="56" y="651" angle="90"/>
  <outline>
    <contour>
      <point x="307" y="-2" type="curve" smooth="yes"/>
      <point x="452" y="-2"/>
      <point x="557" y="102"/>
      <point x="557" y="251" type="curve" smooth="yes"/>
      <point x="557" y="350"/>
      <point x="511" y="428"/>
      <point x="411" y="477" type="curve" smooth="yes"/>
      <point x="268" y="546"/>
      <point x="139" y="609"/>
      <point x="139" y="672" type="curve" smooth="yes"/>
      <point x="139" y="701"/>
      <point x="167" y="722"/>
      <point x="210" y="722" type="curve" smooth="yes"/>
      <point x="516" y="723" type="line"/>
      <point x="516" y="742" type="line"/>
      <point x="210" y="742" type="line" smooth="yes"/>
      <point x="154" y="742"/>
      <point x="119" y="712"/>
      <point x="119" y="673" type="curve" smooth="yes"/>
      <point x="119" y="620"/>
      <point x="186" y="564"/>
      <point x="355" y="486" type="curve"/>
      <point x="356" y="490" type="line"/>
      <point x="193" y="522"/>
      <point x="59" y="413"/>
      <point x="59" y="248" type="curve" smooth="yes"/>
      <point x="59" y="103"/>
      <point x="161" y="-2"/>
    </contour>
    <contour>
      <point x="306" y="18" type="curve" smooth="yes"/>
      <point x="172" y="18"/>
      <point x="79" y="114"/>
      <point x="79" y="248" type="curve" smooth="yes"/>
      <point x="79" y="382"/>
      <point x="172" y="478"/>
      <point x="306" y="478" type="curve" smooth="yes"/>
      <point x="440" y="478"/>
      <point x="537" y="382"/>
      <point x="537" y="248" type="curve" smooth="yes"/>
      <point x="537" y="114"/>
      <point x="440" y="18"/>
    </contour>
  </outline>
</glyph>
<glyph name="brevecomb.narrow" format="2">
  <anchor x="300" y="517" name="_top"/>
  <anchor x="300" y="650" name="top"/>
  <outline>
    <contour>
      <point x="300" y="604" type="curve" smooth="yes"/>
      <point x="362" y="604"/>
      <point x="407" y="647"/>
      <point x="407" y="717" type="curve"/>
      <point x="388" y="717" type="line"/>
      <point x="388" y="659"/>
      <point x="352" y="623"/>
      <point x="300" y="623" type="curve" smooth="yes"/>
      <point x="248" y="623"/>
      <point x="212" y="659"/>
      <point x="212" y="717" type="curve"/>
      <point x="193" y="717" type="line"/>
      <point x="193" y="647"/>
      <point x="238" y="604"/>
    </contour>
  </outline>
</glyph>
<glyph name="caroncomb.alt.short" format="2">
  <anchor x="300" y="742" name="_topright"/>
  <outline>
    <contour>
      <point x="300" y="602" type="line"/>
      <point x="315" y="602" type="line"/>
      <point x="320" y="762" type="line"/>
      <point x="300" y="762" type="line"/>
    </contour>
  </outline>
</glyph>
<glyph name="caroncomb.loclVIET" format="2">
  <anchor x="300" y="517" name="_top"/>
  <anchor x="300" y="607" name="top"/>
  <outline>
    <contour>
      <point x="285" y="607" type="line"/>
      <point x="315" y="607" type="line"/>
      <point x="438" y="687" type="line"/>
      <point x="408" y="687" type="line"/>
      <point x="295" y="620" type="line"/>
      <point x="305" y="620" type="line"/>
      <point x="192" y="687" type="line"/>
      <point x="162" y="687" type="line"/>
    </contour>
  </outline>
</glyph>
<glyph name="caroncomb.narrow" format="2">
  <anchor x="300" y="517" name="_top"/>
  <anchor x="300" y="650" name="top"/>
  <outline>
    <contour>
      <point x="285" y="607" type="line"/>
      <point x="315" y="607" type="line"/>
      <point x="413" y="717" type="line"/>
      <point x="386" y="717" type="line"/>
      <point x="298" y="621" type="line"/>
      <point x="302" y="621" type="line"/>
      <point x="214" y="717" type="line"/>
      <point x="187" y="717" type="line"/>
    </contour>
  </outline>
</glyph>
<glyph name="cent.BRACKET.179" format="2">
  <advance width="545"/>
  <outline>
    <contour>
      <point x="293" y="-120" type="line"/>
      <point x="312" y="-120" type="line"/>
      <point x="312" y="637" type="line"/>
      <point x="293" y="637" type="line"/>
    </contour>
    <contour>
      <point x="308" y="-3" type="curve" smooth="yes"/>
      <point x="382" y="-3"/>
      <point x="450" y="25"/>
      <point x="494" y="81" type="curve"/>
      <point x="480" y="96" type="line"/>
      <point x="440" y="42"/>
      <point x="377" y="16"/>
      <point x="308" y="16" type="curve" smooth="yes"/>
      <point x="173" y="16"/>
      <point x="74" y="115"/>
      <point x="74" y="259" type="curve" smooth="yes"/>
      <point x="74" y="402"/>
      <point x="173" y="501"/>
      <point x="308" y="501" type="curve" smooth="yes"/>
      <point x="377" y="501"/>
      <point x="440" y="475"/>
      <point x="480" y="421" type="curve"/>
      <point x="494" y="436" type="line"/>
      <point x="450" y="492"/>
      <point x="382" y="520"/>
      <point x="308" y="520" type="curve" smooth="yes"/>
      <point x="161" y="520"/>
      <point x="54" y="413"/>
      <point x="54" y="259" type="curve" smooth="yes"/>
      <point x="54" y="105"/>
      <point x="161" y="-3"/>
    </contour>
  </outline>
</glyph>
<glyph name="d.sc" format="2">
  <advance width="693"/>
  <anchor x="336" y="0" name="bottom"/>
  <anchor x="178" y="284" name="center"/>
  <anchor x="332" y="559" name="top"/>
  <outline>
    <contour>
      <point x="122" y="0" type="line"/>
      <point x="338" y="0" type="line"/>
      <point x="525" y="0"/>
      <point x="637" y="118"/>
      <point x="637" y="280" type="curve" smooth="yes"/>
      <point x="637" y="441"/>
      <point x="525" y="559"/>
      <point x="338" y="559" type="curve" smooth="yes"/>
      <point x="122" y="559" type="line"/>
    </contour>
    <contour>
      <point x="142" y="19" type="line"/>
      <point x="142" y="540" type="line"/>
      <point x="336" y="540" type="line" smooth="yes"/>
      <point x="516" y="540"/>
      <point x="617" y="430"/>
      <point x="617" y="280" type="curve" smooth="yes"/>
      <point x="617" y="129"/>
      <point x="516" y="19"/>
      <point x="336" y="19" type="curve" smooth="yes"/>
    </contour>
  </outline>
</glyph>
<glyph name="descender-cy.case.short" format="2">
  <advance width="272"/>
  <anchor x="69" y="0" name="_bottomleft"/>
  <outline>
    <contour>
      <point x="138" y="-165" type="line"/>
      <point x="158" y="-165" type="line"/>
      <point x="158" y="19" type="line"/>
      <point x="69" y="19" type="line"/>
      <point x="69" y="0" type="line"/>
      <point x="147" y="0" type="line"/>
      <point x="138" y="9" type="line"/>
    </contour>
  </outline>
</glyph>
<glyph name="dieresiscomb.narrow" format="2">
  <anchor x="300" y="517" name="_top"/>
  <anchor x="300" y="630" name="top"/>
  <outline>
    <contour>
      <point x="356" y="641" type="curve" smooth="yes"/>
      <point x="370" y="641"/>
      <point x="381" y="653"/>
      <point x="381" y="667" type="curve" smooth="yes"/>
      <point x="381" y="681"/>
      <point x="370" y="693"/>
      <point x="356" y="693" type="curve" smooth="yes"/>
      <point x="342" y="693"/>
      <point x="331" y="681"/>
      <point x="331" y="667" type="curve" smooth="yes"/>
      <point x="331" y="653"/>
      <point x="342" y="641"/>
    </contour>
    <contour>
      <point x="244" y="641" type="curve" smooth="yes"/>
      <point x="258" y="641"/>
      <point x="269" y="653"/>
      <point x="269" y="667" type="curve" smooth="yes"/>
      <point x="269" y="681"/>
      <point x="258" y="693"/>
      <point x="244" y="693" type="curve" smooth="yes"/>
      <point x="230" y="693"/>
      <point x="219" y="681"/>
      <point x="219" y="667" type="curve" smooth="yes"/>
      <point x="219" y="653"/>
      <point x="230" y="641"/>
    </contour>
  </outline>
</glyph>
<glyph name="dotaccentcomb.i" format="2">
  <anchor x="300" y="517" name="_top"/>
  <anchor x="300" y="649" name="top"/>
  <outline>
    <contour>
      <point x="300" y="660" type="curve" smooth="yes"/>
      <point x="314" y="660"/>
      <point x="326" y="672"/>
      <point x="326" y="686" type="curve" smooth="yes"/>
      <point x="326" y="700"/>
      <point x="314" y="712"/>
      <point x="300" y="712" type="curve" smooth="yes"/>
      <point x="286" y="712"/>
      <point x="274" y="700"/>
      <point x="274" y="686" type="curve" smooth="yes"/>
      <point x="274" y="672"/>
      <point x="286" y="660"/>
    </contour>
  </outline>
</glyph>
<glyph name="e.sc" format="2">
  <advance width="559"/>
  <anchor x="320" y="0" name="bottom"/>
  <anchor x="501" y="0" name="ogonek"/>
  <anchor x="306" y="559" name="top"/>
  <anchor x="48" y="559" name="topleft"/>
  <outline>
    <contour>
      <point x="137" y="293" type="line"/>
      <point x="137" y="274" type="line"/>
      <point x="453" y="274" type="line"/>
      <point x="453" y="293" type="line"/>
    </contour>
    <contour>
      <point x="142" y="19" type="line"/>
      <point x="142" y="540" type="line"/>
      <point x="489" y="540" type="line"/>
      <point x="489" y="559" type="line"/>
      <point x="122" y="559" type="line"/>
      <point x="122" y="0" type="line"/>
      <point x="501" y="0" type="line"/>
      <point x="501" y="19" type="line"/>
    </contour>
  </outline>
</glyph>
<glyph name="el-cy.loclBGR" format="2">
  <advance width="528"/>
  <outline>
    <contour>
      <point x="274" y="517" type="line"/>
      <point x="254" y="517" type="line"/>
      <point x="16" y="0" type="line"/>
      <point x="39" y="0" type="line"/>
      <point x="268" y="503" type="line"/>
      <point x="260" y="503" type="line"/>
      <point x="489" y="0" type="line"/>
      <point x="512" y="0" type="line"/>
    </contour>
  </outline>
</glyph>
<glyph name="eng.sc.ss01" format="2">
  <advance width="678"/>
  <outline>
    <contour>
      <point x="344" y="562" type="curve" smooth="yes"/>
      <point x="241" y="562"/>
      <point x="169" y="515"/>
      <point x="140" y="421" type="curve"/>
      <point x="142" y="418" type="line"/>
      <point x="142" y="559" type="line"/>
      <point x="122" y="559" type="line"/>
      <point x="122" y="0" type="line"/>
      <point x="142" y="0" type="line"/>
      <point x="142" y="320" type="line" smooth="yes"/>
      <point x="142" y="471"/>
      <point x="215" y="543"/>
      <point x="342" y="543" type="curve" smooth="yes"/>
      <point x="469" y="543"/>
      <point x="542" y="472"/>
      <point x="542" y="336" type="curve" smooth="yes"/>
      <point x="542" y="3" type="line" smooth="yes"/>
      <point x="542" y="-93"/>
      <point x="502" y="-138"/>
      <point x="421" y="-138" type="curve" smooth="yes"/>
      <point x="368" y="-138"/>
      <point x="323" y="-113"/>
      <point x="292" y="-66" type="curve"/>
      <point x="279" y="-80" type="line"/>
      <point x="309" y="-129"/>
      <point x="363" y="-158"/>
      <point x="420" y="-158" type="curve" smooth="yes"/>
      <point x="514" y="-158"/>
      <point x="562" y="-104"/>
      <point x="562" y="2" type="curve" smooth="yes"/>
      <point x="562" y="337" type="line" smooth="yes"/>
      <point x="562" y="483"/>
      <point x="479" y="562"/>
    </contour>
  </outline>
</glyph>
<glyph name="f.sc" format="2">
  <advance width="531"/>
  <outline>
    <contour>
      <point x="137" y="277" type="line"/>
      <point x="137" y="258" type="line"/>
      <point x="453" y="258" type="line"/>
      <point x="453" y="277" type="line"/>
    </contour>
    <contour>
      <point x="142" y="0" type="line"/>
      <point x="142" y="540" type="line"/>
      <point x="489" y="540" type="line"/>
      <point x="489" y="559" type="line"/>
      <point x="122" y="559" type="line"/>
      <point x="122" y="0" type="line"/>
    </contour>
  </outline>
</glyph>
<glyph name="f.sc.ss01" format="2">
  <advance width="503"/>
  <outline>
    <contour>
      <point x="116" y="0" type="line"/>
      <point x="136" y="0" type="line"/>
      <point x="136" y="381" type="line" smooth="yes"/>
      <point x="136" y="482"/>
      <point x="193" y="543"/>
      <point x="317" y="543" type="curve" smooth="yes"/>
      <point x="376" y="543"/>
      <point x="429" y="529"/>
      <point x="471" y="497" type="curve"/>
      <point x="482" y="514" type="line"/>
      <point x="440" y="547"/>
      <point x="381" y="562"/>
      <point x="317" y="562" type="curve" smooth="yes"/>
      <point x="180" y="562"/>
      <point x="116" y="490"/>
      <point x="116" y="383" type="curve" smooth="yes"/>
    </contour>
    <contour>
      <point x="132" y="258" type="line"/>
      <point x="428" y="258" type="line"/>
      <point x="428" y="277" type="line"/>
      <point x="132" y="277" type="line"/>
    </contour>
  </outline>
</glyph>
<glyph name="f.ss01" format="2">
  <advance width="303"/>
  <outline>
    <contour>
      <point x="115" y="0" type="line"/>
      <point x="135" y="0" type="line"/>
      <point x="135" y="503" type="line"/>
      <point x="135" y="514" type="line"/>
      <point x="135" y="613" type="line" smooth="yes"/>
      <point x="135" y="686"/>
      <point x="171" y="726"/>
      <point x="241" y="726" type="curve" smooth="yes"/>
      <point x="274" y="726"/>
      <point x="305" y="715"/>
      <point x="327" y="694" type="curve"/>
      <point x="341" y="708" type="line"/>
      <point x="317" y="733"/>
      <point x="277" y="745"/>
      <point x="240" y="745" type="curve" smooth="yes"/>
      <point x="160" y="745"/>
      <point x="115" y="694"/>
      <point x="115" y="618" type="curve" smooth="yes"/>
    </contour>
    <contour>
      <point x="125" y="498" type="line"/>
      <point x="310" y="498" type="line"/>
      <point x="310" y="517" type="line"/>
      <point x="125" y="517" type="line"/>
    </contour>
  </outline>
</glyph>
<glyph name="five.dnom" format="2">
  <advance width="430"/>
  <outline>
    <contour>
      <point x="210" y="-2" type="curve" smooth="yes"/>
      <point x="314" y="-2"/>
      <point x="368" y="46"/>
      <point x="368" y="114" type="curve" smooth="yes"/>
      <point x="368" y="182"/>
      <point x="321" y="226"/>
      <point x="183" y="226" type="curve" smooth="yes"/>
      <point x="90" y="226" type="line"/>
      <point x="98" y="217" type="line"/>
      <point x="120" y="406" type="line"/>
      <point x="112" y="397" type="line"/>
      <point x="343" y="397" type="line"/>
      <point x="343" y="415" type="line"/>
      <point x="103" y="415" type="line"/>
      <point x="79" y="208" type="line"/>
      <point x="181" y="208" type="line" smooth="yes"/>
      <point x="308" y="208"/>
      <point x="349" y="172"/>
      <point x="349" y="114" type="curve" smooth="yes"/>
      <point x="349" y="55"/>
      <point x="304" y="16"/>
      <point x="210" y="16" type="curve" smooth="yes"/>
      <point x="139" y="16"/>
      <point x="84" y="39"/>
      <point x="58" y="70" type="curve"/>
      <point x="48" y="55" type="line"/>
      <point x="75" y="21"/>
      <point x="137" y="-2"/>
    </contour>
  </outline>
</glyph>
<glyph name="four.tf" format="2">
  <advance width="700"/>
  <guideline x="445" y="228" angle="90"/>
  <outline>
    <contour>
      <point x="74" y="208" type="line"/>
      <point x="626" y="208" type="line"/>
      <point x="626" y="227" type="line"/>
      <point x="85" y="227" type="line"/>
      <point x="98" y="223" type="line"/>
      <point x="438" y="700" type="line"/>
      <point x="414" y="700" type="line"/>
      <point x="74" y="223" type="line"/>
    </contour>
    <contour>
      <point x="445" y="0" type="line"/>
      <point x="465" y="0" type="line"/>
      <point x="465" y="410" type="line"/>
      <point x="445" y="410" type="line"/>
      <point x="445" y="227" type="line"/>
      <point x="445" y="208" type="line"/>
    </contour>
  </outline>
</glyph>
<glyph name="four.tosf" format="2">
  <advance width="700"/>
  <outline>
    <contour>
      <point x="74" y="108" type="line"/>
      <point x="626" y="108" type="line"/>
      <point x="626" y="127" type="line"/>
      <point x="85" y="127" type="line"/>
      <point x="98" y="123" type="line"/>
      <point x="438" y="600" type="line"/>
      <point x="414" y="600" type="line"/>
      <point x="74" y="123" type="line"/>
    </contour>
    <contour>
      <point x="445" y="-100" type="line"/>
      <point x="465" y="-100" type="line"/>
      <point x="465" y="310" type="line"/>
      <point x="445" y="310" type="line"/>
      <point x="445" y="127" type="line"/>
      <point x="445" y="108" type="line"/>
    </contour>
  </outline>
</glyph>
<glyph name="ge-cy.loclBGR" format="2">
  <advance width="518"/>
  <outline>
    <contour>
      <point x="253" y="-3" type="curve" smooth="yes"/>
      <point x="341" y="-3"/>
      <point x="417" y="30"/>
      <point x="465" y="71" type="curve"/>
      <point x="452" y="85" type="line"/>
      <point x="407" y="50"/>
      <point x="345" y="16"/>
      <point x="256" y="16" type="curve" smooth="yes"/>
      <point x="151" y="16"/>
      <point x="81" y="56"/>
      <point x="81" y="130" type="curve" smooth="yes"/>
      <point x="81" y="299"/>
      <point x="437" y="195"/>
      <point x="437" y="386" type="curve" smooth="yes"/>
      <point x="437" y="470"/>
      <point x="374" y="520"/>
      <point x="257" y="520" type="curve" smooth="yes"/>
      <point x="187" y="520"/>
      <point x="118" y="494"/>
      <point x="73" y="463" type="curve"/>
      <point x="85" y="447" type="line"/>
      <point x="131" y="479"/>
      <point x="192" y="501"/>
      <point x="254" y="501" type="curve" smooth="yes"/>
      <point x="361" y="501"/>
      <point x="417" y="460"/>
      <point x="417" y="387" type="curve" smooth="yes"/>
      <point x="417" y="212"/>
      <point x="61" y="318"/>
      <point x="61" y="131" type="curve" smooth="yes"/>
      <point x="61" y="45"/>
      <point x="138" y="-3"/>
    </contour>
  </outline>
</glyph>
<glyph name="germandbls.sc" format="2">
  <advance width="620"/>
  <outline>
    <contour>
      <point x="564" y="53"/>
      <point x="564" y="154" type="curve" smooth="yes"/>
      <point x="564" y="255"/>
      <point x="492" y="311"/>
      <point x="384" y="311" type="curve" smooth="yes"/>
      <point x="363" y="311"/>
      <point x="339" y="309"/>
      <point x="319" y="300" type="curve"/>
      <point x="321" y="292" type="line"/>
      <point x="515" y="487" type="line"/>
      <point x="515" y="502" type="line"/>
      <point x="469" y="541"/>
      <point x="408" y="559"/>
      <point x="338" y="559" type="curve" smooth="yes"/>
      <point x="200" y="559"/>
      <point x="116" y="474"/>
      <point x="116" y="333" type="curve" smooth="yes"/>
      <point x="116" y="0" type="line"/>
      <point x="136" y="0" type="line"/>
      <point x="136" y="331" type="line" smooth="yes"/>
      <point x="136" y="467"/>
      <point x="210" y="540"/>
      <point x="338" y="540" type="curve" smooth="yes"/>
      <point x="404" y="540"/>
      <point x="461" y="525"/>
      <point x="503" y="488" type="curve"/>
      <point x="504" y="501" type="line"/>
      <point x="303" y="298" type="line"/>
      <point x="309" y="282" type="line"/>
      <point x="330" y="288"/>
      <point x="357" y="292"/>
      <point x="384" y="292" type="curve" smooth="yes"/>
      <point x="481" y="292"/>
      <point x="544" y="246"/>
      <point x="544" y="154" type="curve" smooth="yes"/>
      <point x="544" y="64"/>
      <point x="481" y="16"/>
      <point x="387" y="16" type="curve" smooth="yes"/>
      <point x="345" y="16"/>
      <point x="311" y="24"/>
      <point x="280" y="39" type="curve"/>
      <point x="272" y="20" type="line"/>
      <point x="307" y="4"/>
      <point x="343" y="-3"/>
      <point x="386" y="-3" type="curve" smooth="yes"/>
      <point x="493" y="-3"/>
    </contour>
  </outline>
</glyph>
<glyph name="ghestroke-cy.loclBSH" format="2">
  <advance width="465"/>
  <outline>
    <contour>
      <point x="117" y="0" type="line"/>
      <point x="137" y="0" type="line"/>
      <point x="137" y="498" type="line"/>
      <point x="463" y="498" type="line"/>
      <point x="463" y="517" type="line"/>
      <point x="117" y="517" type="line"/>
    </contour>
    <contour>
      <point x="127" y="232" type="line"/>
      <point x="357" y="232" type="line"/>
      <point x="357" y="251" type="line"/>
      <point x="127" y="251" type="line"/>
    </contour>
  </outline>
</glyph>
<glyph name="guarani.BRACKET.179" format="2">
  <advance width="774"/>
  <guideline x="649" y="609" angle="90" identifier="4qVKB6WFqe"/>
  <outline>
    <contour>
      <point x="421" y="-3" type="curve" smooth="yes"/>
      <point x="516" y="-3"/>
      <point x="602" y="27"/>
      <point x="662" y="87" type="curve"/>
      <point x="650" y="102" type="line"/>
      <point x="589" y="40"/>
      <point x="509" y="16"/>
      <point x="421" y="16" type="curve" smooth="yes"/>
      <point x="225" y="16"/>
      <point x="79" y="161"/>
      <point x="79" y="350" type="curve" smooth="yes"/>
      <point x="79" y="539"/>
      <point x="225" y="684"/>
      <point x="421" y="684" type="curve" smooth="yes"/>
      <point x="509" y="684"/>
      <point x="586" y="661"/>
      <point x="650" y="600" type="curve"/>
      <point x="662" y="614" type="line"/>
      <point x="602" y="674"/>
      <point x="516" y="703"/>
      <point x="421" y="703" type="curve" smooth="yes"/>
      <point x="213" y="703"/>
      <point x="59" y="552"/>
      <point x="59" y="350" type="curve" smooth="yes"/>
      <point x="59" y="148"/>
      <point x="213" y="-3"/>
    </contour>
    <contour>
      <point x="383" y="-120" type="line"/>
      <point x="402" y="-120" type="line"/>
      <point x="402" y="4" type="line"/>
      <point x="383" y="4" type="line"/>
    </contour>
    <contour>
      <point x="662" y="87" type="line"/>
      <point x="662" y="343" type="line"/>
      <point x="643" y="343" type="line"/>
      <point x="643" y="87" type="line"/>
    </contour>
    <contour>
      <point x="383" y="690" type="line"/>
      <point x="402" y="690" type="line"/>
      <point x="402" y="820" type="line"/>
      <point x="383" y="820" type="line"/>
    </contour>
  </outline>
</glyph>
<glyph name="guilsinglright.sc" format="2">
  <advance width="259"/>
  <outline>
    <contour>
      <point x="68" y="113" type="line"/>
      <point x="201" y="279" type="line"/>
      <point x="68" y="446" type="line"/>
      <point x="45" y="446" type="line"/>
      <point x="177" y="279" type="line"/>
      <point x="45" y="113" type="line"/>
    </contour>
  </outline>
</glyph>
<glyph name="hardsign-cy.ss01" format="2">
  <advance width="620"/>
  <outline>
    <contour>
      <point x="184" y="498" type="line"/>
      <point x="198" y="517" type="line"/>
      <point x="-4" y="517" type="line"/>
      <point x="-4" y="498" type="line"/>
    </contour>
    <contour>
      <point x="375" y="-3" type="curve" smooth="yes"/>
      <point x="506" y="-3"/>
      <point x="575" y="84"/>
      <point x="575" y="184" type="curve" smooth="yes"/>
      <point x="575" y="283"/>
      <point x="507" y="360"/>
      <point x="376" y="360" type="curve" smooth="yes"/>
      <point x="290" y="360"/>
      <point x="228" y="322"/>
      <point x="198" y="268" type="curve"/>
      <point x="198" y="517" type="line"/>
      <point x="178" y="517" type="line"/>
      <point x="178" y="183" type="line" smooth="yes"/>
      <point x="178" y="72"/>
      <point x="253" y="-3"/>
    </contour>
    <contour>
      <point x="377" y="16" type="curve" smooth="yes"/>
      <point x="266" y="16"/>
      <point x="198" y="83"/>
      <point x="198" y="184" type="curve" smooth="yes"/>
      <point x="198" y="236" type="line"/>
      <point x="228" y="301"/>
      <point x="290" y="341"/>
      <point x="376" y="341" type="curve" smooth="yes"/>
      <point x="495" y="341"/>
      <point x="555" y="272"/>
      <point x="555" y="183" type="curve" smooth="yes"/>
      <point x="555" y="94"/>
      <point x="496" y="16"/>
    </contour>
  </outline>
</glyph>
<glyph name="i.sc" format="2">
  <advance width="264"/>
  <anchor x="132" y="0" name="bottom"/>
  <anchor x="142" y="0" name="ogonek"/>
  <anchor x="132" y="559" name="top"/>
  <anchor x="48" y="559" name="topleft"/>
  <outline>
    <contour>
      <point x="122" y="0" type="line"/>
      <point x="142" y="0" type="line"/>
      <point x="142" y="559" type="line"/>
      <point x="122" y="559" type="line"/>
    </contour>
  </outline>
</glyph>
<glyph name="iacute_j.loclNLD.sc" format="2">
  <advance width="578"/>
  <outline>
    <contour>
      <point x="265" y="-3" type="curve" smooth="yes"/>
      <point x="393" y="-3"/>
      <point x="477" y="74"/>
      <point x="477" y="233" type="curve" smooth="yes"/>
      <point x="477" y="559" type="line"/>
      <point x="457" y="559" type="line"/>
      <point x="457" y="233" type="line" smooth="yes"/>
      <point x="457" y="85"/>
      <point x="384" y="16"/>
      <point x="265" y="16" type="curve" smooth="yes"/>
      <point x="205" y="16"/>
      <point x="149" y="35"/>
      <point x="106" y="67" type="curve"/>
      <point x="95" y="50" type="line"/>
      <point x="139" y="18"/>
      <point x="199" y="-3"/>
    </contour>
    <contour>
      <point x="101" y="233" type="line"/>
      <point x="121" y="233" type="line"/>
      <point x="121" y="559" type="line"/>
      <point x="101" y="559" type="line"/>
    </contour>
    <contour>
      <point x="90" y="649" type="line"/>
      <point x="120" y="649" type="line"/>
      <point x="270" y="759" type="line"/>
      <point x="230" y="759" type="line"/>
    </contour>
    <contour>
      <point x="446" y="649" type="line"/>
      <point x="476" y="649" type="line"/>
      <point x="626" y="759" type="line"/>
      <point x="586" y="759" type="line"/>
    </contour>
  </outline>
</glyph>
<glyph name="ii-cy.ss01" format="2">
  <advance width="656"/>
  <anchor x="319" y="0" name="bottom"/>
  <anchor x="519" y="0" name="bottomleft"/>
  <anchor x="539" y="0" name="bottomright"/>
  <anchor x="539" y="0" name="ogonek"/>
  <anchor x="322" y="517" name="top"/>
  <anchor x="530" y="517" name="topright"/>
  <outline>
    <contour>
      <point x="311" y="-3" type="curve" smooth="yes"/>
      <point x="418" y="-3"/>
      <point x="492" y="53"/>
      <point x="521" y="143" type="curve"/>
      <point x="519" y="146" type="line"/>
      <point x="519" y="0" type="line"/>
      <point x="539" y="0" type="line"/>
      <point x="539" y="517" type="line"/>
      <point x="519" y="517" type="line"/>
      <point x="519" y="236" type="line" smooth="yes"/>
      <point x="519" y="105"/>
      <point x="440" y="16"/>
      <point x="310" y="16" type="curve" smooth="yes"/>
      <point x="189" y="16"/>
      <point x="119" y="84"/>
      <point x="119" y="212" type="curve" smooth="yes"/>
      <point x="119" y="517" type="line"/>
      <point x="99" y="517" type="line"/>
      <point x="99" y="212" type="line" smooth="yes"/>
      <point x="99" y="72"/>
      <point x="180" y="-3"/>
    </contour>
  </outline>
</glyph>
<glyph name="ij.sc" format="2">
  <advance width="612"/>
  <anchor x="154" y="559" name="top"/>
  <outline>
    <contour>
      <point x="284" y="-3" type="curve" smooth="yes"/>
      <point x="412" y="-3"/>
      <point x="496" y="74"/>
      <point x="496" y="233" type="curve" smooth="yes"/>
      <point x="496" y="559" type="line"/>
      <point x="476" y="559" type="line"/>
      <point x="476" y="233" type="line" smooth="yes"/>
      <point x="476" y="85"/>
      <point x="403" y="16"/>
      <point x="284" y="16" type="curve" smooth="yes"/>
      <point x="224" y="16"/>
      <point x="168" y="35"/>
      <point x="125" y="67" type="curve"/>
      <point x="114" y="50" type="line"/>
      <point x="158" y="18"/>
      <point x="218" y="-3"/>
    </contour>
    <contour>
      <point x="120" y="233" type="line"/>
      <point x="140" y="233" type="line"/>
      <point x="140" y="559" type="line"/>
      <point x="120" y="559" type="line"/>
    </contour>
  </outline>
</glyph>
<glyph name="iu-cy.loclBGR" format="2">
  <advance width="814"/>
  <outline>
    <contour>
      <point x="118" y="0" type="line"/>
      <point x="138" y="0" type="line"/>
      <point x="138" y="253" type="line"/>
      <point x="269" y="253" type="line"/>
      <point x="269" y="272" type="line"/>
      <point x="138" y="272" type="line"/>
      <point x="138" y="742" type="line"/>
      <point x="118" y="742" type="line"/>
    </contour>
    <contour>
      <point x="505" y="-3" type="curve" smooth="yes"/>
      <point x="646" y="-3"/>
      <point x="751" y="106"/>
      <point x="751" y="259" type="curve" smooth="yes"/>
      <point x="751" y="412"/>
      <point x="646" y="520"/>
      <point x="505" y="520" type="curve" smooth="yes"/>
      <point x="364" y="520"/>
      <point x="259" y="412"/>
      <point x="259" y="259" type="curve" smooth="yes"/>
      <point x="259" y="106"/>
      <point x="364" y="-3"/>
    </contour>
    <contour>
      <point x="505" y="16" type="curve" smooth="yes"/>
      <point x="376" y="16"/>
      <point x="279" y="116"/>
      <point x="279" y="259" type="curve" smooth="yes"/>
      <point x="279" y="402"/>
      <point x="376" y="501"/>
      <point x="505" y="501" type="curve" smooth="yes"/>
      <point x="634" y="501"/>
      <point x="731" y="402"/>
      <point x="731" y="259" type="curve" smooth="yes"/>
      <point x="731" y="116"/>
      <point x="634" y="16"/>
    </contour>
  </outline>
</glyph>
<glyph name="k.sc" format="2">
  <advance width="586"/>
  <anchor x="316" y="0" name="bottom"/>
  <anchor x="316" y="559" name="top"/>
  <outline>
    <contour>
      <point x="139" y="145" type="line"/>
      <point x="282" y="289" type="line"/>
      <point x="294" y="301" type="line"/>
      <point x="547" y="559" type="line"/>
      <point x="521" y="559" type="line"/>
      <point x="138" y="172" type="line"/>
    </contour>
    <contour>
      <point x="122" y="0" type="line"/>
      <point x="142" y="0" type="line"/>
      <point x="142" y="559" type="line"/>
      <point x="122" y="559" type="line"/>
    </contour>
    <contour>
      <point x="539" y="0" type="line"/>
      <point x="566" y="0" type="line"/>
      <point x="287" y="313" type="line"/>
      <point x="272" y="299" type="line"/>
    </contour>
  </outline>
</glyph>
<glyph name="ka-cy.loclBGR" format="2">
  <advance width="549"/>
  <anchor x="552" y="0" name="bottomright"/>
  <anchor x="280" y="517" name="top"/>
  <outline>
    <contour>
      <point x="505" y="0" type="line"/>
      <point x="529" y="0" type="line"/>
      <point x="286" y="271" type="line"/>
      <point x="268" y="263" type="line"/>
    </contour>
    <contour>
      <point x="118" y="0" type="line"/>
      <point x="138" y="0" type="line"/>
      <point x="138" y="742" type="line"/>
      <point x="118" y="742" type="line"/>
    </contour>
    <contour>
      <point x="131" y="254" type="line"/>
      <point x="288" y="254" type="line"/>
      <point x="288" y="272" type="line"/>
      <point x="131" y="272" type="line"/>
    </contour>
    <contour>
      <point x="286" y="257" type="line"/>
      <point x="513" y="517" type="line"/>
      <point x="489" y="517" type="line"/>
      <point x="268" y="263" type="line"/>
    </contour>
  </outline>
</glyph>
